  0
SECTION
  2
HEADER
  9
$ACADVER
  1
AC1032
  9
$ACADMAINTVER
 90
       55
  9
$DWGCODEPAGE
  3
ISO8859-1
  9
$LASTSAVEDBY
  1
timhe
  9
$REQUIREDVERSIONS
160
                 0
  9
$INSBASE
 10
0.0
 20
0.0
 30
0.0
  9
$EXTMIN
 10
1.000000000000000E+20
 20
1.000000000000000E+20
 30
1.000000000000000E+20
  9
$EXTMAX
 10
-1.000000000000000E+20
 20
-1.000000000000000E+20
 30
-1.000000000000000E+20
  9
$LIMMIN
 10
0.0
 20
0.0
  9
$LIMMAX
 10
420.0
 20
297.0
  9
$ORTHOMODE
 70
     0
  9
$REGENMODE
 70
     1
  9
$FILLMODE
 70
     1
  9
$QTEXTMODE
 70
     0
  9
$MIRRTEXT
 70
     1
  9
$LTSCALE
 40
1.0
  9
$ATTMODE
 70
     1
  9
$TEXTSIZE
 40
2.5
  9
$TRACEWID
 40
1.0
  9
$TEXTSTYLE
  7
Standard
  9
$CLAYER
  8
0
  9
$CELTYPE
  6
ByLayer
  9
$CECOLOR
 62
   256
  9
$CELTSCALE
 40
1.0
  9
$DISPSILH
 70
     0
  9
$DIMSCALE
 40
1.0
  9
$DIMASZ
 40
2.5
  9
$DIMEXO
 40
0.625
  9
$DIMDLI
 40
3.75
  9
$DIMRND
 40
0.0
  9
$DIMDLE
 40
0.0
  9
$DIMEXE
 40
1.25
  9
$DIMTP
 40
0.0
  9
$DIMTM
 40
0.0
  9
$DIMTXT
 40
2.5
  9
$DIMCEN
 40
2.5
  9
$DIMTSZ
 40
0.0
  9
$DIMTOL
 70
     0
  9
$DIMLIM
 70
     0
  9
$DIMTIH
 70
     0
  9
$DIMTOH
 70
     0
  9
$DIMSE1
 70
     0
  9
$DIMSE2
 70
     0
  9
$DIMTAD
 70
     1
  9
$DIMZIN
 70
     8
  9
$DIMBLK
  1

  9
$DIMASO
 70
     1
  9
$DIMSHO
 70
     1
  9
$DIMPOST
  1

  9
$DIMAPOST
  1

  9
$DIMALT
 70
     0
  9
$DIMALTD
 70
     3
  9
$DIMALTF
 40
0.03937007874016
  9
$DIMLFAC
 40
1.0
  9
$DIMTOFL
 70
     1
  9
$DIMTVP
 40
0.0
  9
$DIMTIX
 70
     0
  9
$DIMSOXD
 70
     0
  9
$DIMSAH
 70
     0
  9
$DIMBLK1
  1

  9
$DIMBLK2
  1

  9
$DIMSTYLE
  2
ISO-25
  9
$DIMCLRD
 70
     0
  9
$DIMCLRE
 70
     0
  9
$DIMCLRT
 70
     0
  9
$DIMTFAC
 40
1.0
  9
$DIMGAP
 40
0.625
  9
$DIMJUST
 70
     0
  9
$DIMSD1
 70
     0
  9
$DIMSD2
 70
     0
  9
$DIMTOLJ
 70
     0
  9
$DIMTZIN
 70
     8
  9
$DIMALTZ
 70
     0
  9
$DIMALTTZ
 70
     0
  9
$DIMUPT
 70
     0
  9
$DIMDEC
 70
     2
  9
$DIMTDEC
 70
     2
  9
$DIMALTU
 70
     2
  9
$DIMALTTD
 70
     3
  9
$DIMTXSTY
  7
Standard
  9
$DIMAUNIT
 70
     0
  9
$DIMADEC
 70
     0
  9
$DIMALTRND
 40
0.0
  9
$DIMAZIN
 70
     0
  9
$DIMDSEP
 70
    44
  9
$DIMATFIT
 70
     3
  9
$DIMFRAC
 70
     0
  9
$DIMLDRBLK
  1

  9
$DIMLUNIT
 70
     2
  9
$DIMLWD
 70
    -2
  9
$DIMLWE
 70
    -2
  9
$DIMTMOVE
 70
     0
  9
$DIMFXL
 40
1.0
  9
$DIMFXLON
 70
     0
  9
$DIMJOGANG
 40
0.7853981633974483
  9
$DIMTFILL
 70
     0
  9
$DIMTFILLCLR
 70
     0
  9
$DIMARCSYM
 70
     0
  9
$DIMLTYPE
  6

  9
$DIMLTEX1
  6

  9
$DIMLTEX2
  6

  9
$DIMTXTDIRECTION
 70
     0
  9
$LUNITS
 70
     2
  9
$LUPREC
 70
     4
  9
$SKETCHINC
 40
1.0
  9
$FILLETRAD
 40
0.0
  9
$AUNITS
 70
     0
  9
$AUPREC
 70
     0
  9
$MENU
  1
.
  9
$ELEVATION
 40
0.0
  9
$PELEVATION
 40
0.0
  9
$THICKNESS
 40
0.0
  9
$LIMCHECK
 70
     0
  9
$CHAMFERA
 40
0.0
  9
$CHAMFERB
 40
0.0
  9
$CHAMFERC
 40
0.0
  9
$CHAMFERD
 40
0.0
  9
$SKPOLY
 70
     0
  9
$TDCREATE
 40
2460983.387058032
  9
$TDUCREATE
 40
2460983.345391366
  9
$TDUPDATE
 40
2460983.38705809
  9
$TDUUPDATE
 40
2460983.345391423
  9
$TDINDWG
 40
0.0000000116
  9
$TDUSRTIMER
 40
0.0000000116
  9
$USRTIMER
 70
     1
  9
$ANGBASE
 50
0.0
  9
$ANGDIR
 70
     0
  9
$PDMODE
 70
     0
  9
$PDSIZE
 40
0.0
  9
$PLINEWID
 40
0.0
  9
$SPLFRAME
 70
     0
  9
$SPLINETYPE
 70
     6
  9
$SPLINESEGS
 70
     8
  9
$HANDSEED
  5
98
  9
$SURFTAB1
 70
     6
  9
$SURFTAB2
 70
     6
  9
$SURFTYPE
 70
     6
  9
$SURFU
 70
     6
  9
$SURFV
 70
     6
  9
$UCSBASE
  2

  9
$UCSNAME
  2

  9
$UCSORG
 10
0.0
 20
0.0
 30
0.0
  9
$UCSXDIR
 10
1.0
 20
0.0
 30
0.0
  9
$UCSYDIR
 10
0.0
 20
1.0
 30
0.0
  9
$UCSORTHOREF
  2

  9
$UCSORTHOVIEW
 70
     0
  9
$UCSORGTOP
 10
0.0
 20
0.0
 30
0.0
  9
$UCSORGBOTTOM
 10
0.0
 20
0.0
 30
0.0
  9
$UCSORGLEFT
 10
0.0
 20
0.0
 30
0.0
  9
$UCSORGRIGHT
 10
0.0
 20
0.0
 30
0.0
  9
$UCSORGFRONT
 10
0.0
 20
0.0
 30
0.0
  9
$UCSORGBACK
 10
0.0
 20
0.0
 30
0.0
  9
$PUCSBASE
  2

  9
$PUCSNAME
  2

  9
$PUCSORG
 10
0.0
 20
0.0
 30
0.0
  9
$PUCSXDIR
 10
1.0
 20
0.0
 30
0.0
  9
$PUCSYDIR
 10
0.0
 20
1.0
 30
0.0
  9
$PUCSORTHOREF
  2

  9
$PUCSORTHOVIEW
 70
     0
  9
$PUCSORGTOP
 10
0.0
 20
0.0
 30
0.0
  9
$PUCSORGBOTTOM
 10
0.0
 20
0.0
 30
0.0
  9
$PUCSORGLEFT
 10
0.0
 20
0.0
 30
0.0
  9
$PUCSORGRIGHT
 10
0.0
 20
0.0
 30
0.0
  9
$PUCSORGFRONT
 10
0.0
 20
0.0
 30
0.0
  9
$PUCSORGBACK
 10
0.0
 20
0.0
 30
0.0
  9
$USERI1
 70
     0
  9
$USERI2
 70
     0
  9
$USERI3
 70
     0
  9
$USERI4
 70
     0
  9
$USERI5
 70
     0
  9
$USERR1
 40
0.0
  9
$USERR2
 40
0.0
  9
$USERR3
 40
0.0
  9
$USERR4
 40
0.0
  9
$USERR5
 40
0.0
  9
$WORLDVIEW
 70
     1
  9
$SHADEDGE
 70
     3
  9
$SHADEDIF
 70
    70
  9
$TILEMODE
 70
     1
  9
$MAXACTVP
 70
    64
  9
$PINSBASE
 10
0.0
 20
0.0
 30
0.0
  9
$PLIMCHECK
 70
     0
  9
$PEXTMIN
 10
140.0
 20
200.0
 30
0.0
  9
$PEXTMAX
 10
0.0
 20
0.0
 30
0.0
  9
$PLIMMIN
 10
-20.0
 20
-7.5
  9
$PLIMMAX
 10
277.0
 20
202.5
  9
$UNITMODE
 70
     0
  9
$VISRETAIN
 70
     1
  9
$PLINEGEN
 70
     0
  9
$PSLTSCALE
 70
     1
  9
$TREEDEPTH
 70
  3020
  9
$CMLSTYLE
  2
Standard
  9
$CMLJUST
 70
     0
  9
$CMLSCALE
 40
20.0
  9
$PROXYGRAPHICS
 70
     1
  9
$MEASUREMENT
 70
     1
  9
$CELWEIGHT
370
    -1
  9
$ENDCAPS
280
     0
  9
$JOINSTYLE
280
     0
  9
$LWDISPLAY
290
     0
  9
$INSUNITS
 70
     4
  9
$HYPERLINKBASE
  1

  9
$STYLESHEET
  1

  9
$XEDIT
290
     1
  9
$CEPSNTYPE
380
     0
  9
$PSTYLEMODE
290
     1
  9
$FINGERPRINTGUID
  2
{a9d1bf3f-6820-42f9-b782-45214a4e7dac}
  9
$VERSIONGUID
  2
{FAEB1C32-E019-11D5-929B-00C0DF256EC4}
  9
$EXTNAMES
290
     1
  9
$PSVPSCALE
 40
0.0
  9
$OLESTARTUP
290
     0
  9
$SORTENTS
280
   127
  9
$INDEXCTL
280
     0
  9
$HIDETEXT
280
     1
  9
$XCLIPFRAME
280
     2
  9
$HALOGAP
280
     0
  9
$OBSCOLOR
 70
   257
  9
$OBSLTYPE
280
     0
  9
$INTERSECTIONDISPLAY
280
     0
  9
$INTERSECTIONCOLOR
 70
   257
  9
$DIMASSOC
280
     2
  9
$PROJECTNAME
  1

  9
$CAMERADISPLAY
290
     0
  9
$LENSLENGTH
 40
50.0
  9
$CAMERAHEIGHT
 40
0.0
  9
$STEPSPERSEC
 40
2.0
  9
$STEPSIZE
 40
6.0
  9
$3DDWFPREC
 40
2.0
  9
$PSOLWIDTH
 40
5.0
  9
$PSOLHEIGHT
 40
80.0
  9
$LOFTANG1
 40
1.570796326794897
  9
$LOFTANG2
 40
1.570796326794897
  9
$LOFTMAG1
 40
0.0
  9
$LOFTMAG2
 40
0.0
  9
$LOFTPARAM
 70
     7
  9
$LOFTNORMALS
280
     1
  9
$LATITUDE
 40
37.795
  9
$LONGITUDE
 40
-122.394
  9
$NORTHDIRECTION
 40
0.0
  9
$TIMEZONE
 70
 -8000
  9
$LIGHTGLYPHDISPLAY
280
     1
  9
$TILEMODELIGHTSYNCH
280
     1
  9
$CMATERIAL
347
44
  9
$SOLIDHIST
280
     0
  9
$SHOWHIST
280
     1
  9
$DWFFRAME
280
     2
  9
$DGNFRAME
280
     2
  9
$REALWORLDSCALE
290
     1
  9
$INTERFERECOLOR
 62
   256
  9
$CSHADOW
280
     0
  9
$SHADOWPLANELOCATION
 40
0.0
  0
ENDSEC
  0
SECTION
  2
CLASSES
  0
CLASS
  1
ACDBDICTIONARYWDFLT
  2
AcDbDictionaryWithDefault
  3
ObjectDBX Classes
 90
        0
 91
        3
280
     0
281
     0
  0
CLASS
  1
VISUALSTYLE
  2
AcDbVisualStyle
  3
ObjectDBX Classes
 90
     4095
 91
        3
280
     0
281
     0
  0
CLASS
  1
MATERIAL
  2
AcDbMaterial
  3
ObjectDBX Classes
 90
     1153
 91
        3
280
     0
281
     0
  0
CLASS
  1
SCALE
  2
AcDbScale
  3
ObjectDBX Classes
 90
     1153
 91
        3
280
     0
281
     0
  0
CLASS
  1
TABLESTYLE
  2
AcDbTableStyle
  3
ObjectDBX Classes
 90
     4095
 91
        3
280
     0
281
     0
  0
CLASS
  1
MLEADERSTYLE
  2
AcDbMLeaderStyle
  3
ACDB_MLEADERSTYLE_CLASS
 90
     4095
 91
        3
280
     0
281
     0
  0
CLASS
  1
SUN
  2
AcDbSun
  3
SCENEOE
 90
     1153
 91
        3
280
     0
281
     0
  0
CLASS
  1
DICTIONARYVAR
  2
AcDbDictionaryVar
  3
ObjectDBX Classes
 90
        0
 91
        3
280
     0
281
     0
  0
CLASS
  1
CELLSTYLEMAP
  2
AcDbCellStyleMap
  3
ObjectDBX Classes
 90
     1152
 91
        3
280
     0
281
     0
  0
ENDSEC
  0
SECTION
  2
TABLES
  0
TABLE
  2
VPORT
  5
8
330
0
100
AcDbSymbolTable
 70
     1
  0
VPORT
  5
29
330
8
100
AcDbSymbolTableRecord
100
AcDbViewportTableRecord
  2
*Active
 70
     0
 10
0.0
 20
0.0
 11
1.0
 21
1.0
 12
100.0
 22
70.0
 13
0.0
 23
0.0
 14
10.0
 24
10.0
 15
10.0
 25
10.0
 16
0.0
 26
0.0
 36
1.0
 17
0.0
 27
0.0
 37
0.0
 40
140.0
 41
1.972972972850329
 42
50.0
 43
0.0
 44
0.0
 50
0.0
 51
0.0
 71
     0
 72
   100
 73
     1
 74
     3
 75
     0
 76
     0
 77
     0
 78
     0
281
     0
 65
     1
110
0.0
120
0.0
130
0.0
111
1.0
121
0.0
131
0.0
112
0.0
122
1.0
132
0.0
 79
     0
146
0.0
348
2F
 60
     3
 61
     5
292
     1
282
     1
141
0.0
142
0.0
 63
   250
361
5D
  0
ENDTAB
  0
TABLE
  2
LTYPE
  5
5
330
0
100
AcDbSymbolTable
 70
     1
  0
LTYPE
  5
14
330
5
100
AcDbSymbolTableRecord
100
AcDbLinetypeTableRecord
  2
ByBlock
 70
     0
  3

 72
    65
 73
     0
 40
0.0
  0
LTYPE
  5
15
330
5
100
AcDbSymbolTableRecord
100
AcDbLinetypeTableRecord
  2
ByLayer
 70
     0
  3

 72
    65
 73
     0
 40
0.0
  0
LTYPE
  5
16
330
5
100
AcDbSymbolTableRecord
100
AcDbLinetypeTableRecord
  2
Continuous
 70
     0
  3
Solid line
 72
    65
 73
     0
 40
0.0
  0
ENDTAB
  0
TABLE
  2
LAYER
  5
2
330
0
100
AcDbSymbolTable
 70
     1
  0
LAYER
  5
10
330
2
100
AcDbSymbolTableRecord
100
AcDbLayerTableRecord
  2
0
 70
     0
 62
     7
  6
Continuous
370
    -3
390
F
347
46
348
0
  0
ENDTAB
  0
TABLE
  2
STYLE
  5
3
330
0
100
AcDbSymbolTable
 70
     1
  0
STYLE
  5
11
330
3
100
AcDbSymbolTableRecord
100
AcDbTextStyleTableRecord
  2
Standard
 70
     0
 40
0.0
 41
1.0
 50
0.0
 71
     0
 42
2.5
  3
txt
  4

  0
ENDTAB
  0
TABLE
  2
VIEW
  5
6
330
0
100
AcDbSymbolTable
 70
     0
  0
ENDTAB
  0
TABLE
  2
UCS
  5
7
330
0
100
AcDbSymbolTable
 70
     0
  0
ENDTAB
  0
TABLE
  2
APPID
  5
9
330
0
100
AcDbSymbolTable
 70
     1
  0
APPID
  5
12
330
9
100
AcDbSymbolTableRecord
100
AcDbRegAppTableRecord
  2
ACAD
 70
     0
  0
ENDTAB
  0
TABLE
  2
DIMSTYLE
  5
A
330
0
100
AcDbSymbolTable
 70
     1
100
AcDbDimStyleTable
  0
DIMSTYLE
105
27
330
A
100
AcDbSymbolTableRecord
100
AcDbDimStyleTableRecord
  2
ISO-25
 70
     0
 41
2.5
 42
0.625
 43
3.75
 44
1.25
 73
     0
 74
     0
 77
     1
 78
     8
140
2.5
141
2.5
143
0.03937007874016
147
0.625
171
     3
172
     1
178
     0
271
     2
272
     2
274
     3
278
    44
283
     0
284
     8
340
11
  0
ENDTAB
  0
TABLE
  2
BLOCK_RECORD
  5
1
330
0
100
AcDbSymbolTable
 70
     0
  0
BLOCK_RECORD
  5
1F
330
1
100
AcDbSymbolTableRecord
100
AcDbBlockTableRecord
  2
*Model_Space
340
22
 70
     0
280
     1
281
     0
  0
BLOCK_RECORD
  5
85
330
1
100
AcDbSymbolTableRecord
100
AcDbBlockTableRecord
  2
*Paper_Space
340
86
 70
     0
280
     1
281
     0
  0
ENDTAB
  0
ENDSEC
  0
SECTION
  2
BLOCKS
  0
BLOCK
  5
20
330
1F
100
AcDbEntity
  8
0
100
AcDbBlockBegin
  2
*Model_Space
 70
     0
 10
0.0
 20
0.0
 30
0.0
  3
*Model_Space
  1

  0
ENDBLK
  5
21
330
1F
100
AcDbEntity
  8
0
100
AcDbBlockEnd
  0
BLOCK
  5
87
330
85
100
AcDbEntity
 67
     1
  8
0
100
AcDbBlockBegin
  2
*Paper_Space
 70
     0
 10
0.0
 20
0.0
 30
0.0
  3
*Paper_Space
  1

  0
ENDBLK
  5
88
330
85
100
AcDbEntity
 67
     1
  8
0
100
AcDbBlockEnd
  0
ENDSEC
  0
SECTION
  2
ENTITIES
  0
LWPOLYLINE
  5
5E
330
1F
100
AcDbEntity
  8
0
  6
Continuous
 62
    18
420
        0
370
    25
100
AcDbPolyline
 90
        5
 70
     1
 43
0.0
 10
84.08472090709694
 20
116.8117187570542
 10
84.08472090709694
 20
107.1117187570542
 10
81.38472090709693
 20
107.1117187570542
 10
81.38472090709693
 20
116.8117187570542
 10
84.08472090709694
 20
116.8117187570542
  0
LWPOLYLINE
  5
5F
330
1F
100
AcDbEntity
  8
0
  6
Continuous
 62
    18
420
        0
370
    25
100
AcDbPolyline
 90
        5
 70
     1
 43
0.0
 10
29.38941534338693
 20
116.8117187570542
 10
29.38941534338693
 20
107.1117187570542
 10
26.68941534338693
 20
107.1117187570542
 10
26.68941534338693
 20
116.8117187570542
 10
29.38941534338693
 20
116.8117187570542
  0
LWPOLYLINE
  5
60
330
1F
100
AcDbEntity
  8
0
  6
Continuous
 62
    18
420
        0
370
    25
100
AcDbPolyline
 90
        5
 70
     1
 43
0.0
 10
51.73706805073612
 20
76.55181722824452
 10
51.73706805073612
 20
70.85181713883755
 10
49.03706805073612
 20
70.85181713883755
 10
49.03706805073612
 20
76.55181722824452
 10
51.73706805073612
 20
76.55181722824452
  0
LWPOLYLINE
  5
61
330
1F
100
AcDbEntity
  8
0
  6
Continuous
 62
    18
420
        0
370
    25
100
AcDbPolyline
 90
        5
 70
     1
 43
0.0
 10
56.73706812524194
 20
59.55181779448864
 10
56.73706812524194
 20
53.85181779448864
 10
54.03706812524194
 20
53.85181779448864
 10
54.03706812524193
 20
59.55181779448864
 10
56.73706812524194
 20
59.55181779448864
  0
LWPOLYLINE
  5
62
330
1F
100
AcDbEntity
  8
0
  6
Continuous
 62
    18
420
        0
370
    25
100
AcDbPolyline
 90
        5
 70
     1
 43
0.0
 10
31.7370677527129
 20
70.55181709413407
 10
31.7370677527129
 20
64.85181709413406
 10
29.0370677527129
 20
64.85181709413406
 10
29.0370677527129
 20
70.55181709413407
 10
31.7370677527129
 20
70.55181709413407
  0
LWPOLYLINE
  5
63
330
1F
100
AcDbEntity
  8
0
  6
Continuous
 62
    18
420
        0
370
    25
100
AcDbPolyline
 90
        5
 70
     1
 43
0.0
 10
76.73706842326516
 20
67.55181709413407
 10
76.73706842326516
 20
61.8518170047271
 10
74.03706842326515
 20
61.8518170047271
 10
74.03706842326515
 20
67.55181709413407
 10
76.73706842326516
 20
67.55181709413407
  0
LWPOLYLINE
  5
64
330
1F
100
AcDbEntity
  8
0
  6
Continuous
 62
    18
420
        0
370
    25
100
AcDbPolyline
 90
        5
 70
     1
 43
0.0
 10
87.03706861698026
 20
69.85181716863987
 10
87.03706861698026
 20
75.55181716863987
 10
89.73706861698024
 20
75.55181716863987
 10
89.73706861698024
 20
69.85181716863987
 10
87.03706861698026
 20
69.85181716863987
  0
SPLINE
  5
65
330
1F
100
AcDbEntity
  8
0
  6
Continuous
 62
    18
420
        0
370
    25
100
AcDbSpline
210
0.0
220
0.0
230
1.0
 70
    11
 71
     3
 72
    44
 73
    40
 74
     0
 42
0.000000001
 43
0.0
 40
0.0
 40
0.0
 40
0.0
 40
0.0
 40
1.0
 40
1.0
 40
1.0
 40
2.0
 40
2.0
 40
2.0
 40
3.0
 40
3.0
 40
3.0
 40
4.0
 40
4.0
 40
4.0
 40
5.0
 40
5.0
 40
5.0
 40
6.0
 40
6.0
 40
6.0
 40
7.0
 40
7.0
 40
7.0
 40
8.0
 40
8.0
 40
8.0
 40
9.0
 40
9.0
 40
9.0
 40
10.0
 40
10.0
 40
10.0
 40
11.0
 40
11.0
 40
11.0
 40
12.0
 40
12.0
 40
12.0
 40
13.0
 40
13.0
 40
13.0
 40
13.0
 10
5.237068125241914
 20
89.70181779448863
 30
0.0
 10
5.237068125241914
 20
82.13875293176415
 30
0.0
 10
7.391269951509559
 20
74.58384813908879
 30
0.0
 10
11.43621075853434
 20
67.95701858732626
 30
0.0
 10
15.52964128508396
 20
61.2507482917719
 30
0.0
 10
21.55110581847798
 20
55.50977443234967
 30
0.0
 10
28.75035831167193
 20
51.44677995159246
 30
0.0
 10
36.02408819512327
 20
47.34175315903023
 30
0.0
 10
44.4842588974946
 20
44.95930883590052
 30
0.0
 10
53.05853795828346
 20
44.60051112854887
 30
0.0
 10
61.62618970740715
 20
44.24199074646438
 30
0.0
 10
70.2883927545193
 20
45.90472478087051
 30
0.0
 10
77.94905116356253
 20
49.37893815013572
 30
0.0
 10
85.87054864503855
 20
52.97144560644742
 30
0.0
 10
92.70008312021888
 20
58.4949422309822
 30
0.0
 10
97.51398331689894
 20
65.20500974052672
 30
0.0
 10
102.0601844931983
 20
71.54193314121899
 30
0.0
 10
104.8022761372099
 20
78.92044400632312
 30
0.0
 10
105.4065505758328
 20
86.44647347812203
 30
0.0
 10
106.011588598862
 20
93.98201313002942
 30
0.0
 10
104.4719161242434
 20
101.6493049113295
 30
0.0
 10
100.9755425153128
 20
108.5162710476846
 30
0.0
 10
97.44459289233208
 20
115.4511453495188
 30
0.0
 10
91.9252387642328
 20
121.5546279979079
 30
0.0
 10
85.10147875356458
 20
126.0731879854198
 30
0.0
 10
78.2056668240056
 20
130.6394593398635
 30
0.0
 10
69.99255477165
 20
133.5765874122801
 30
0.0
 10
61.49758913664306
 20
134.5154231525461
 30
0.0
 10
52.97232263675498
 20
135.4576076450183
 30
0.0
 10
44.18241828305013
 20
134.3848318735326
 30
0.0
 10
36.24309063293801
 20
131.4328046569379
 30
0.0
 10
28.39388092158281
 20
128.5142853921041
 30
0.0
 10
21.39303533635966
 20
123.7661103048512
 30
0.0
 10
16.11100423931047
 20
117.7766364763024
 30
0.0
 10
10.90061416162588
 20
111.8683988242642
 30
0.0
 10
7.373105291966358
 20
104.7652396216251
 30
0.0
 10
5.957493046553286
 20
97.3274183384792
 30
0.0
 10
5.478370951182207
 20
94.81004500427449
 30
0.0
 10
5.237068125241914
 20
92.25594960894706
 30
0.0
 10
5.237068125241914
 20
89.70181779448863
 30
0.0
  0
LWPOLYLINE
  5
66
330
1F
100
AcDbEntity
  8
0
  6
Continuous
 62
    18
420
        0
370
    25
100
AcDbPolyline
 90
       12
 70
     1
 43
0.0
 10
96.31374396038696
 20
18.61591407153595
 10
98.5850643039466
 20
20.88723441509559
 10
98.5850643039466
 20
43.7829823977813
 10
103.5850643039466
 20
43.7829823977813
 10
103.5850643039466
 20
49.09936644945157
 10
83.28506430394661
 20
49.09936644945157
 10
83.2850643039466
 20
43.7829823977813
 10
88.28506430394661
 20
43.7829823977813
 10
88.28506430394661
 20
30.88723441509561
 10
90.34425261315029
 20
28.82804610589193
 10
88.22293226959064
 20
26.7067257623323
 10
96.31374396038696
 20
18.61591407153595
  0
LWPOLYLINE
  5
67
330
1F
100
AcDbEntity
  8
0
  6
Continuous
 62
    18
420
        0
370
    25
100
AcDbPolyline
 90
       12
 70
     1
 43
0.0
 10
78.74471202861046
 20
38.67731522079971
 10
76.47339168505081
 20
36.40599487724008
 10
76.47339168505081
 20
13.51024689455437
 10
71.47339168505081
 20
13.51024689455437
 10
71.47339168505081
 20
8.193862842884101
 10
91.77339168505083
 20
8.193862842884101
 10
91.77339168505083
 20
13.51024689455437
 10
86.77339168505083
 20
13.51024689455437
 10
86.77339168505083
 20
26.40599487724006
 10
84.71420337584713
 20
28.46518318644374
 10
86.83552371940677
 20
30.58650353000337
 10
78.74471202861046
 20
38.67731522079971
  0
LWPOLYLINE
  5
68
330
1F
100
AcDbEntity
  8
0
  6
Continuous
 62
    18
420
        0
370
    25
100
AcDbPolyline
 90
        5
 70
     1
 43
0.0
 10
108.520326571359
 20
35.02837689168555
 10
108.520326571359
 20
24.1862412679546
 10
105.820326571359
 20
24.1862412679546
 10
105.820326571359
 20
35.02837689168555
 10
108.520326571359
 20
35.02837689168555
  0
LWPOLYLINE
  5
69
330
1F
100
AcDbEntity
  8
0
  6
Continuous
 62
    18
420
        0
370
    25
100
AcDbPolyline
 90
        5
 70
     1
 43
0.0
 10
163.215632135069
 20
35.02837689168558
 10
163.215632135069
 20
24.18624126795463
 10
160.515632135069
 20
24.18624126795463
 10
160.515632135069
 20
35.02837689168558
 10
163.215632135069
 20
35.02837689168558
  0
SPLINE
  5
6A
330
1F
100
AcDbEntity
  8
0
  6
Continuous
 62
    18
420
        0
370
    25
100
AcDbSpline
210
0.0
220
0.0
230
1.0
 70
    11
 71
     3
 72
    41
 73
    37
 74
     0
 42
0.000000001
 43
0.0
 40
0.0
 40
0.0
 40
0.0
 40
0.0
 40
1.0
 40
1.0
 40
1.0
 40
2.0
 40
2.0
 40
2.0
 40
3.0
 40
3.0
 40
3.0
 40
4.0
 40
4.0
 40
4.0
 40
5.0
 40
5.0
 40
5.0
 40
6.0
 40
6.0
 40
6.0
 40
7.0
 40
7.0
 40
7.0
 40
8.0
 40
8.0
 40
8.0
 40
9.0
 40
9.0
 40
9.0
 40
10.0
 40
10.0
 40
10.0
 40
11.0
 40
11.0
 40
11.0
 40
12.0
 40
12.0
 40
12.0
 40
12.0
 10
162.517979353214
 20
19.64358903184188
 30
0.0
 10
163.8838442758876
 20
19.64358903184188
 30
0.0
 10
165.1937669273173
 20
20.18617675972379
 30
0.0
 10
166.1595792763247
 20
21.15198910873119
 30
0.0
 10
167.1253916253321
 20
22.11780145773855
 30
0.0
 10
167.667979353214
 20
23.42772410916824
 30
0.0
 10
167.667979353214
 20
24.79358903184189
 30
0.0
 10
167.667979353214
 20
24.79358903184189
 30
0.0
 10
167.667979353214
 20
34.93558903184191
 30
0.0
 10
167.667979353214
 20
34.93558903184191
 30
0.0
 10
167.667979353214
 20
36.30145395451557
 30
0.0
 10
167.1253916253321
 20
37.61137660594524
 30
0.0
 10
166.1595792763247
 20
38.57718895495263
 30
0.0
 10
165.1937669273173
 20
39.54300130396001
 30
0.0
 10
163.8838442758876
 20
40.08558903184192
 30
0.0
 10
162.517979353214
 20
40.08558903184192
 30
0.0
 10
162.517979353214
 20
40.08558903184192
 30
0.0
 10
106.517979353214
 20
40.08558903184189
 30
0.0
 10
106.517979353214
 20
40.08558903184189
 30
0.0
 10
105.1521144305403
 20
40.08558903184189
 30
0.0
 10
103.8421917791106
 20
39.54300130395998
 30
0.0
 10
102.8763794301032
 20
38.57718895495262
 30
0.0
 10
101.9105670810959
 20
37.61137660594522
 30
0.0
 10
101.367979353214
 20
36.30145395451552
 30
0.0
 10
101.367979353214
 20
34.93558903184187
 30
0.0
 10
101.367979353214
 20
34.93558903184187
 30
0.0
 10
101.367979353214
 20
24.79358903184189
 30
0.0
 10
101.367979353214
 20
24.79358903184189
 30
0.0
 10
101.367979353214
 20
23.42772410916824
 30
0.0
 10
101.9105670810959
 20
22.11780145773854
 30
0.0
 10
102.8763794301033
 20
21.15198910873114
 30
0.0
 10
103.8421917791106
 20
20.18617675972378
 30
0.0
 10
105.1521144305403
 20
19.64358903184187
 30
0.0
 10
106.517979353214
 20
19.64358903184187
 30
0.0
 10
106.517979353214
 20
19.64358903184187
 30
0.0
 10
162.517979353214
 20
19.64358903184188
 30
0.0
 10
162.517979353214
 20
19.64358903184188
 30
0.0
  0
LWPOLYLINE
  5
6B
330
1F
100
AcDbEntity
  8
0
  6
Continuous
 62
    18
420
        0
370
    25
100
AcDbPolyline
 90
       13
 70
     1
 43
0.0
 10
7.30250000000001
 20
12.20764026049375
 10
9.102499999999996
 20
12.20764026049375
 10
9.102499999999996
 20
17.20764026049373
 10
11.80249999999999
 20
17.20764026049373
 10
11.80249999999999
 20
12.20764026049375
 10
13.60249999999999
 20
12.20764026049375
 10
13.60249999999999
 20
50.20764026049376
 10
18.6025
 20
50.20764026049376
 10
18.6025
 20
55.50764026049376
 10
2.302500000000001
 20
55.50764026049376
 10
2.302500000000001
 20
50.20764026049376
 10
7.30250000000001
 20
50.20764026049376
 10
7.30250000000001
 20
12.20764026049375
  0
LWPOLYLINE
  5
6C
330
1F
100
AcDbEntity
  8
0
  6
Continuous
 62
    18
420
        0
370
    25
100
AcDbPolyline
 90
        8
 70
     1
 43
0.0
 10
153.7946880571607
 20
104.929145600092
 10
153.7946880571607
 20
119.8466171330338
 10
138.4435132010392
 20
119.8466171330338
 10
138.4435132010392
 20
122.5466171330338
 10
153.7946880571607
 20
122.5466171330338
 10
153.7946880571607
 20
137.4640886659757
 10
105.8264613766743
 20
121.1966171330338
 10
153.7946880571607
 20
104.929145600092
  0
LWPOLYLINE
  5
6D
330
1F
100
AcDbEntity
  8
0
  6
Continuous
 62
    18
420
        0
370
    25
100
AcDbPolyline
 90
       13
 70
     1
 43
0.0
 10
67.95033766664444
 20
30.93558903184193
 10
72.95033757723748
 20
30.93558903184193
 10
72.95033757723748
 20
36.23558903184194
 10
56.65033757723749
 20
36.23558903184194
 10
56.65033757723749
 20
30.93558903184193
 10
61.65033757723749
 20
30.93558903184193
 10
61.65033757723749
 20
2.935589031841943
 10
63.45033762194096
 20
2.935589031841943
 10
63.45033762194096
 20
7.935589031841943
 10
66.15033762194096
 20
7.935589031841943
 10
66.15033762194096
 20
2.935589031841943
 10
67.95033766664444
 20
2.935589031841943
 10
67.95033766664444
 20
30.93558903184193
  0
LWPOLYLINE
  5
6E
330
1F
100
AcDbEntity
  8
0
  6
Continuous
 62
    18
420
        0
370
    25
100
AcDbPolyline
 90
        8
 70
     1
 43
0.0
 10
152.3986622260145
 20
71.84959944440135
 10
152.3986622260145
 20
84.71281772497991
 10
140.3986624644331
 20
84.71281772497991
 10
140.3986624644331
 20
87.41281772497992
 10
152.3986622260145
 20
87.41281772497992
 10
152.3986622260145
 20
100.2760360055585
 10
112.8046970158313
 20
86.06281772497991
 10
152.3986622260145
 20
71.84959944440135
  0
LWPOLYLINE
  5
6F
330
1F
100
AcDbEntity
  8
0
  6
Continuous
 62
    18
420
        0
370
    25
100
AcDbPolyline
 90
       13
 70
     1
 43
0.0
 10
38.24745547162903
 20
36.18558903184191
 10
43.24745547162905
 20
36.18558903184191
 10
43.24745547162905
 20
41.48558903184191
 10
26.94745547162905
 20
41.48558903184193
 10
26.94745547162905
 20
36.18558903184191
 10
31.94745547162905
 20
36.18558903184191
 10
31.94745547162905
 20
3.185589031841943
 10
33.74745547162904
 20
3.185589031841943
 10
33.74745547162904
 20
8.185589031841943
 10
36.44745547162906
 20
8.185589031841943
 10
36.44745547162906
 20
3.185589031841943
 10
38.24745547162903
 20
3.185589031841943
 10
38.24745547162903
 20
36.18558903184191
  0
LWPOLYLINE
  5
70
330
1F
100
AcDbEntity
  8
0
  6
Continuous
 62
    18
420
        0
370
    25
100
AcDbPolyline
 90
       10
 70
     1
 43
0.0
 10
108.2875399556287
 20
117.6013483725935
 10
108.2875399556287
 20
103.7432342888385
 10
116.4375396571863
 20
103.7432342660676
 10
121.2875396576054
 20
103.7432342660676
 10
121.2875396576054
 20
101.0432342660676
 10
116.4375396576054
 20
101.0432342660676
 10
108.2875399556287
 20
101.0432342432968
 10
108.2875399556287
 20
87.18512015954181
 10
153.9118822752062
 20
102.3932342660676
 10
108.2875399556287
 20
117.6013483725935
  0
LWPOLYLINE
  5
71
330
1F
100
AcDbEntity
  8
0
  6
Continuous
 62
    18
420
        0
370
    25
100
AcDbPolyline
 90
       13
 70
     1
 43
0.0
 10
17.60500000000001
 20
8.58558903184192
 10
12.60499999999999
 20
8.58558903184192
 10
12.60499999999999
 20
3.285589031841909
 10
28.90500000000001
 20
3.285589031841909
 10
28.90500000000001
 20
8.58558903184192
 10
23.905
 20
8.58558903184192
 10
23.905
 20
43.58558903184193
 10
22.10500000000001
 20
43.58558903184193
 10
22.10500000000001
 20
38.58558903184191
 10
19.405
 20
38.58558903184191
 10
19.405
 20
43.58558903184193
 10
17.60500000000001
 20
43.58558903184193
 10
17.60500000000001
 20
8.58558903184192
  0
LWPOLYLINE
  5
72
330
1F
100
AcDbEntity
  8
0
  6
Continuous
 62
    18
420
        0
370
    25
100
AcDbPolyline
 90
        8
 70
     1
 43
0.0
 10
155.4291486347979
 20
69.4388123260702
 10
109.7742106070478
 20
83.64257082359242
 10
109.7742106070478
 20
70.78881232607017
 10
121.7742102643212
 20
70.78881232607017
 10
121.7742102643212
 20
68.08881232607018
 10
109.7742106070478
 20
68.0888123260702
 10
109.7742106070479
 20
55.23505382854795
 10
155.4291486347979
 20
69.4388123260702
  0
LWPOLYLINE
  5
73
330
1F
100
AcDbEntity
  8
0
  6
Continuous
 62
    18
420
        0
370
    25
100
AcDbPolyline
 90
       13
 70
     1
 43
0.0
 10
52.92475043930659
 20
30.98558903184191
 10
51.1247503946031
 20
30.98558903184191
 10
51.1247503946031
 20
25.98558903184191
 10
48.4247503946031
 20
25.98558903184191
 10
48.4247503946031
 20
30.98558903184191
 10
46.62475034989963
 20
30.98558903184191
 10
46.62475034989963
 20
7.985589031841926
 10
41.62475043930661
 20
7.985589031841926
 10
41.62475043930661
 20
2.685589031841914
 10
57.9247504393066
 20
2.685589031841914
 10
57.9247504393066
 20
7.985589031841926
 10
52.92475043930659
 20
7.985589031841926
 10
52.92475043930659
 20
30.98558903184191
  0
LWPOLYLINE
  5
74
330
1F
100
AcDbEntity
  8
0
  6
Continuous
 62
    18
420
        0
370
    25
100
AcDbPolyline
 90
        8
 70
     1
 43
0.0
 10
143.9071456597519
 20
42.61433579156055
 10
143.9071456597519
 20
51.46480692716041
 10
131.9071458236647
 20
51.46480692716042
 10
131.9071458236647
 20
54.16480692716043
 10
143.9071456597519
 20
54.16480692716043
 10
143.9071456597519
 20
63.0152780627603
 10
109.2255437987123
 20
52.81480692716043
 10
143.9071456597519
 20
42.61433579156055
  0
HATCH
  5
75
330
1F
100
AcDbEntity
  8
0
 62
    18
420
        0
440
 33554687
100
AcDbHatch
 10
0.0
 20
0.0
 30
0.0
210
0.0
220
0.0
230
1.0
  2
SOLID
 70
     1
 71
     1
 91
        4
 92
        0
 93
        1
 72
     4
 94
        3
 73
     0
 74
     1
 95
      212
 96
      208
 40
0.0
 40
0.0
 40
0.0
 40
0.0
 40
1.0
 40
1.0
 40
1.0
 40
2.0
 40
2.0
 40
2.0
 40
3.0
 40
3.0
 40
3.0
 40
4.0
 40
4.0
 40
4.0
 40
5.0
 40
5.0
 40
5.0
 40
6.0
 40
6.0
 40
6.0
 40
7.0
 40
7.0
 40
7.0
 40
8.0
 40
8.0
 40
8.0
 40
9.0
 40
9.0
 40
9.0
 40
10.0
 40
10.0
 40
10.0
 40
11.0
 40
11.0
 40
11.0
 40
12.0
 40
12.0
 40
12.0
 40
13.0
 40
13.0
 40
13.0
 40
14.0
 40
14.0
 40
14.0
 40
15.0
 40
15.0
 40
15.0
 40
16.0
 40
16.0
 40
16.0
 40
17.0
 40
17.0
 40
17.0
 40
18.0
 40
18.0
 40
18.0
 40
19.0
 40
19.0
 40
19.0
 40
20.0
 40
20.0
 40
20.0
 40
21.0
 40
21.0
 40
21.0
 40
22.0
 40
22.0
 40
22.0
 40
23.0
 40
23.0
 40
23.0
 40
24.0
 40
24.0
 40
24.0
 40
25.0
 40
25.0
 40
25.0
 40
26.0
 40
26.0
 40
26.0
 40
27.0
 40
27.0
 40
27.0
 40
28.0
 40
28.0
 40
28.0
 40
29.0
 40
29.0
 40
29.0
 40
30.0
 40
30.0
 40
30.0
 40
31.0
 40
31.0
 40
31.0
 40
32.0
 40
32.0
 40
32.0
 40
33.0
 40
33.0
 40
33.0
 40
34.0
 40
34.0
 40
34.0
 40
35.0
 40
35.0
 40
35.0
 40
36.0
 40
36.0
 40
36.0
 40
37.0
 40
37.0
 40
37.0
 40
38.0
 40
38.0
 40
38.0
 40
39.0
 40
39.0
 40
39.0
 40
40.0
 40
40.0
 40
40.0
 40
41.0
 40
41.0
 40
41.0
 40
42.0
 40
42.0
 40
42.0
 40
43.0
 40
43.0
 40
43.0
 40
44.0
 40
44.0
 40
44.0
 40
45.0
 40
45.0
 40
45.0
 40
46.0
 40
46.0
 40
46.0
 40
47.0
 40
47.0
 40
47.0
 40
48.0
 40
48.0
 40
48.0
 40
49.0
 40
49.0
 40
49.0
 40
50.0
 40
50.0
 40
50.0
 40
51.0
 40
51.0
 40
51.0
 40
52.0
 40
52.0
 40
52.0
 40
53.0
 40
53.0
 40
53.0
 40
54.0
 40
54.0
 40
54.0
 40
55.0
 40
55.0
 40
55.0
 40
56.0
 40
56.0
 40
56.0
 40
57.0
 40
57.0
 40
57.0
 40
58.0
 40
58.0
 40
58.0
 40
59.0
 40
59.0
 40
59.0
 40
60.0
 40
60.0
 40
60.0
 40
61.0
 40
61.0
 40
61.0
 40
62.0
 40
62.0
 40
62.0
 40
63.0
 40
63.0
 40
63.0
 40
64.0
 40
64.0
 40
64.0
 40
65.0
 40
65.0
 40
65.0
 40
66.0
 40
66.0
 40
66.0
 40
67.0
 40
67.0
 40
67.0
 40
68.0
 40
68.0
 40
68.0
 40
69.0
 40
69.0
 40
69.0
 40
69.0
 10
120.7096536156888
 20
31.69443895193061
 10
120.7096536156888
 20
31.56096884061202
 10
120.5761835043702
 20
31.44724685800894
 10
120.309243281733
 20
31.35327300412135
 10
120.0423030590958
 20
31.25929915023377
 10
119.7208852400021
 20
31.21231222328997
 10
119.3449898244517
 20
31.21231222328997
 10
118.8546914563426
 20
31.21231222328997
 10
118.254075955409
 20
31.28721891841776
 10
117.5431433216507
 20
31.43703230867332
 10
117.1972105841515
 20
31.27359951930363
 10
116.8791976148363
 20
31.02504548547053
 10
116.5891044137051
 20
30.69137020717405
 10
116.2990112125739
 20
30.35769492887756
 10
115.9837221230815
 20
29.87761111010407
 10
115.6432371452279
 20
29.25111875085352
 10
115.8121176942433
 20
29.22387995262525
 10
115.952397505119
 20
29.20208891404262
 10
116.0640765778549
 20
29.18574563510563
 10
116.2166138479333
 20
29.53712613225051
 10
116.4345242337596
 20
29.71281638082294
 10
116.7178077353337
 20
29.71281638082294
 10
116.9112032027546
 20
29.71281638082294
 10
117.007900936465
 20
29.63790968569516
 10
117.007900936465
 20
29.4880962954396
 10
117.007900936465
 20
29.36824558323515
 10
116.9432087906728
 20
29.27086687956903
 10
116.8138244990884
 20
29.19596018444125
 10
116.6844402075041
 20
29.12105348931348
 10
116.514878688533
 20
29.08360014174959
 10
116.3051399421752
 20
29.08360014174959
 10
116.3051399421752
 20
29.08360014174959
 10
116.2234235474904
 20
29.08360014174959
 10
116.2234235474904
 20
29.08360014174959
 10
116.2152519080219
 20
29.07270462245826
 10
116.1812034102366
 20
29.00052180715332
 10
116.1212780541343
 20
28.86705169583473
 10
116.0531810585636
 20
28.70906666611067
 10
115.9551213849418
 20
28.57491558483639
 10
115.8270990332689
 20
28.46459845201183
 10
115.6990766815959
 20
28.35428131918728
 10
115.5792259693915
 20
28.29912275277501
 10
115.4675468966555
 20
28.29912275277501
 10
115.4294125791359
 20
28.29912275277501
 10
115.4103454203761
 20
28.30729439224349
 10
115.4103454203761
 20
28.32363767118046
 10
115.4103454203761
 20
28.3372570702946
 10
115.4239648194903
 20
28.34815258958591
 10
115.4512036177185
 20
28.35632422905441
 10
115.6391513254937
 20
28.41352570533378
 10
115.8298229130917
 20
28.66548458894543
 10
116.0232183805125
 20
29.11220087988927
 10
115.9442258656505
 20
29.12037251935776
 10
115.8298229130917
 20
29.13671579829473
 10
115.6800095228361
 20
29.1612307167002
 10
115.6800095228361
 20
29.1612307167002
 10
115.6023789478855
 20
29.17757399563716
 10
115.6023789478855
 20
29.17757399563716
 10
115.5642446303659
 20
29.10947700006645
 10
115.5084050939979
 20
29.00869344662181
 10
115.4348603387816
 20
28.8752233353032
 10
115.2006066740183
 20
28.45574584258763
 10
115.010616056376
 20
28.15611906207651
 10
114.8648884858547
 20
27.97634299376985
 10
114.7191609153334
 20
27.79656692546317
 10
114.5223605981341
 20
27.61951473697933
 10
114.2744875342567
 20
27.44518642831829
 10
113.6153086171322
 20
26.98212685843747
 10
112.9343386614251
 20
26.75059707349705
 10
112.2315776671354
 20
26.75059707349705
 10
111.8175479340655
 20
26.75059707349705
 10
111.4784248961233
 20
26.83708025787186
 10
111.214208553309
 20
27.01004662662146
 10
110.9499922104946
 20
27.18301299537106
 10
110.8178840390874
 20
27.4056901708873
 10
110.8178840390874
 20
27.67807815317013
 10
110.8178840390874
 20
27.81427214431154
 10
110.8580612664742
 20
27.93071800673745
 10
110.9384157212476
 20
28.02741574044788
 10
111.018770176021
 20
28.12411347415828
 10
111.1147869397757
 20
28.17246234101347
 10
111.2264660125117
 20
28.17246234101347
 10
111.4062420808184
 20
28.17246234101347
 10
111.4961301149717
 20
28.08121236694872
 10
111.4961301149717
 20
27.89871241881923
 10
111.4961301149717
 20
27.81427214431154
 10
111.4682103467877
 20
27.74140835905088
 10
111.4123708104197
 20
27.68012106303725
 10
111.3565312740517
 20
27.6188337670236
 10
111.2891152484368
 20
27.58819011901679
 10
111.2101227335747
 20
27.58819011901679
 10
111.0766526222561
 20
27.58819011901679
 10
111.0099175665968
 20
27.65220129485327
 10
111.0099175665968
 20
27.7802236465262
 10
111.0180892060653
 20
27.84559676227408
 10
111.0099175665968
 20
27.87828332014803
 10
110.9854026481914
 20
27.87828332014803
 10
110.9336489315576
 20
27.87828332014803
 10
110.9077720732408
 20
27.80610050484306
 10
110.9077720732408
 20
27.66173487423315
 10
110.9077720732408
 20
27.43292896911557
 10
111.0269418154895
 20
27.23749059182764
 10
111.265281299987
 20
27.07541974236933
 10
111.5036207844845
 20
26.91334889291106
 10
111.7916710757486
 20
26.83231346818191
 10
112.1294321737793
 20
26.83231346818191
 10
112.6605887392308
 20
26.83231346818191
 10
113.1386296481372
 20
26.99097946786166
 10
113.5635549004985
 20
27.30831146722117
 10
113.9884801528597
 20
27.62564346658068
 10
114.4542636025633
 20
28.17382428092489
 10
114.9609052496094
 20
28.95285391025382
 10
115.0044873267747
 20
29.01550314617887
 10
115.0684985026111
 20
29.11220087988927
 10
115.1529387771188
 20
29.24294711138504
 10
115.1529387771188
 20
29.24294711138504
 10
115.0753082021682
 20
29.24294711138504
 10
115.0753082021682
 20
29.24294711138504
 10
114.7702336620114
 20
29.24294711138504
 10
114.5591329757422
 20
29.12582027900343
 10
114.4420061433606
 20
28.89156661424018
 10
114.4283867442465
 20
28.85343229672057
 10
114.4134054052209
 20
28.83436513796079
 10
114.3970621262839
 20
28.83436513796079
 10
114.3752710877013
 20
28.83436513796079
 10
114.36437556841
 20
28.8452606572521
 10
114.36437556841
 20
28.86705169583473
 10
114.36437556841
 20
28.97600688874786
 10
114.4413251734049
 20
29.07883335205963
 10
114.5952243833947
 20
29.17553108577003
 10
114.7491235933845
 20
29.27222881948045
 10
114.9118754127985
 20
29.32057768633565
 10
115.0834798416367
 20
29.32057768633565
 10
115.0834798416367
 20
29.32057768633565
 10
115.2019686139298
 20
29.32057768633565
 10
115.2019686139298
 20
29.32057768633565
 10
115.9156251275108
 20
30.3992340961757
 10
116.6633301388772
 20
31.11289060975675
 10
117.4450836480289
 20
31.46154722707877
 10
117.2353449016711
 20
31.50785318406686
 10
117.0174345158449
 20
31.56096884061202
 10
116.7913524905501
 20
31.62089419671425
 10
116.0613526980321
 20
31.81156578431222
 10
115.4947856948838
 20
31.90690157811122
 10
115.0916514811052
 20
31.90690157811122
 10
115.0099350864203
 20
31.90690157811122
 10
114.9323045114697
 20
31.90417769828838
 10
114.8587597562534
 20
31.89872993864273
 10
114.975886588635
 20
31.67264791334797
 10
115.0344500048258
 20
31.41796514991353
 10
115.0344500048258
 20
31.13468164833937
 10
115.0344500048258
 20
30.54087584696278
 10
114.8022392499297
 20
29.98111854337155
 10
114.3378177401374
 20
29.45540973756566
 10
113.8733962303452
 20
28.92970093175978
 10
113.3769691326347
 20
28.66684652885684
 10
112.848536447006
 20
28.66684652885684
 10
112.6251783015341
 20
28.66684652885684
 10
112.444040293316
 20
28.73698643429466
 10
112.3051224223517
 20
28.87726624517033
 10
112.1662045513875
 20
29.017546056046
 10
112.0967456159054
 20
29.2007269741312
 10
112.0967456159054
 20
29.42680899942596
 10
112.0967456159054
 20
29.94162228594053
 10
112.3643668084983
 20
30.46256430205646
 10
112.899609193684
 20
30.98963504777376
 10
113.4348515788698
 20
31.51670579349104
 10
114.0320622300249
 20
31.84970010183183
 10
114.6912411471494
 20
31.98861797279608
 10
114.4842262806145
 20
32.29641639277568
 10
114.166894281255
 20
32.45031560276547
 10
113.7392451490709
 20
32.45031560276547
 10
113.039208034604
 20
32.45031560276547
 10
112.4059059757964
 20
32.10983062491194
 10
111.8393389726481
 20
31.42886066920482
 10
111.79303301566
 20
31.38255471221676
 10
111.7671561573431
 20
31.35940173372272
 10
111.7617083976975
 20
31.35940173372272
 10
111.7453651187605
 20
31.35940173372272
 10
111.7344695994692
 20
31.3689353131026
 10
111.7290218398235
 20
31.38800247186241
 10
111.7290218398235
 20
31.43703230867332
 10
111.8434247923823
 20
31.56777854016909
 10
112.0722306974999
 20
31.7802411663497
 10
112.6006633831286
 20
32.27053953445881
 10
113.1468012876057
 20
32.51568871851336
 10
113.7106444109312
 20
32.51568871851336
 10
114.2118382983316
 20
32.51568871851336
 10
114.5754762546792
 20
32.3454462295866
 10
114.801558279974
 20
32.00496125173304
 10
115.0902895411938
 20
32.07850600694941
 10
115.4266886993131
 20
32.11527838455758
 10
115.8107557543319
 20
32.11527838455758
 10
116.0531810585636
 20
32.11527838455758
 10
116.2765392040356
 20
32.0962112257978
 10
116.4808301907477
 20
32.05807690827818
 10
116.6851211774598
 20
32.01994259075859
 10
117.1767814854803
 20
31.90826351802264
 10
117.9558111148093
 20
31.72303969007029
 10
118.5632363153
 20
31.95729335483354
 10
119.1325271982711
 20
32.07442018721517
 10
119.6636837637227
 20
32.07442018721517
 10
119.9769299433479
 20
32.07442018721517
 10
120.2295697969153
 20
32.03969071947409
 10
120.4216033244247
 20
31.97023178399199
 10
120.6136368519341
 20
31.90077284850986
 10
120.7096536156888
 20
31.80884190448938
 10
120.7096536156888
 20
31.69443895193061
 97
        0
 97
        0
 92
        0
 93
        1
 72
     4
 94
        3
 73
     0
 74
     1
 95
       26
 96
       22
 40
0.0
 40
0.0
 40
0.0
 40
0.0
 40
1.0
 40
1.0
 40
1.0
 40
2.0
 40
2.0
 40
2.0
 40
3.0
 40
3.0
 40
3.0
 40
4.0
 40
4.0
 40
4.0
 40
5.0
 40
5.0
 40
5.0
 40
6.0
 40
6.0
 40
6.0
 40
7.0
 40
7.0
 40
7.0
 40
7.0
 10
120.6320230407382
 20
31.68626731246212
 10
120.6320230407382
 20
31.77070758696979
 10
120.5428159765405
 20
31.84357137223046
 10
120.3644018481453
 20
31.9048586682441
 10
120.18598771975
 20
31.96614596425773
 10
119.9714821837023
 20
31.99678961226455
 10
119.7208852400021
 20
31.99678961226455
 10
119.1270794386255
 20
31.99678961226455
 10
118.5823034740598
 20
31.89328217899708
 10
118.086557346305
 20
31.68626731246212
 10
118.086557346305
 20
31.68626731246212
 10
118.6340571906935
 20
31.56369272043484
 10
118.6340571906935
 20
31.56369272043484
 10
119.0916690009287
 20
31.45746140734454
 10
119.5125084335557
 20
31.40434575079939
 10
119.8965754885745
 20
31.40434575079939
 10
120.0926948358181
 20
31.40434575079939
 10
120.2642992646563
 20
31.43294648893908
 10
120.4113887750891
 20
31.49014796521848
 10
120.5584782855218
 20
31.54734944149786
 10
120.6320230407382
 20
31.61272255724575
 10
120.6320230407382
 20
31.68626731246212
 97
        0
 97
        0
 92
        0
 93
        1
 72
     4
 94
        3
 73
     0
 74
     1
 95
       23
 96
       19
 40
0.0
 40
0.0
 40
0.0
 40
0.0
 40
1.0
 40
1.0
 40
1.0
 40
2.0
 40
2.0
 40
2.0
 40
3.0
 40
3.0
 40
3.0
 40
4.0
 40
4.0
 40
4.0
 40
5.0
 40
5.0
 40
5.0
 40
6.0
 40
6.0
 40
6.0
 40
6.0
 10
116.9343561812486
 20
29.4799246559711
 10
116.9343561812486
 20
29.59705148835273
 10
116.8676211255893
 20
29.65561490454354
 10
116.7341510142707
 20
29.65561490454354
 10
116.5570988257869
 20
29.65561490454354
 10
116.4059234956199
 20
29.51533509366787
 10
116.2806250237698
 20
29.23477547191656
 10
116.2806250237698
 20
29.23477547191656
 10
116.2479384658958
 20
29.1612307167002
 10
116.2479384658958
 20
29.1612307167002
 10
116.2479384658958
 20
29.1612307167002
 10
116.3500839592519
 20
29.1612307167002
 10
116.3500839592519
 20
29.1612307167002
 10
116.5189645082673
 20
29.1612307167002
 10
116.6585633491872
 20
29.19119339475131
 10
116.7688804820118
 20
29.25111875085352
 10
116.8791976148363
 20
29.31104410695575
 10
116.9343561812486
 20
29.38731274199496
 10
116.9343561812486
 20
29.4799246559711
 97
        0
 97
        0
 92
        0
 93
        1
 72
     4
 94
        3
 73
     0
 74
     1
 95
       26
 96
       22
 40
0.0
 40
0.0
 40
0.0
 40
0.0
 40
1.0
 40
1.0
 40
1.0
 40
2.0
 40
2.0
 40
2.0
 40
3.0
 40
3.0
 40
3.0
 40
4.0
 40
4.0
 40
4.0
 40
5.0
 40
5.0
 40
5.0
 40
6.0
 40
6.0
 40
6.0
 40
7.0
 40
7.0
 40
7.0
 40
7.0
 10
114.8832746746588
 20
31.32671517584878
 10
114.8832746746588
 20
31.50921512397827
 10
114.8383306575822
 20
31.69307701201919
 10
114.7484426234288
 20
31.87830083997152
 10
114.1219502641783
 20
31.79930832510951
 10
113.5349541623588
 20
31.50036251455408
 10
112.9874543179703
 20
30.98146340830526
 10
112.4399544735817
 20
30.46256430205646
 10
112.1662045513875
 20
29.94707004558619
 10
112.1662045513875
 20
29.43498063889443
 10
112.1662045513875
 20
29.24430905129647
 10
112.2268108774454
 20
29.08223820183817
 10
112.3480235295613
 20
28.94876809051958
 10
112.4692361816772
 20
28.81529797920098
 10
112.6197305418884
 20
28.7485629235417
 10
112.7995066101951
 20
28.7485629235417
 10
113.2734616993672
 20
28.7485629235417
 10
113.7392451490709
 20
29.03252739507154
 10
114.1968569593061
 20
29.60045633813127
 10
114.6544687695412
 20
30.16838528119099
 10
114.8832746746588
 20
30.7438048937635
 10
114.8832746746588
 20
31.32671517584878
 97
        0
 97
        0
 75
     0
 76
     1
 98
        0
  0
HATCH
  5
76
330
1F
100
AcDbEntity
  8
0
 62
    18
420
        0
440
 33554687
100
AcDbHatch
 10
0.0
 20
0.0
 30
0.0
210
0.0
220
0.0
230
1.0
  2
SOLID
 70
     1
 71
     1
 91
        1
 92
        0
 93
        1
 72
     4
 94
        3
 73
     0
 74
     1
 95
       98
 96
       94
 40
0.0
 40
0.0
 40
0.0
 40
0.0
 40
1.0
 40
1.0
 40
1.0
 40
2.0
 40
2.0
 40
2.0
 40
3.0
 40
3.0
 40
3.0
 40
4.0
 40
4.0
 40
4.0
 40
5.0
 40
5.0
 40
5.0
 40
6.0
 40
6.0
 40
6.0
 40
7.0
 40
7.0
 40
7.0
 40
8.0
 40
8.0
 40
8.0
 40
9.0
 40
9.0
 40
9.0
 40
10.0
 40
10.0
 40
10.0
 40
11.0
 40
11.0
 40
11.0
 40
12.0
 40
12.0
 40
12.0
 40
13.0
 40
13.0
 40
13.0
 40
14.0
 40
14.0
 40
14.0
 40
15.0
 40
15.0
 40
15.0
 40
16.0
 40
16.0
 40
16.0
 40
17.0
 40
17.0
 40
17.0
 40
18.0
 40
18.0
 40
18.0
 40
19.0
 40
19.0
 40
19.0
 40
20.0
 40
20.0
 40
20.0
 40
21.0
 40
21.0
 40
21.0
 40
22.0
 40
22.0
 40
22.0
 40
23.0
 40
23.0
 40
23.0
 40
24.0
 40
24.0
 40
24.0
 40
25.0
 40
25.0
 40
25.0
 40
26.0
 40
26.0
 40
26.0
 40
27.0
 40
27.0
 40
27.0
 40
28.0
 40
28.0
 40
28.0
 40
29.0
 40
29.0
 40
29.0
 40
30.0
 40
30.0
 40
30.0
 40
31.0
 40
31.0
 40
31.0
 40
31.0
 10
118.944579490496
 20
28.20719180875454
 10
118.944579490496
 20
28.18531564892746
 10
118.8628630958111
 20
28.08557483072748
 10
118.6994303064414
 20
27.90796935415462
 10
118.4924154399064
 20
27.67843991845911
 10
118.2976580325742
 20
27.56367520061133
 10
118.1151580844447
 20
27.56367520061133
 10
117.9081432179098
 20
27.56367520061133
 10
117.8046357846423
 20
27.68352591281578
 10
117.8046357846423
 20
27.92322733722467
 10
117.8046357846423
 20
27.99949597226389
 10
117.8209790635792
 20
28.09619370597429
 10
117.8536656214532
 20
28.21332053835592
 10
117.682061192615
 20
28.06350714810034
 10
117.5424623516951
 20
27.91505569775619
 10
117.4348690986933
 20
27.76796618732347
 10
117.3272758456916
 20
27.62087667689073
 10
117.1413710477836
 20
27.3212498963796
 10
116.8771547049692
 20
26.86908584579008
 10
116.7327890743593
 20
26.87998136508141
 10
116.6483487998516
 20
26.88542912472707
 10
116.6238338814462
 20
26.88542912472707
 10
116.6129383621548
 20
26.88542912472707
 10
116.5298600275586
 20
26.87998136508141
 10
116.3745988776574
 20
26.86908584579008
 10
116.3745988776574
 20
26.86908584579008
 10
117.0446733140732
 20
27.95591389509862
 10
117.0446733140732
 20
27.95591389509862
 10
117.379710532281
 20
28.50068985966431
 10
117.547229141385
 20
28.83845095769502
 10
117.547229141385
 20
28.96919718919078
 10
117.547229141385
 20
29.04546582422999
 10
117.5159045234225
 20
29.08360014174959
 10
117.4532552874974
 20
29.08360014174959
 10
117.300718017419
 20
29.08360014174959
 10
117.0242442154019
 20
28.79012337115094
 10
116.6238338814462
 20
28.20316982995365
 10
116.5993189630407
 20
28.16499295181181
 10
116.5775279244581
 20
28.1459045127409
 10
116.5584607656983
 20
28.1459045127409
 10
116.547565246407
 20
28.14862839256374
 10
116.5421174867613
 20
28.15680003203221
 10
116.5421174867613
 20
28.17041943114637
 10
116.5448413665841
 20
28.18408139088272
 10
116.5502891262298
 20
28.19499819048517
 10
116.5584607656983
 20
28.20316982995365
 10
116.5584607656983
 20
28.20316982995365
 10
116.6320055209147
 20
28.30550684610976
 10
116.6320055209147
 20
28.30550684610976
 10
117.0514830136302
 20
28.86509390721207
 10
117.3361284551158
 20
29.14488743776322
 10
117.4859418453713
 20
29.14488743776322
 10
117.7038522311976
 20
29.14488743776322
 10
117.8128074241108
 20
29.00460762688755
 10
117.8128074241108
 20
28.72404800513624
 10
117.8128074241108
 20
28.51430925877844
 10
117.7011283513748
 20
28.23647351684995
 10
117.4777702059029
 20
27.89054077935073
 10
117.6194119566899
 20
28.05397356872044
 10
117.75424400792
 20
28.18744368003902
 10
117.8822663595929
 20
28.29095111330652
 10
117.9857737928604
 20
28.53337641753825
 10
118.114477114489
 20
28.73630546433897
 10
118.2683763244788
 20
28.89973825370868
 10
118.4222755344686
 20
29.06317104307837
 10
118.5605124354772
 20
29.14488743776322
 10
118.6830870275044
 20
29.14488743776322
 10
118.7675273020121
 20
29.14488743776322
 10
118.809747439266
 20
29.10811506015504
 10
118.809747439266
 20
29.03457030493867
 10
118.809747439266
 20
28.90382407344291
 10
118.6204377915794
 20
28.71723830557916
 10
118.2418184962062
 20
28.47481300134744
 10
118.181893140104
 20
28.43667868382785
 10
118.0920051059507
 20
28.38083914745985
 10
117.9721543937462
 20
28.30729439224349
 10
117.9721543937462
 20
28.30729439224349
 10
117.9231245569353
 20
28.26643619490106
 10
117.9231245569353
 20
28.26643619490106
 10
117.8849902394157
 20
28.14113772305096
 10
117.8659230806559
 20
28.03763028978348
 10
117.8659230806559
 20
27.95591389509862
 10
117.8659230806559
 20
27.72710798998104
 10
117.951725295075
 20
27.61270503742224
 10
118.1233297239132
 20
27.61270503742224
 10
118.3357923500938
 20
27.61270503742224
 10
118.5673221350342
 20
27.78899113470591
 10
118.8179190787344
 20
28.14156332927327
 10
118.872396675191
 20
28.20165892786441
 10
118.9064451729764
 20
28.23170672716
 10
118.9200645720905
 20
28.23170672716
 10
118.9364078510275
 20
28.23170672716
 10
118.944579490496
 20
28.22353508769152
 10
118.944579490496
 20
28.20719180875454
 97
        0
 97
        0
 75
     0
 76
     1
 98
        0
  0
HATCH
  5
77
330
1F
100
AcDbEntity
  8
0
 62
    18
420
        0
440
 33554687
100
AcDbHatch
 10
0.0
 20
0.0
 30
0.0
210
0.0
220
0.0
230
1.0
  2
SOLID
 70
     1
 71
     1
 91
        2
 92
        0
 93
        1
 72
     4
 94
        3
 73
     0
 74
     1
 95
       50
 96
       46
 40
0.0
 40
0.0
 40
0.0
 40
0.0
 40
1.0
 40
1.0
 40
1.0
 40
2.0
 40
2.0
 40
2.0
 40
3.0
 40
3.0
 40
3.0
 40
4.0
 40
4.0
 40
4.0
 40
5.0
 40
5.0
 40
5.0
 40
6.0
 40
6.0
 40
6.0
 40
7.0
 40
7.0
 40
7.0
 40
8.0
 40
8.0
 40
8.0
 40
9.0
 40
9.0
 40
9.0
 40
10.0
 40
10.0
 40
10.0
 40
11.0
 40
11.0
 40
11.0
 40
12.0
 40
12.0
 40
12.0
 40
13.0
 40
13.0
 40
13.0
 40
14.0
 40
14.0
 40
14.0
 40
15.0
 40
15.0
 40
15.0
 40
15.0
 10
121.3592989534333
 20
28.21127762848879
 10
121.3592989534333
 20
28.16782323319023
 10
121.2789444986599
 20
28.06599694450091
 10
121.118235589113
 20
27.9057987624208
 10
120.8785341647041
 20
27.66682086858985
 10
120.657899899055
 20
27.54733192167437
 10
120.4563327921657
 20
27.54733192167437
 10
120.371892517658
 20
27.54733192167437
 10
120.2969858225303
 20
27.56367520061133
 10
120.2316127067824
 20
27.59636175848527
 10
119.872060570169
 20
27.08699623161637
 10
119.5342994721383
 20
26.83231346818191
 10
119.2183294126902
 20
26.83231346818191
 10
119.0548966233205
 20
26.83231346818191
 10
118.9152977824005
 20
26.8997294937969
 10
118.7995328899303
 20
27.03456154502692
 10
118.6837679974601
 20
27.16939359625692
 10
118.625885551225
 20
27.3307834757595
 10
118.625885551225
 20
27.51873118353467
 10
118.625885551225
 20
27.93820867625023
 10
118.9009974133307
 20
28.34270482994025
 10
119.451221137542
 20
28.73221964460471
 10
119.8380120723837
 20
29.00733150671037
 10
120.1567060116546
 20
29.14488743776322
 10
120.4073029553548
 20
29.14488743776322
 10
120.6415566201181
 20
29.14488743776322
 10
120.7586834524997
 20
29.0195889659131
 10
120.7586834524997
 20
28.76899202221291
 10
120.7586834524997
 20
28.45574584258763
 10
120.5938887232186
 20
28.0784884871259
 10
120.2642992646563
 20
27.6372199558277
 10
120.3187768611129
 20
27.60453339795376
 10
120.3800641571265
 20
27.58819011901679
 10
120.4481611526972
 20
27.58819011901679
 10
120.5707357447245
 20
27.58819011901679
 10
120.713739435423
 20
27.64520007249615
 10
120.8771722247927
 20
27.75921997945485
 10
121.0406050141624
 20
27.87323988641357
 10
121.174075125481
 20
28.01034893093296
 10
121.2775825587485
 20
28.17054711301306
 10
121.3075452367996
 20
28.20859630928818
 10
121.3293362753822
 20
28.22762090742575
 10
121.3429556744964
 20
28.22762090742575
 10
121.3538511937877
 20
28.22762090742575
 10
121.3592989534333
 20
28.2221731477801
 10
121.3592989534333
 20
28.21127762848879
 97
        0
 97
        0
 92
        0
 93
        1
 72
     4
 94
        3
 73
     0
 74
     1
 95
       35
 96
       31
 40
0.0
 40
0.0
 40
0.0
 40
0.0
 40
1.0
 40
1.0
 40
1.0
 40
2.0
 40
2.0
 40
2.0
 40
3.0
 40
3.0
 40
3.0
 40
4.0
 40
4.0
 40
4.0
 40
5.0
 40
5.0
 40
5.0
 40
6.0
 40
6.0
 40
6.0
 40
7.0
 40
7.0
 40
7.0
 40
8.0
 40
8.0
 40
8.0
 40
9.0
 40
9.0
 40
9.0
 40
10.0
 40
10.0
 40
10.0
 40
10.0
 10
120.697396156486
 20
28.76082038274441
 10
120.697396156486
 20
28.98145464839351
 10
120.5979745429528
 20
29.09177178121807
 10
120.3991313158863
 20
29.09177178121807
 10
120.1512582520089
 20
29.09177178121807
 10
119.848907591675
 20
28.854794236632
 10
119.4920793348845
 20
28.38083914745985
 10
119.1352510780939
 20
27.90688405828772
 10
118.9568369496987
 20
27.50783566424334
 10
118.9568369496987
 20
27.18369396532677
 10
118.9568369496987
 20
26.99574625755162
 10
119.046724983852
 20
26.90177240366403
 10
119.2265010521587
 20
26.90177240366403
 10
119.5206800730242
 20
26.90177240366403
 10
119.8420978921179
 20
27.14419770789577
 10
120.1907545094399
 20
27.6290483163592
 10
120.1117619945779
 20
27.71621247068973
 10
120.0722657371469
 20
27.80610050484306
 10
120.0722657371469
 20
27.89871241881923
 10
120.0722657371469
 20
28.03218253013782
 10
120.1253813936921
 20
28.16973846119065
 10
120.2316127067824
 20
28.31138021197773
 10
120.3378440198727
 20
28.45302196276481
 10
120.4413514531402
 20
28.52384283815834
 10
120.5421350065848
 20
28.52384283815834
 10
120.5857170837501
 20
28.52384283815834
 10
120.6156797618012
 20
28.49660403993005
 10
120.6320230407381
 20
28.4421264434735
 10
120.6756051179034
 20
28.53746223727249
 10
120.697396156486
 20
28.6436935503628
 10
120.697396156486
 20
28.76082038274441
 97
        0
 97
        0
 75
     0
 76
     1
 98
        0
  0
HATCH
  5
78
330
1F
100
AcDbEntity
  8
0
 62
    18
420
        0
440
 33554687
100
AcDbHatch
 10
0.0
 20
0.0
 30
0.0
210
0.0
220
0.0
230
1.0
  2
SOLID
 70
     1
 71
     1
 91
        1
 92
        0
 93
        1
 72
     4
 94
        3
 73
     0
 74
     1
 95
       98
 96
       94
 40
0.0
 40
0.0
 40
0.0
 40
0.0
 40
1.0
 40
1.0
 40
1.0
 40
2.0
 40
2.0
 40
2.0
 40
3.0
 40
3.0
 40
3.0
 40
4.0
 40
4.0
 40
4.0
 40
5.0
 40
5.0
 40
5.0
 40
6.0
 40
6.0
 40
6.0
 40
7.0
 40
7.0
 40
7.0
 40
8.0
 40
8.0
 40
8.0
 40
9.0
 40
9.0
 40
9.0
 40
10.0
 40
10.0
 40
10.0
 40
11.0
 40
11.0
 40
11.0
 40
12.0
 40
12.0
 40
12.0
 40
13.0
 40
13.0
 40
13.0
 40
14.0
 40
14.0
 40
14.0
 40
15.0
 40
15.0
 40
15.0
 40
16.0
 40
16.0
 40
16.0
 40
17.0
 40
17.0
 40
17.0
 40
18.0
 40
18.0
 40
18.0
 40
19.0
 40
19.0
 40
19.0
 40
20.0
 40
20.0
 40
20.0
 40
21.0
 40
21.0
 40
21.0
 40
22.0
 40
22.0
 40
22.0
 40
23.0
 40
23.0
 40
23.0
 40
24.0
 40
24.0
 40
24.0
 40
25.0
 40
25.0
 40
25.0
 40
26.0
 40
26.0
 40
26.0
 40
27.0
 40
27.0
 40
27.0
 40
28.0
 40
28.0
 40
28.0
 40
29.0
 40
29.0
 40
29.0
 40
30.0
 40
30.0
 40
30.0
 40
31.0
 40
31.0
 40
31.0
 40
31.0
 10
123.9783094030828
 20
28.21536344822303
 10
123.9783094030828
 20
28.19352984901816
 10
123.9646900039687
 20
28.16897236999047
 10
123.9374512057404
 20
28.14169101113997
 10
123.9374512057404
 20
28.14169101113997
 10
123.761760957168
 20
27.90030844215292
 10
123.761760957168
 20
27.90030844215292
 10
123.2496715504763
 20
27.1883117928389
 10
122.8683283752803
 20
26.83231346818191
 10
122.61773143158
 20
26.83231346818191
 10
122.4869852000843
 20
26.83231346818191
 10
122.3800729170383
 20
26.8793003951257
 10
122.296994582442
 20
26.97327424901329
 10
122.2139162478457
 20
27.06724810290086
 10
122.1723770805476
 20
27.18505590523819
 10
122.1723770805476
 20
27.32669765602526
 10
122.1723770805476
 20
27.51736924362325
 10
122.2758845138151
 20
27.76660424741205
 10
122.48289938035
 20
28.07440266739167
 10
122.8070410792666
 20
28.55108163638663
 10
122.9691119287249
 20
28.83436513796079
 10
122.9691119287249
 20
28.92425317211411
 10
122.9691119287249
 20
29.03048448520444
 10
122.9132723923569
 20
29.08360014174959
 10
122.801593319621
 20
29.08360014174959
 10
122.6381605302513
 20
29.08360014174959
 10
122.4148023847793
 20
28.9228912322027
 10
122.1315188832052
 20
28.60147341310895
 10
121.8591309009224
 20
28.29367499312936
 10
121.4845974252834
 20
27.71076471104406
 10
121.0079184562885
 20
26.85274256685312
 10
120.9262020616036
 20
26.86908584579008
 10
120.8567431261215
 20
26.87725748525858
 10
120.7995416498421
 20
26.87725748525858
 10
120.7396162937399
 20
26.87725748525858
 10
120.6592618389664
 20
26.86908584579008
 10
120.5584782855218
 20
26.85274256685312
 10
120.5584782855218
 20
26.85274256685312
 10
121.1590937864554
 20
27.93957061616166
 10
121.1590937864554
 20
27.93957061616166
 10
121.2408101811403
 20
28.09483176606288
 10
121.3661086529904
 20
28.32363767118046
 10
121.5349892020058
 20
28.62598833151441
 10
121.6248772361591
 20
28.77307784194714
 10
121.9013510381762
 20
29.24158517147363
 10
122.364410608057
 20
30.03151032009387
 10
122.364410608057
 20
30.03151032009387
 10
122.9854552076619
 20
31.08565181152846
 10
122.9854552076619
 20
31.08565181152846
 10
123.0671716023467
 20
31.06930853259148
 10
123.1366305378289
 20
31.06113689312301
 10
123.1938320141083
 20
31.06113689312301
 10
123.3027872070214
 20
31.06113689312301
 10
123.4062946402889
 20
31.07475629223715
 10
123.5043543139107
 20
31.10199509046542
 10
123.2210708123365
 20
30.64710716005308
 10
122.7988694397981
 20
29.96613720434598
 10
122.2377501962955
 20
29.05908522334413
 10
122.2377501962955
 20
29.05908522334413
 10
121.6044481374879
 20
28.00494373190953
 10
121.6044481374879
 20
28.00494373190953
 10
122.1165375441796
 20
28.76490620247866
 10
122.5210336978697
 20
29.14488743776322
 10
122.8179365985579
 20
29.14488743776322
 10
122.9350634309396
 20
29.14488743776322
 10
123.0351660144285
 20
29.0944956610409
 10
123.1182443490248
 20
28.99371210759624
 10
123.201322683621
 20
28.8929285541516
 10
123.2428618509192
 20
28.7703539621243
 10
123.2428618509192
 20
28.62598833151441
 10
123.2428618509192
 20
28.43804062373925
 10
123.1230111387147
 20
28.16701458136782
 10
122.8833097143058
 20
27.81291020440014
 10
122.6163694916686
 20
27.41794763009
 10
122.48289938035
 20
27.17007456621263
 10
122.48289938035
 20
27.06929101276798
 10
122.48289938035
 20
26.95216418038635
 10
122.5414627965409
 20
26.89360076419554
 10
122.6585896289225
 20
26.89360076419554
 10
122.8710522551031
 20
26.89360076419554
 10
123.222432752248
 20
27.23734162964982
 10
123.7127311203571
 20
27.92482336055838
 10
123.7127311203571
 20
27.92482336055838
 10
123.8393915321186
 20
28.1007689728642
 10
123.8393915321186
 20
28.1007689728642
 10
123.8393915321186
 20
28.1007689728642
 10
123.912936287335
 20
28.19078468888424
 10
123.912936287335
 20
28.19078468888424
 10
123.9265556864491
 20
28.21806604773474
 10
123.9428989653861
 20
28.23170672716
 10
123.9619661241459
 20
28.23170672716
 10
123.9728616434372
 20
28.23170672716
 10
123.9783094030828
 20
28.22625896751434
 10
123.9783094030828
 20
28.21536344822303
 97
        0
 97
        0
 75
     0
 76
     1
 98
        0
  0
HATCH
  5
79
330
1F
100
AcDbEntity
  8
0
 62
    18
420
        0
440
 33554687
100
AcDbHatch
 10
0.0
 20
0.0
 30
0.0
210
0.0
220
0.0
230
1.0
  2
SOLID
 70
     1
 71
     1
 91
        2
 92
        0
 93
        1
 72
     4
 94
        3
 73
     0
 74
     1
 95
       53
 96
       49
 40
0.0
 40
0.0
 40
0.0
 40
0.0
 40
1.0
 40
1.0
 40
1.0
 40
2.0
 40
2.0
 40
2.0
 40
3.0
 40
3.0
 40
3.0
 40
4.0
 40
4.0
 40
4.0
 40
5.0
 40
5.0
 40
5.0
 40
6.0
 40
6.0
 40
6.0
 40
7.0
 40
7.0
 40
7.0
 40
8.0
 40
8.0
 40
8.0
 40
9.0
 40
9.0
 40
9.0
 40
10.0
 40
10.0
 40
10.0
 40
11.0
 40
11.0
 40
11.0
 40
12.0
 40
12.0
 40
12.0
 40
13.0
 40
13.0
 40
13.0
 40
14.0
 40
14.0
 40
14.0
 40
15.0
 40
15.0
 40
15.0
 40
16.0
 40
16.0
 40
16.0
 40
16.0
 10
126.0457341886096
 20
28.2031059890203
 10
126.0457341886096
 20
28.1949343495518
 10
126.0212192702041
 20
28.15956647247728
 10
125.9721894333932
 20
28.0970023577967
 10
125.9721894333932
 20
28.0970023577967
 10
125.7964991848208
 20
27.87675113774766
 10
125.7964991848208
 20
27.87675113774766
 10
125.2326560614953
 20
27.18045935803717
 10
124.7491673929433
 20
26.83231346818191
 10
124.3460331791647
 20
26.83231346818191
 10
124.1553615915667
 20
26.83231346818191
 10
123.9953336519755
 20
26.90109143370833
 10
123.8659493603912
 20
27.03864736476116
 10
123.7365650688068
 20
27.17620329581399
 10
123.6718729230146
 20
27.34848869460789
 10
123.6718729230146
 20
27.55550356114284
 10
123.6718729230146
 20
28.04580192925195
 10
124.0137198407796
 20
28.47753688117027
 10
124.6974136763095
 20
28.85070841689775
 10
125.0569658129229
 20
29.0468277641414
 10
125.3497828938769
 20
29.14488743776322
 10
125.5758649191717
 20
29.14488743776322
 10
125.6739245927935
 20
29.14488743776322
 10
125.7576838973455
 20
29.11560572966782
 10
125.8271428328276
 20
29.057042313477
 10
125.8966017683097
 20
28.99847889728619
 10
125.9313312360508
 20
28.92697705193696
 10
125.9313312360508
 20
28.84253677742927
 10
125.9313312360508
 20
28.64641743018562
 10
125.8033088843779
 20
28.47957979103739
 10
125.547264181032
 20
28.34202385998455
 10
125.2912194776861
 20
28.20446792893171
 10
124.8635703455021
 20
28.07576460730307
 10
124.2643167844798
 20
27.95591389509862
 10
124.0790929565275
 20
27.6753542733473
 10
123.9864810425513
 20
27.44110060858407
 10
123.9864810425513
 20
27.2531529008089
 10
123.9864810425513
 20
27.01889923604566
 10
124.1131414543129
 20
26.90177240366403
 10
124.3664622778359
 20
26.90177240366403
 10
124.7968352898428
 20
26.90177240366403
 10
125.3239060355601
 20
27.32195214664642
 10
125.9476745149878
 20
28.16231163261124
 10
125.9803610728617
 20
28.20585114915424
 10
126.00759987109
 20
28.22762090742575
 10
126.0293909096726
 20
28.22762090742575
 10
126.0402864289639
 20
28.22489702760292
 10
126.0457341886096
 20
28.21672538813444
 10
126.0457341886096
 20
28.2031059890203
 97
        0
 97
        0
 92
        0
 93
        1
 72
     4
 94
        3
 73
     0
 74
     1
 95
       20
 96
       16
 40
0.0
 40
0.0
 40
0.0
 40
0.0
 40
1.0
 40
1.0
 40
1.0
 40
2.0
 40
2.0
 40
2.0
 40
3.0
 40
3.0
 40
3.0
 40
4.0
 40
4.0
 40
4.0
 40
5.0
 40
5.0
 40
5.0
 40
5.0
 10
125.7025253309332
 20
28.96102554972231
 10
125.7025253309332
 20
29.04818970405282
 10
125.6548574340337
 20
29.09177178121807
 10
125.5595216402347
 20
29.09177178121807
 10
125.4151560096248
 20
29.09177178121807
 10
125.2251653919825
 20
28.99166919772912
 10
124.9895497873079
 20
28.79146403075124
 10
124.7539341826332
 20
28.59125886377335
 10
124.5230853676485
 20
28.33180931064895
 10
124.2970033423538
 20
28.01311537137802
 10
124.6892420368411
 20
28.11389892482266
 10
125.0215553752261
 20
28.25622164556546
 10
125.293943357509
 20
28.44008353360637
 10
125.5663313397918
 20
28.62394542164729
 10
125.7025253309332
 20
28.7975927603526
 10
125.7025253309332
 20
28.96102554972231
 97
        0
 97
        0
 75
     0
 76
     1
 98
        0
  0
HATCH
  5
7A
330
1F
100
AcDbEntity
  8
0
 62
    18
420
        0
440
 33554687
100
AcDbHatch
 10
0.0
 20
0.0
 30
0.0
210
0.0
220
0.0
230
1.0
  2
SOLID
 70
     1
 71
     1
 91
        1
 92
        0
 93
        1
 72
     4
 94
        3
 73
     0
 74
     1
 95
      239
 96
      235
 40
0.0
 40
0.0
 40
0.0
 40
0.0
 40
1.0
 40
1.0
 40
1.0
 40
2.0
 40
2.0
 40
2.0
 40
3.0
 40
3.0
 40
3.0
 40
4.0
 40
4.0
 40
4.0
 40
5.0
 40
5.0
 40
5.0
 40
6.0
 40
6.0
 40
6.0
 40
7.0
 40
7.0
 40
7.0
 40
8.0
 40
8.0
 40
8.0
 40
9.0
 40
9.0
 40
9.0
 40
10.0
 40
10.0
 40
10.0
 40
11.0
 40
11.0
 40
11.0
 40
12.0
 40
12.0
 40
12.0
 40
13.0
 40
13.0
 40
13.0
 40
14.0
 40
14.0
 40
14.0
 40
15.0
 40
15.0
 40
15.0
 40
16.0
 40
16.0
 40
16.0
 40
17.0
 40
17.0
 40
17.0
 40
18.0
 40
18.0
 40
18.0
 40
19.0
 40
19.0
 40
19.0
 40
20.0
 40
20.0
 40
20.0
 40
21.0
 40
21.0
 40
21.0
 40
22.0
 40
22.0
 40
22.0
 40
23.0
 40
23.0
 40
23.0
 40
24.0
 40
24.0
 40
24.0
 40
25.0
 40
25.0
 40
25.0
 40
26.0
 40
26.0
 40
26.0
 40
27.0
 40
27.0
 40
27.0
 40
28.0
 40
28.0
 40
28.0
 40
29.0
 40
29.0
 40
29.0
 40
30.0
 40
30.0
 40
30.0
 40
31.0
 40
31.0
 40
31.0
 40
32.0
 40
32.0
 40
32.0
 40
33.0
 40
33.0
 40
33.0
 40
34.0
 40
34.0
 40
34.0
 40
35.0
 40
35.0
 40
35.0
 40
36.0
 40
36.0
 40
36.0
 40
37.0
 40
37.0
 40
37.0
 40
38.0
 40
38.0
 40
38.0
 40
39.0
 40
39.0
 40
39.0
 40
40.0
 40
40.0
 40
40.0
 40
41.0
 40
41.0
 40
41.0
 40
42.0
 40
42.0
 40
42.0
 40
43.0
 40
43.0
 40
43.0
 40
44.0
 40
44.0
 40
44.0
 40
45.0
 40
45.0
 40
45.0
 40
46.0
 40
46.0
 40
46.0
 40
47.0
 40
47.0
 40
47.0
 40
48.0
 40
48.0
 40
48.0
 40
49.0
 40
49.0
 40
49.0
 40
50.0
 40
50.0
 40
50.0
 40
51.0
 40
51.0
 40
51.0
 40
52.0
 40
52.0
 40
52.0
 40
53.0
 40
53.0
 40
53.0
 40
54.0
 40
54.0
 40
54.0
 40
55.0
 40
55.0
 40
55.0
 40
56.0
 40
56.0
 40
56.0
 40
57.0
 40
57.0
 40
57.0
 40
58.0
 40
58.0
 40
58.0
 40
59.0
 40
59.0
 40
59.0
 40
60.0
 40
60.0
 40
60.0
 40
61.0
 40
61.0
 40
61.0
 40
62.0
 40
62.0
 40
62.0
 40
63.0
 40
63.0
 40
63.0
 40
64.0
 40
64.0
 40
64.0
 40
65.0
 40
65.0
 40
65.0
 40
66.0
 40
66.0
 40
66.0
 40
67.0
 40
67.0
 40
67.0
 40
68.0
 40
68.0
 40
68.0
 40
69.0
 40
69.0
 40
69.0
 40
70.0
 40
70.0
 40
70.0
 40
71.0
 40
71.0
 40
71.0
 40
72.0
 40
72.0
 40
72.0
 40
73.0
 40
73.0
 40
73.0
 40
74.0
 40
74.0
 40
74.0
 40
75.0
 40
75.0
 40
75.0
 40
76.0
 40
76.0
 40
76.0
 40
77.0
 40
77.0
 40
77.0
 40
78.0
 40
78.0
 40
78.0
 40
78.0
 10
140.9222038409869
 20
33.12039003918127
 10
140.9222038409869
 20
33.05229304361056
 10
140.879983703733
 20
33.0182445458252
 10
140.7955434292254
 20
33.0182445458252
 10
140.7955434292254
 20
33.0182445458252
 10
140.738341952946
 20
33.0182445458252
 10
140.738341952946
 20
33.0182445458252
 10
140.6539016784383
 20
33.02914006511652
 10
140.547670365348
 20
33.03458782476218
 10
140.4196480136751
 20
33.03458782476218
 10
139.7931556544245
 20
33.03458782476218
 10
139.0372790035896
 20
32.75258114185498
 10
138.1520180611704
 20
32.18856777604057
 10
137.6481002939472
 20
31.86702227508012
 10
137.2258989214088
 20
31.53732641496231
 10
136.8854139435552
 20
31.19948019568713
 10
136.5340334464103
 20
30.85341977632122
 10
135.9415895849452
 20
30.17359895741438
 10
135.1080823591597
 20
29.16001773896659
 10
134.1002468247132
 20
27.93661265291655
 10
133.3130455559158
 20
27.11646946251182
 10
132.7464785527675
 20
26.69958816775237
 10
132.5585308449923
 20
26.56062773616588
 10
132.4495756520791
 20
26.49114752037265
 10
132.419612974028
 20
26.49114752037265
 10
132.4059935749139
 20
26.49114752037265
 10
132.3978219354454
 20
26.4965952800183
 10
132.3950980556226
 20
26.50749079930961
 10
132.3950980556226
 20
26.51021467913246
 10
132.4345943130536
 20
26.55109415678601
 10
132.5135868279156
 20
26.63012923227024
 10
132.8595195654148
 20
26.98180765377073
 10
133.2163478222054
 20
27.66603349707856
 10
133.5840715982872
 20
28.68280676219372
 10
133.9136610568494
 20
29.59058227377351
 10
134.1744725498853
 20
30.2529957981876
 10
134.3665060773946
 20
30.67004733543597
 10
134.558539604904
 20
31.08714143330657
 10
134.7635115615719
 20
31.4347127547617
 10
134.9814219473982
 20
31.71276129980134
 10
135.0331756640319
 20
31.77817697617147
 10
135.0590525223488
 20
31.81497063409077
 10
135.0590525223488
 20
31.82314227355924
 10
135.039985363589
 20
31.8285900332049
 10
135.0195562649178
 20
31.81769451391359
 10
134.9977652263351
 20
31.7904557156853
 10
134.9977652263351
 20
31.7904557156853
 10
134.9569070289927
 20
31.74953367740953
 10
134.9569070289927
 20
31.74953367740953
 10
134.9569070289927
 20
31.74953367740953
 10
134.8547615356366
 20
31.62280942471466
 10
134.8547615356366
 20
31.62280942471466
 10
134.6777093471528
 20
31.40200491657663
 10
134.2623176741715
 20
30.86088916552288
 10
133.6085865166926
 20
29.9994621715534
 10
132.5762360638407
 20
28.60104780688664
 10
131.6705460227502
 20
27.59517006106277
 10
130.8915163934213
 20
26.98182893408183
 10
130.4720389007057
 20
26.65470799160904
 10
130.2282516565626
 20
26.49114752037265
 10
130.1601546609919
 20
26.49114752037265
 10
130.1465352618777
 20
26.4965952800183
 10
130.1383636224093
 20
26.50476691948678
 10
130.1356397425864
 20
26.51566243877811
 10
130.1356397425864
 20
26.52383407824659
 10
130.1533449614348
 20
26.5429012370064
 10
130.1887553991316
 20
26.5728639150575
 10
130.722635844406
 20
27.06060864583272
 10
131.234044281142
 20
27.79290671195123
 10
131.7229807093397
 20
28.76975811341308
 10
132.2119171375374
 20
29.7466095148749
 10
132.4563853516362
 20
30.52659675820404
 10
132.4563853516362
 20
31.10971984340048
 10
132.4563853516362
 20
31.50753397940012
 10
132.3596876179258
 20
31.82292947044809
 10
132.166292150505
 20
32.05590631654437
 10
131.9728966830842
 20
32.28888316264067
 10
131.7086803402698
 20
32.40537158568883
 10
131.373643122062
 20
32.40537158568883
 10
130.6681582479494
 20
32.40537158568883
 10
129.9674401635268
 20
32.01177095129012
 10
129.2714888687941
 20
31.2245696824927
 10
128.5755375740615
 20
30.4373684136953
 10
128.2275619266952
 20
29.64335744534081
 10
128.2275619266952
 20
28.84253677742927
 10
128.2275619266952
 20
28.51022343904421
 10
128.3181309308042
 20
28.2419212764956
 10
128.4992689390223
 20
28.03763028978348
 10
128.6804069472404
 20
27.83333930307136
 10
128.9167035218707
 20
27.73119380971528
 10
129.2081586629134
 20
27.73119380971528
 10
129.8237555028726
 20
27.73119380971528
 10
130.4066657849579
 20
28.15203324234226
 10
130.9568895091692
 20
28.99371210759624
 10
131.3137177659597
 20
29.54121195198476
 10
131.492131894355
 20
30.02878644027105
 10
131.492131894355
 20
30.45643557245511
 10
131.492131894355
 20
30.65800267934441
 10
131.4424210875884
 20
30.82007352880268
 10
131.3429994740551
 20
30.94264812082997
 10
131.2435778605219
 20
31.06522271285725
 10
131.1121506590704
 20
31.12651000887088
 10
130.9487178697007
 20
31.12651000887088
 10
130.8506581960789
 20
31.12651000887088
 10
130.7553224022799
 20
31.10267606042115
 10
130.6627104883037
 20
31.05500816352165
 10
130.5700985743276
 20
31.00734026662215
 10
130.5237926173395
 20
30.95899139976693
 10
130.5237926173395
 20
30.90996156295603
 10
130.5237926173395
 20
30.89361828401904
 10
130.531964256808
 20
30.88544664455057
 10
130.5483075357449
 20
30.88544664455057
 10
130.5564791752134
 20
30.88544664455057
 10
130.5700985743276
 20
30.88817052437339
 10
130.5891657330874
 20
30.89361828401904
 10
130.6572627286581
 20
30.90451380331037
 10
130.7022067457347
 20
30.90996156295603
 10
130.7239977843174
 20
30.90996156295603
 10
130.8465723763447
 20
30.90996156295603
 10
130.9078596723583
 20
30.8405026274739
 10
130.9078596723583
 20
30.70158475650965
 10
130.9078596723583
 20
30.61714448200198
 10
130.8751731144843
 20
30.54428069674132
 10
130.8097999987365
 20
30.48299340072766
 10
130.7444268829886
 20
30.42170610471403
 10
130.6681582479494
 20
30.39106245670722
 10
130.5809940936189
 20
30.39106245670722
 10
130.4121135446035
 20
30.39106245670722
 10
130.3276732700959
 20
30.48231243077197
 10
130.3276732700959
 20
30.66481237890146
 10
130.3276732700959
 20
30.80917800951137
 10
130.3903225060209
 20
30.93515745131718
 10
130.515620977871
 20
31.04275070431892
 10
130.6409194497211
 20
31.15034395732064
 10
130.785285080331
 20
31.2041405838215
 10
130.9487178697007
 20
31.2041405838215
 10
131.1366655774759
 20
31.2041405838215
 10
131.2871599376871
 20
31.13604358825079
 10
131.4002009503345
 20
30.99984959710936
 10
131.5132419629819
 20
30.86365560596795
 10
131.5697624693056
 20
30.68251759774986
 10
131.5697624693056
 20
30.45643557245511
 10
131.5697624693056
 20
29.94434616576335
 10
131.3355088045423
 20
29.36688364332373
 10
130.8670014750159
 20
28.72404800513624
 10
130.3467404288556
 20
28.01583925120084
 10
129.7910689449986
 20
27.66173487423315
 10
129.1999870234449
 20
27.66173487423315
 10
128.8567781657685
 20
27.66173487423315
 10
128.57417563415
 20
27.79335359848467
 10
128.3521794285896
 20
28.05659104698769
 10
128.130183223029
 20
28.31982849549073
 10
128.0191851202488
 20
28.65195031107575
 10
128.0191851202488
 20
29.05295649374277
 10
128.0191851202488
 20
29.42863910618192
 10
128.1192877037377
 20
29.82064371724692
 10
128.3194928707156
 20
30.22897032693781
 10
128.5196980376935
 20
30.63729693662869
 10
128.7941289298435
 20
31.00889372933359
 10
129.1427855471655
 20
31.34376070505256
 10
129.9245390563172
 20
32.10325500877714
 10
130.6749679475065
 20
32.48300216063942
 10
131.3940722207332
 20
32.48300216063942
 10
131.8162735932715
 20
32.48300216063942
 10
132.171058940195
 20
32.31703701424695
 10
132.4584282615034
 20
31.98510672146196
 10
132.7457975828117
 20
31.65321898929922
 10
132.8894822434659
 20
31.2451264630306
 10
132.8894822434659
 20
30.76082914265618
 10
132.8894822434659
 20
30.24001480840694
 10
132.6742957374625
 20
29.60809596982186
 10
132.2439227254556
 20
28.86507262690095
 10
131.8135497134487
 20
28.12204928398005
 10
131.2919267273771
 20
27.48329946552678
 10
130.6790537672407
 20
26.94882317154116
 10
130.6191284111385
 20
26.89430301446237
 10
130.5891657330874
 20
26.86431905610013
 10
130.5891657330874
 20
26.85887129645448
 10
130.5918896129102
 20
26.84797577716317
 10
130.5973373725558
 20
26.84252801751752
 10
130.6055090120243
 20
26.84252801751752
 10
130.689949286532
 20
26.84252801751752
 10
130.9609753289034
 20
27.0796758045925
 10
131.4185871391386
 20
27.5539713787425
 10
132.0668705369718
 20
28.22728042244789
 10
132.9425979000111
 20
29.29038092486226
 10
134.0457692282566
 20
30.7432728859856
 10
134.3617392877047
 20
31.16032442323396
 10
134.6722615875071
 20
31.53377260300596
 10
134.9773361276639
 20
31.8636174253016
 10
135.2824106678207
 20
32.19346224759721
 10
135.4703583755959
 20
32.35838465874502
 10
135.5411792509894
 20
32.35838465874502
 10
135.5575225299264
 20
32.35838465874502
 10
135.5656941693948
 20
32.34953204932083
 10
135.5656941693948
 20
32.33182683047244
 10
135.5656941693948
 20
32.32365519100397
 10
135.5575225299264
 20
32.31003579188983
 10
135.5411792509894
 20
32.29096863313002
 10
135.3695748221512
 20
32.06207760676797
 10
135.2306569511869
 20
31.82910076067168
 10
135.1244256380967
 20
31.59203809484114
 10
135.0045749258922
 20
31.32224631051444
 10
134.8234369176741
 20
30.8153918603572
 10
134.5810116134424
 20
30.07147474436943
 10
134.3140713908052
 20
29.25946063281094
 10
134.0716460865735
 20
28.64090582960662
 10
133.8537357007472
 20
28.21581033475645
 10
133.6249297956296
 20
27.77709544079215
 10
133.3375604743212
 20
27.38062196439282
 10
132.991627736822
 20
27.02638990555843
 10
132.9861799771764
 20
27.01549438626711
 10
132.9807322175307
 20
27.00596080688723
 10
132.975284457885
 20
26.99778916741873
 10
132.9780083377079
 20
26.98961752795024
 10
132.9834560973535
 20
26.9841697683046
 10
132.991627736822
 20
26.98144588848176
 10
133.0379336938101
 20
26.98144588848176
 10
133.2326911011423
 20
27.15992385781037
 10
133.5758999588187
 20
27.51687979646759
 10
133.8156013832276
 20
27.76483798158942
 10
134.4856758196434
 20
28.55501849394307
 10
135.586123268066
 20
29.88742133352847
 10
136.1554141510372
 20
30.5767757318152
 10
136.6647796779061
 20
31.1210409689141
 10
137.1142198486728
 20
31.52021704482516
 10
137.5636600194395
 20
31.91939312073622
 10
138.0689397265742
 20
32.27566808943773
 10
138.6300589700768
 20
32.58904195092968
 10
139.3954692002916
 20
33.01954264480328
 10
140.0628197568845
 20
33.23479299174006
 10
140.6321106398557
 20
33.23479299174006
 10
140.8255061072765
 20
33.23479299174006
 10
140.9222038409869
 20
33.19665867422046
 10
140.9222038409869
 20
33.12039003918127
 97
        0
 97
        0
 75
     0
 76
     1
 98
        0
  0
HATCH
  5
7B
330
1F
100
AcDbEntity
  8
0
 62
    18
420
        0
440
 33554687
100
AcDbHatch
 10
0.0
 20
0.0
 30
0.0
210
0.0
220
0.0
230
1.0
  2
SOLID
 70
     1
 71
     1
 91
        2
 92
        0
 93
        1
 72
     4
 94
        3
 73
     0
 74
     1
 95
       53
 96
       49
 40
0.0
 40
0.0
 40
0.0
 40
0.0
 40
1.0
 40
1.0
 40
1.0
 40
2.0
 40
2.0
 40
2.0
 40
3.0
 40
3.0
 40
3.0
 40
4.0
 40
4.0
 40
4.0
 40
5.0
 40
5.0
 40
5.0
 40
6.0
 40
6.0
 40
6.0
 40
7.0
 40
7.0
 40
7.0
 40
8.0
 40
8.0
 40
8.0
 40
9.0
 40
9.0
 40
9.0
 40
10.0
 40
10.0
 40
10.0
 40
11.0
 40
11.0
 40
11.0
 40
12.0
 40
12.0
 40
12.0
 40
13.0
 40
13.0
 40
13.0
 40
14.0
 40
14.0
 40
14.0
 40
15.0
 40
15.0
 40
15.0
 40
16.0
 40
16.0
 40
16.0
 40
16.0
 10
137.3144250156507
 20
28.2031059890203
 10
137.3144250156507
 20
28.1949343495518
 10
137.2899100972452
 20
28.15956647247728
 10
137.2408802604343
 20
28.0970023577967
 10
137.2408802604343
 20
28.0970023577967
 10
137.0651900118619
 20
27.87675113774766
 10
137.0651900118619
 20
27.87675113774766
 10
136.5013468885364
 20
27.18045935803717
 10
136.0178582199844
 20
26.83231346818191
 10
135.6147240062058
 20
26.83231346818191
 10
135.4240524186078
 20
26.83231346818191
 10
135.2640244790166
 20
26.90109143370833
 10
135.1346401874323
 20
27.03864736476116
 10
135.0052558958479
 20
27.17620329581399
 10
134.9405637500557
 20
27.34848869460789
 10
134.9405637500557
 20
27.55550356114284
 10
134.9405637500557
 20
28.04580192925195
 10
135.2824106678207
 20
28.47753688117027
 10
135.9661045033506
 20
28.85070841689775
 10
136.325656639964
 20
29.0468277641414
 10
136.618473720918
 20
29.14488743776322
 10
136.8445557462128
 20
29.14488743776322
 10
136.9426154198346
 20
29.14488743776322
 10
137.0263747243866
 20
29.11560572966782
 10
137.0958336598687
 20
29.057042313477
 10
137.1652925953508
 20
28.99847889728619
 10
137.2000220630919
 20
28.92697705193696
 10
137.2000220630919
 20
28.84253677742927
 10
137.2000220630919
 20
28.64641743018562
 10
137.071999711419
 20
28.47957979103739
 10
136.8159550080731
 20
28.34202385998455
 10
136.5599103047272
 20
28.20446792893171
 10
136.1322611725432
 20
28.07576460730307
 10
135.5330076115209
 20
27.95591389509862
 10
135.3477837835686
 20
27.6753542733473
 10
135.2551718695924
 20
27.44110060858407
 10
135.2551718695924
 20
27.2531529008089
 10
135.2551718695924
 20
27.01889923604566
 10
135.381832281354
 20
26.90177240366403
 10
135.635153104877
 20
26.90177240366403
 10
136.0655261168839
 20
26.90177240366403
 10
136.5925968626012
 20
27.32195214664642
 10
137.2163653420289
 20
28.16231163261124
 10
137.2490518999028
 20
28.20585114915424
 10
137.2762906981311
 20
28.22762090742575
 10
137.2980817367137
 20
28.22762090742575
 10
137.3089772560051
 20
28.22489702760292
 10
137.3144250156507
 20
28.21672538813444
 10
137.3144250156507
 20
28.2031059890203
 97
        0
 97
        0
 92
        0
 93
        1
 72
     4
 94
        3
 73
     0
 74
     1
 95
       20
 96
       16
 40
0.0
 40
0.0
 40
0.0
 40
0.0
 40
1.0
 40
1.0
 40
1.0
 40
2.0
 40
2.0
 40
2.0
 40
3.0
 40
3.0
 40
3.0
 40
4.0
 40
4.0
 40
4.0
 40
5.0
 40
5.0
 40
5.0
 40
5.0
 10
136.9712161579743
 20
28.96102554972231
 10
136.9712161579743
 20
29.04818970405282
 10
136.9235482610748
 20
29.09177178121807
 10
136.8282124672758
 20
29.09177178121807
 10
136.6838468366659
 20
29.09177178121807
 10
136.4938562190237
 20
28.99166919772912
 10
136.258240614349
 20
28.79146403075124
 10
136.0226250096743
 20
28.59125886377335
 10
135.7917761946896
 20
28.33180931064895
 10
135.5656941693949
 20
28.01311537137802
 10
135.9579328638821
 20
28.11389892482266
 10
136.2902462022672
 20
28.25622164556546
 10
136.5626341845501
 20
28.44008353360637
 10
136.8350221668329
 20
28.62394542164729
 10
136.9712161579743
 20
28.7975927603526
 10
136.9712161579743
 20
28.96102554972231
 97
        0
 97
        0
 75
     0
 76
     1
 98
        0
  0
HATCH
  5
7C
330
1F
100
AcDbEntity
  8
0
 62
    18
420
        0
440
 33554687
100
AcDbHatch
 10
0.0
 20
0.0
 30
0.0
210
0.0
220
0.0
230
1.0
  2
SOLID
 70
     1
 71
     1
 91
        2
 92
        0
 93
        1
 72
     4
 94
        3
 73
     0
 74
     1
 95
       23
 96
       19
 40
0.0
 40
0.0
 40
0.0
 40
0.0
 40
1.0
 40
1.0
 40
1.0
 40
2.0
 40
2.0
 40
2.0
 40
3.0
 40
3.0
 40
3.0
 40
4.0
 40
4.0
 40
4.0
 40
5.0
 40
5.0
 40
5.0
 40
6.0
 40
6.0
 40
6.0
 40
6.0
 10
138.6545738884822
 20
29.89667826886385
 10
138.6545738884822
 20
29.80134247506486
 10
138.6143966610955
 20
29.71213541086725
 10
138.5340422063221
 20
29.62905707627098
 10
138.4536877515486
 20
29.54597874167472
 10
138.3658426272624
 20
29.50443957437656
 10
138.2705068334634
 20
29.50443957437656
 10
138.1479322414362
 20
29.50443957437656
 10
138.0866449454225
 20
29.56572687039019
 10
138.0866449454225
 20
29.68830146241748
 10
138.0866449454225
 20
29.77818949657082
 10
138.1288650826764
 20
29.86467268094562
 10
138.2133053571841
 20
29.94775101554188
 10
138.2977456316917
 20
30.03082935013815
 10
138.3862717259337
 20
30.07236851743629
 10
138.4788836399098
 20
30.07236851743629
 10
138.5960104722915
 20
30.07236851743629
 10
138.6545738884822
 20
30.01380510124548
 10
138.6545738884822
 20
29.89667826886385
 97
        0
 97
        0
 92
        0
 93
        1
 72
     4
 94
        3
 73
     0
 74
     1
 95
       50
 96
       46
 40
0.0
 40
0.0
 40
0.0
 40
0.0
 40
1.0
 40
1.0
 40
1.0
 40
2.0
 40
2.0
 40
2.0
 40
3.0
 40
3.0
 40
3.0
 40
4.0
 40
4.0
 40
4.0
 40
5.0
 40
5.0
 40
5.0
 40
6.0
 40
6.0
 40
6.0
 40
7.0
 40
7.0
 40
7.0
 40
8.0
 40
8.0
 40
8.0
 40
9.0
 40
9.0
 40
9.0
 40
10.0
 40
10.0
 40
10.0
 40
11.0
 40
11.0
 40
11.0
 40
12.0
 40
12.0
 40
12.0
 40
13.0
 40
13.0
 40
13.0
 40
14.0
 40
14.0
 40
14.0
 40
15.0
 40
15.0
 40
15.0
 40
15.0
 10
138.7117753647616
 20
28.20719180875454
 10
138.7090514849388
 20
28.19902016928606
 10
138.6954320858247
 20
28.1771865700812
 10
138.6709171674192
 20
28.14169101113997
 10
138.6709171674192
 20
28.14169101113997
 10
138.4952269188468
 20
27.90030844215292
 10
138.4952269188468
 20
27.90030844215292
 10
137.9831375121551
 20
27.1883117928389
 10
137.5922607575792
 20
26.83231346818191
 10
137.3225966551192
 20
26.83231346818191
 10
137.1945743034462
 20
26.83231346818191
 10
137.0876620204002
 20
26.87793845521429
 10
137.0018598059811
 20
26.96918842927903
 10
136.916057591562
 20
27.06043840334378
 10
136.8731564843525
 20
27.17416038594688
 10
136.8731564843525
 20
27.3103543770883
 10
136.8731564843525
 20
27.46833940681235
 10
136.9671303382401
 20
27.70804083122124
 10
137.1550780460152
 20
28.02945865031499
 10
137.1550780460152
 20
28.02945865031499
 10
137.7924659245571
 20
29.11220087988927
 10
137.7924659245571
 20
29.11220087988927
 10
137.8769061990647
 20
29.09313372112949
 10
137.943641254724
 20
29.08360014174959
 10
137.992671091535
 20
29.08360014174959
 10
138.0662158467513
 20
29.08360014174959
 10
138.1697232800188
 20
29.09313372112949
 10
138.3031933913374
 20
29.11220087988927
 10
138.3031933913374
 20
29.11220087988927
 10
137.3757123116643
 20
27.58819011901679
 10
137.3757123116643
 20
27.58819011901679
 10
137.2422422003457
 20
27.36755585336768
 10
137.1755071446864
 20
27.19731336444092
 10
137.1755071446864
 20
27.07746265223646
 10
137.1755071446864
 20
26.95488806020919
 10
137.2395183205229
 20
26.89360076419554
 10
137.3675406721958
 20
26.89360076419554
 10
137.6099659764276
 20
26.89360076419554
 10
138.0362531687002
 20
27.32601668606955
 10
138.6464022490138
 20
28.19084852981757
 10
138.6600216481279
 20
28.21808732804587
 10
138.6736410472421
 20
28.23170672716
 10
138.6872604463562
 20
28.23170672716
 10
138.7036037252932
 20
28.23170672716
 10
138.7117753647616
 20
28.22353508769152
 10
138.7117753647616
 20
28.20719180875454
 97
        0
 97
        0
 75
     0
 76
     1
 98
        0
  0
HATCH
  5
7D
330
1F
100
AcDbEntity
  8
0
 62
    18
420
        0
440
 33554687
100
AcDbHatch
 10
0.0
 20
0.0
 30
0.0
210
0.0
220
0.0
230
1.0
  2
SOLID
 70
     1
 71
     1
 91
        1
 92
        0
 93
        1
 72
     4
 94
        3
 73
     0
 74
     1
 95
       98
 96
       94
 40
0.0
 40
0.0
 40
0.0
 40
0.0
 40
1.0
 40
1.0
 40
1.0
 40
2.0
 40
2.0
 40
2.0
 40
3.0
 40
3.0
 40
3.0
 40
4.0
 40
4.0
 40
4.0
 40
5.0
 40
5.0
 40
5.0
 40
6.0
 40
6.0
 40
6.0
 40
7.0
 40
7.0
 40
7.0
 40
8.0
 40
8.0
 40
8.0
 40
9.0
 40
9.0
 40
9.0
 40
10.0
 40
10.0
 40
10.0
 40
11.0
 40
11.0
 40
11.0
 40
12.0
 40
12.0
 40
12.0
 40
13.0
 40
13.0
 40
13.0
 40
14.0
 40
14.0
 40
14.0
 40
15.0
 40
15.0
 40
15.0
 40
16.0
 40
16.0
 40
16.0
 40
17.0
 40
17.0
 40
17.0
 40
18.0
 40
18.0
 40
18.0
 40
19.0
 40
19.0
 40
19.0
 40
20.0
 40
20.0
 40
20.0
 40
21.0
 40
21.0
 40
21.0
 40
22.0
 40
22.0
 40
22.0
 40
23.0
 40
23.0
 40
23.0
 40
24.0
 40
24.0
 40
24.0
 40
25.0
 40
25.0
 40
25.0
 40
26.0
 40
26.0
 40
26.0
 40
27.0
 40
27.0
 40
27.0
 40
28.0
 40
28.0
 40
28.0
 40
29.0
 40
29.0
 40
29.0
 40
30.0
 40
30.0
 40
30.0
 40
31.0
 40
31.0
 40
31.0
 40
31.0
 10
141.3307858144111
 20
28.21536344822303
 10
141.3307858144111
 20
28.19352984901816
 10
141.317166415297
 20
28.16897236999047
 10
141.2899276170687
 20
28.14169101113997
 10
141.2899276170687
 20
28.14169101113997
 10
141.1142373684963
 20
27.90030844215292
 10
141.1142373684963
 20
27.90030844215292
 10
140.6021479618045
 20
27.1883117928389
 10
140.2208047866086
 20
26.83231346818191
 10
139.9702078429083
 20
26.83231346818191
 10
139.8394616114126
 20
26.83231346818191
 10
139.7325493283666
 20
26.8793003951257
 10
139.6494709937703
 20
26.97327424901329
 10
139.5663926591741
 20
27.06724810290086
 10
139.5248534918759
 20
27.18505590523819
 10
139.5248534918759
 20
27.32669765602526
 10
139.5248534918759
 20
27.51736924362325
 10
139.6283609251434
 20
27.76660424741205
 10
139.8353757916784
 20
28.07440266739167
 10
140.1595174905949
 20
28.55108163638663
 10
140.3215883400532
 20
28.83436513796079
 10
140.3215883400532
 20
28.92425317211411
 10
140.3215883400532
 20
29.03048448520444
 10
140.2657488036852
 20
29.08360014174959
 10
140.1540697309493
 20
29.08360014174959
 10
139.9906369415796
 20
29.08360014174959
 10
139.7672787961076
 20
28.9228912322027
 10
139.4839952945335
 20
28.60147341310895
 10
139.2116073122507
 20
28.29367499312936
 10
138.8370738366118
 20
27.71076471104406
 10
138.3603948676168
 20
26.85274256685312
 10
138.2786784729319
 20
26.86908584579008
 10
138.2092195374498
 20
26.87725748525858
 10
138.1520180611704
 20
26.87725748525858
 10
138.0920927050682
 20
26.87725748525858
 10
138.0117382502947
 20
26.86908584579008
 10
137.9109546968501
 20
26.85274256685312
 10
137.9109546968501
 20
26.85274256685312
 10
138.5115701977837
 20
27.93957061616166
 10
138.5115701977837
 20
27.93957061616166
 10
138.5932865924686
 20
28.09483176606288
 10
138.7185850643187
 20
28.32363767118046
 10
138.8874656133341
 20
28.62598833151441
 10
138.9773536474874
 20
28.77307784194714
 10
139.2538274495045
 20
29.24158517147363
 10
139.7168870193853
 20
30.03151032009387
 10
139.7168870193853
 20
30.03151032009387
 10
140.3379316189902
 20
31.08565181152846
 10
140.3379316189902
 20
31.08565181152846
 10
140.419648013675
 20
31.06930853259148
 10
140.4891069491572
 20
31.06113689312301
 10
140.5463084254366
 20
31.06113689312301
 10
140.6552636183497
 20
31.06113689312301
 10
140.7587710516172
 20
31.07475629223715
 10
140.856830725239
 20
31.10199509046542
 10
140.5735472236648
 20
30.64710716005308
 10
140.1513458511264
 20
29.96613720434598
 10
139.5902266076238
 20
29.05908522334413
 10
139.5902266076238
 20
29.05908522334413
 10
138.9569245488162
 20
28.00494373190953
 10
138.9569245488162
 20
28.00494373190953
 10
139.4690139555079
 20
28.76490620247866
 10
139.873510109198
 20
29.14488743776322
 10
140.1704130098862
 20
29.14488743776322
 10
140.2875398422678
 20
29.14488743776322
 10
140.3876424257568
 20
29.0944956610409
 10
140.4707207603531
 20
28.99371210759624
 10
140.5537990949493
 20
28.8929285541516
 10
140.5953382622475
 20
28.7703539621243
 10
140.5953382622475
 20
28.62598833151441
 10
140.5953382622475
 20
28.43804062373925
 10
140.475487550043
 20
28.16701458136782
 10
140.2357861256341
 20
27.81291020440014
 10
139.9688459029969
 20
27.41794763009
 10
139.8353757916784
 20
27.17007456621263
 10
139.8353757916784
 20
27.06929101276798
 10
139.8353757916784
 20
26.95216418038635
 10
139.8939392078692
 20
26.89360076419554
 10
140.0110660402508
 20
26.89360076419554
 10
140.2235286664314
 20
26.89360076419554
 10
140.5749091635763
 20
27.23734162964982
 10
141.0652075316854
 20
27.92482336055838
 10
141.0652075316854
 20
27.92482336055838
 10
141.1918679434469
 20
28.1007689728642
 10
141.1918679434469
 20
28.1007689728642
 10
141.1918679434469
 20
28.1007689728642
 10
141.2654126986633
 20
28.19078468888424
 10
141.2654126986633
 20
28.19078468888424
 10
141.2790320977774
 20
28.21806604773474
 10
141.2953753767144
 20
28.23170672716
 10
141.3144425354742
 20
28.23170672716
 10
141.3253380547655
 20
28.23170672716
 10
141.3307858144111
 20
28.22625896751434
 10
141.3307858144111
 20
28.21536344822303
 97
        0
 97
        0
 75
     0
 76
     1
 98
        0
  0
HATCH
  5
7E
330
1F
100
AcDbEntity
  8
0
 62
    18
420
        0
440
 33554687
100
AcDbHatch
 10
0.0
 20
0.0
 30
0.0
210
0.0
220
0.0
230
1.0
  2
SOLID
 70
     1
 71
     1
 91
        1
 92
        0
 93
        1
 72
     4
 94
        3
 73
     0
 74
     1
 95
      104
 96
      100
 40
0.0
 40
0.0
 40
0.0
 40
0.0
 40
1.0
 40
1.0
 40
1.0
 40
2.0
 40
2.0
 40
2.0
 40
3.0
 40
3.0
 40
3.0
 40
4.0
 40
4.0
 40
4.0
 40
5.0
 40
5.0
 40
5.0
 40
6.0
 40
6.0
 40
6.0
 40
7.0
 40
7.0
 40
7.0
 40
8.0
 40
8.0
 40
8.0
 40
9.0
 40
9.0
 40
9.0
 40
10.0
 40
10.0
 40
10.0
 40
11.0
 40
11.0
 40
11.0
 40
12.0
 40
12.0
 40
12.0
 40
13.0
 40
13.0
 40
13.0
 40
14.0
 40
14.0
 40
14.0
 40
15.0
 40
15.0
 40
15.0
 40
16.0
 40
16.0
 40
16.0
 40
17.0
 40
17.0
 40
17.0
 40
18.0
 40
18.0
 40
18.0
 40
19.0
 40
19.0
 40
19.0
 40
20.0
 40
20.0
 40
20.0
 40
21.0
 40
21.0
 40
21.0
 40
22.0
 40
22.0
 40
22.0
 40
23.0
 40
23.0
 40
23.0
 40
24.0
 40
24.0
 40
24.0
 40
25.0
 40
25.0
 40
25.0
 40
26.0
 40
26.0
 40
26.0
 40
27.0
 40
27.0
 40
27.0
 40
28.0
 40
28.0
 40
28.0
 40
29.0
 40
29.0
 40
29.0
 40
30.0
 40
30.0
 40
30.0
 40
31.0
 40
31.0
 40
31.0
 40
32.0
 40
32.0
 40
32.0
 40
33.0
 40
33.0
 40
33.0
 40
33.0
 10
144.6116990610079
 20
28.20719180875454
 10
144.6116990610079
 20
28.14990521123069
 10
144.4142177738529
 20
27.88530582281624
 10
144.0192551995428
 20
27.41339364351123
 10
143.6951135006262
 20
27.02600685995834
 10
143.4404307371917
 20
26.83231346818191
 10
143.2552069092394
 20
26.83231346818191
 10
143.1326323172121
 20
26.83231346818191
 10
143.0298058539003
 20
26.87998136508141
 10
142.9467275193041
 20
26.97531715888039
 10
142.8636491847078
 20
27.07065295267938
 10
142.8221100174097
 20
27.18777978506101
 10
142.8221100174097
 20
27.32669765602526
 10
142.8221100174097
 20
27.44927224805254
 10
142.8473059057708
 20
27.56299423065562
 10
142.8976976824931
 20
27.66786360383452
 10
142.9480894592155
 20
27.77273297701342
 10
143.0795166606669
 20
27.98042881350408
 10
143.2919792868476
 20
28.29095111330652
 10
143.5126135524966
 20
28.61781669204593
 10
143.6229306853212
 20
28.82619349849229
 10
143.6229306853212
 20
28.91608153264563
 10
143.6229306853212
 20
29.0277606053816
 10
143.5643672691304
 20
29.08360014174959
 10
143.4472404367488
 20
29.08360014174959
 10
143.0495539826158
 20
29.08360014174959
 10
142.4366810224795
 20
28.34542870976308
 10
141.6086215563396
 20
26.86908584579008
 10
141.475151445021
 20
26.87998136508141
 10
141.3947969902476
 20
26.88542912472707
 10
141.3675581920193
 20
26.88542912472707
 10
141.2722223982203
 20
26.88542912472707
 10
141.182334364067
 20
26.87998136508141
 10
141.0978940895593
 20
26.86908584579008
 10
141.0978940895593
 20
26.86908584579008
 10
141.7352819681011
 20
27.87828332014803
 10
141.7352819681011
 20
27.87828332014803
 10
142.0975579845373
 20
28.45574584258763
 10
142.2786959927554
 20
28.81665991911241
 10
142.2786959927554
 20
28.96102554972231
 10
142.2786959927554
 20
29.04274194440717
 10
142.24464749497
 20
29.08360014174959
 10
142.1765504993993
 20
29.08360014174959
 10
142.0376326284351
 20
29.08360014174959
 10
141.7638827062408
 20
28.79012337115094
 10
141.3553007328166
 20
28.20316982995365
 10
141.3307858144111
 20
28.16771683163464
 10
141.3117186556513
 20
28.14862839256374
 10
141.2980992565372
 20
28.1459045127409
 10
141.284479857423
 20
28.1459045127409
 10
141.2763082179546
 20
28.15407615220938
 10
141.2735843381317
 20
28.17041943114637
 10
141.2763082179546
 20
28.18408139088272
 10
141.2817559776002
 20
28.19499819048517
 10
141.2899276170687
 20
28.20316982995365
 10
141.2899276170687
 20
28.20316982995365
 10
141.3675581920193
 20
28.30550684610976
 10
141.3675581920193
 20
28.30550684610976
 10
141.7843118049121
 20
28.86509390721207
 10
142.0648714266634
 20
29.14488743776322
 10
142.2092370572733
 20
29.14488743776322
 10
142.3018489712494
 20
29.14488743776322
 10
142.3808414861114
 20
29.10266730050937
 10
142.4462146018593
 20
29.01822702600171
 10
142.5115877176072
 20
28.93378675149401
 10
142.5442742754812
 20
28.83300319804937
 10
142.5442742754812
 20
28.71587636566775
 10
142.5442742754812
 20
28.54154805700672
 10
142.4421287821251
 20
28.29912275277501
 10
142.237837795413
 20
27.98860045297256
 10
142.5592556145067
 20
28.43259286409359
 10
142.8064477084284
 20
28.73630546433897
 10
142.979414077178
 20
28.89973825370868
 10
143.1523804459276
 20
29.06317104307837
 10
143.3124083855188
 20
29.14488743776322
 10
143.4594978959515
 20
29.14488743776322
 10
143.579348608156
 20
29.14488743776322
 10
143.6801321616006
 20
29.09585760095231
 10
143.7618485562855
 20
28.9977979273305
 10
143.8435649509703
 20
28.89973825370868
 10
143.8844231483127
 20
28.77852560159279
 10
143.8844231483127
 20
28.63415997098289
 10
143.8844231483127
 20
28.45166002285339
 10
143.7591246764626
 20
28.17246234101347
 10
143.5085277327624
 20
27.79656692546317
 10
143.2524830294165
 20
27.41249987044435
 10
143.1244606777436
 20
27.16735068638981
 10
143.1244606777436
 20
27.0611193732995
 10
143.1244606777436
 20
26.94944030056352
 10
143.1803002141116
 20
26.89360076419554
 10
143.2919792868476
 20
26.89360076419554
 10
143.5344045910793
 20
26.89360076419554
 10
143.9525201438834
 20
27.32601668606955
 10
144.54632594526
 20
28.19084852981757
 10
144.5599453443742
 20
28.21808732804587
 10
144.5735647434883
 20
28.23170672716
 10
144.5871841426025
 20
28.23170672716
 10
144.6035274215394
 20
28.23170672716
 10
144.6116990610079
 20
28.22353508769152
 10
144.6116990610079
 20
28.20719180875454
 97
        0
 97
        0
 75
     0
 76
     1
 98
        0
  0
HATCH
  5
7F
330
1F
100
AcDbEntity
  8
0
 62
    18
420
        0
440
 33554687
100
AcDbHatch
 10
0.0
 20
0.0
 30
0.0
210
0.0
220
0.0
230
1.0
  2
SOLID
 70
     1
 71
     1
 91
        2
 92
        0
 93
        1
 72
     4
 94
        3
 73
     0
 74
     1
 95
       74
 96
       70
 40
0.0
 40
0.0
 40
0.0
 40
0.0
 40
1.0
 40
1.0
 40
1.0
 40
2.0
 40
2.0
 40
2.0
 40
3.0
 40
3.0
 40
3.0
 40
4.0
 40
4.0
 40
4.0
 40
5.0
 40
5.0
 40
5.0
 40
6.0
 40
6.0
 40
6.0
 40
7.0
 40
7.0
 40
7.0
 40
8.0
 40
8.0
 40
8.0
 40
9.0
 40
9.0
 40
9.0
 40
10.0
 40
10.0
 40
10.0
 40
11.0
 40
11.0
 40
11.0
 40
12.0
 40
12.0
 40
12.0
 40
13.0
 40
13.0
 40
13.0
 40
14.0
 40
14.0
 40
14.0
 40
15.0
 40
15.0
 40
15.0
 40
16.0
 40
16.0
 40
16.0
 40
17.0
 40
17.0
 40
17.0
 40
18.0
 40
18.0
 40
18.0
 40
19.0
 40
19.0
 40
19.0
 40
20.0
 40
20.0
 40
20.0
 40
21.0
 40
21.0
 40
21.0
 40
22.0
 40
22.0
 40
22.0
 40
23.0
 40
23.0
 40
23.0
 40
23.0
 10
147.4840303341805
 20
28.20719180875454
 10
147.4840303341805
 20
28.14990521123069
 10
147.285187107114
 20
27.88530582281624
 10
146.8875006529811
 20
27.41339364351123
 10
146.5660828338873
 20
27.02600685995834
 10
146.3127620103643
 20
26.83231346818191
 10
146.1275381824119
 20
26.83231346818191
 10
146.0022397105618
 20
26.83231346818191
 10
145.9000942172057
 20
26.8793003951257
 10
145.8211017023438
 20
26.97327424901329
 10
145.7421091874817
 20
27.06724810290086
 10
145.7026129300507
 20
27.18505590523819
 10
145.7026129300507
 20
27.32669765602526
 10
145.7026129300507
 20
27.473787166458
 10
145.746195007216
 20
27.63313413609346
 10
145.8333591615465
 20
27.80473856493164
 10
145.5609711792636
 20
27.42339538973567
 10
145.3525943728173
 20
27.16598874647838
 10
145.2082287422074
 20
27.03251863515979
 10
145.0638631115974
 20
26.8990485238412
 10
144.9235833007218
 20
26.83231346818191
 10
144.7873893095804
 20
26.83231346818191
 10
144.6430236789705
 20
26.83231346818191
 10
144.5218110268546
 20
26.89428173415125
 10
144.4237513532328
 20
27.01821826608996
 10
144.3256916796109
 20
27.14215479802864
 10
144.2766618428001
 20
27.29809691788557
 10
144.2766618428001
 20
27.48604462566074
 10
144.2766618428001
 20
28.00902955164379
 10
144.6457475587933
 20
28.47208912152462
 10
145.3839189907798
 20
28.8752233353032
 10
145.7080606896964
 20
29.05499940360987
 10
145.9695531526879
 20
29.14488743776322
 10
146.1683963797544
 20
29.14488743776322
 10
146.3372769287697
 20
29.14488743776322
 10
146.4217172032774
 20
29.06317104307837
 10
146.4217172032774
 20
28.89973825370868
 10
146.4217172032774
 20
28.85343229672057
 10
146.4108216839861
 20
28.79214500070694
 10
146.3890306454035
 20
28.71587636566775
 10
146.3890306454035
 20
28.71587636566775
 10
146.5974074518498
 20
29.11220087988927
 10
146.5974074518498
 20
29.11220087988927
 10
146.6791238465347
 20
29.09313372112949
 10
146.7513066618396
 20
29.08360014174959
 10
146.8139558977647
 20
29.08360014174959
 10
146.8875006529811
 20
29.08360014174959
 10
146.9828364467801
 20
29.09313372112949
 10
147.0999632791617
 20
29.11220087988927
 10
147.0999632791617
 20
29.11220087988927
 10
146.3767731862008
 20
27.91505569775619
 10
146.3767731862008
 20
27.91505569775619
 10
146.1261762425005
 20
27.49557820504062
 10
146.0008777706504
 20
27.21910440302354
 10
146.0008777706504
 20
27.08563429170495
 10
146.0008777706504
 20
26.95761194003201
 10
146.0539934271956
 20
26.89360076419554
 10
146.1602247402859
 20
26.89360076419554
 10
146.269179933199
 20
26.89360076419554
 10
146.4435082418601
 20
27.01840978889
 10
146.6832096662689
 20
27.26802783827887
 10
146.9229110906778
 20
27.51764588766775
 10
147.166698334821
 20
27.82525278484732
 10
147.4145713986984
 20
28.19084852981757
 10
147.4309146776353
 20
28.21808732804587
 10
147.4458960166609
 20
28.23170672716
 10
147.459515415775
 20
28.23170672716
 10
147.475858694712
 20
28.23170672716
 10
147.4840303341805
 20
28.22353508769152
 10
147.4840303341805
 20
28.20719180875454
 97
        0
 97
        0
 92
        0
 93
        1
 72
     4
 94
        3
 73
     0
 74
     1
 95
       23
 96
       19
 40
0.0
 40
0.0
 40
0.0
 40
0.0
 40
1.0
 40
1.0
 40
1.0
 40
2.0
 40
2.0
 40
2.0
 40
3.0
 40
3.0
 40
3.0
 40
4.0
 40
4.0
 40
4.0
 40
5.0
 40
5.0
 40
5.0
 40
6.0
 40
6.0
 40
6.0
 40
6.0
 10
146.3604299072638
 20
28.88339497477169
 10
146.3604299072638
 20
29.01686508609028
 10
146.2991426112501
 20
29.08360014174959
 10
146.1765680192229
 20
29.08360014174959
 10
145.9259710755227
 20
29.08360014174959
 10
145.5970625869161
 20
28.83845095769502
 10
145.1898425534033
 20
28.34815258958591
 10
144.7826225198904
 20
27.8578542214768
 10
144.579012503134
 20
27.46152970725527
 10
144.579012503134
 20
27.15917904692132
 10
144.579012503134
 20
26.98212685843747
 10
144.658005017996
 20
26.89360076419554
 10
144.81599004772
 20
26.89360076419554
 10
145.0039377554952
 20
26.89360076419554
 10
145.3294413943232
 20
27.2054850039094
 10
145.7925009642041
 20
27.8292534833371
 10
146.1711202595772
 20
28.34134289002886
 10
146.3604299072638
 20
28.6927233871737
 10
146.3604299072638
 20
28.88339497477169
 97
        0
 97
        0
 75
     0
 76
     1
 98
        0
  0
HATCH
  5
80
330
1F
100
AcDbEntity
  8
0
 62
    18
420
        0
440
 33554687
100
AcDbHatch
 10
0.0
 20
0.0
 30
0.0
210
0.0
220
0.0
230
1.0
  2
SOLID
 70
     1
 71
     1
 91
        1
 92
        0
 93
        1
 72
     4
 94
        3
 73
     0
 74
     1
 95
       65
 96
       61
 40
0.0
 40
0.0
 40
0.0
 40
0.0
 40
1.0
 40
1.0
 40
1.0
 40
2.0
 40
2.0
 40
2.0
 40
3.0
 40
3.0
 40
3.0
 40
4.0
 40
4.0
 40
4.0
 40
5.0
 40
5.0
 40
5.0
 40
6.0
 40
6.0
 40
6.0
 40
7.0
 40
7.0
 40
7.0
 40
8.0
 40
8.0
 40
8.0
 40
9.0
 40
9.0
 40
9.0
 40
10.0
 40
10.0
 40
10.0
 40
11.0
 40
11.0
 40
11.0
 40
12.0
 40
12.0
 40
12.0
 40
13.0
 40
13.0
 40
13.0
 40
14.0
 40
14.0
 40
14.0
 40
15.0
 40
15.0
 40
15.0
 40
16.0
 40
16.0
 40
16.0
 40
17.0
 40
17.0
 40
17.0
 40
18.0
 40
18.0
 40
18.0
 40
19.0
 40
19.0
 40
19.0
 40
20.0
 40
20.0
 40
20.0
 40
20.0
 10
149.5187685618333
 20
28.20719180875454
 10
149.5187685618333
 20
28.17173881043554
 10
149.3267350343239
 20
27.94259242034011
 10
148.9426679793051
 20
27.51975263846822
 10
148.5231904865895
 20
27.06145985827735
 10
148.166362229799
 20
26.83231346818191
 10
147.8721832089335
 20
26.83231346818191
 10
147.6815116213355
 20
26.83231346818191
 10
147.5180788319658
 20
26.90517725344257
 10
147.3818848408244
 20
27.05090482396389
 10
147.245690849683
 20
27.19663239448519
 10
147.1775938541123
 20
27.37027973319053
 10
147.1775938541123
 20
27.57184684007983
 10
147.1775938541123
 20
27.80065274519741
 10
147.2702057680884
 20
28.03763028978348
 10
147.4554295960408
 20
28.28277947383802
 10
147.6406534239931
 20
28.52792865789259
 10
147.8898884277819
 20
28.73902934416179
 10
148.2031346074072
 20
28.91608153264563
 10
148.4673509502215
 20
29.06861880272403
 10
148.6825374562249
 20
29.14488743776322
 10
148.8486941254175
 20
29.14488743776322
 10
149.0502612323068
 20
29.14488743776322
 10
149.1510447857515
 20
29.02503672555876
 10
149.1510447857515
 20
28.78533530114987
 10
149.1510447857515
 20
28.59738759337471
 10
149.0877145798707
 20
28.40943988559955
 10
148.9610541681091
 20
28.22149217782439
 10
148.8343937563477
 20
28.03354447004922
 10
148.7084143145418
 20
27.93957061616166
 10
148.5831158426917
 20
27.93957061616166
 10
148.4605412506644
 20
27.93957061616166
 10
148.3992539546508
 20
28.00085791217529
 10
148.3992539546508
 20
28.12343250420257
 10
148.3992539546508
 20
28.26779813481247
 10
148.5245524265009
 20
28.40126824613105
 10
148.7751493702011
 20
28.52384283815834
 10
148.9685448376219
 20
28.61917863195734
 10
149.0652425713324
 20
28.74447710380744
 10
149.0652425713324
 20
28.89973825370868
 10
149.0652425713324
 20
29.02231284573594
 10
148.9985075156731
 20
29.08360014174959
 10
148.8650374043545
 20
29.08360014174959
 10
148.6389553790597
 20
29.08360014174959
 10
148.3611196371312
 20
28.85888005636623
 10
148.031530178569
 20
28.40943988559955
 10
147.7019407200067
 20
27.95999971483286
 10
147.5371459907256
 20
27.58274235937114
 10
147.5371459907256
 20
27.27766781921436
 10
147.5371459907256
 20
27.02162311586848
 10
147.6569967029301
 20
26.89360076419554
 10
147.896698127339
 20
26.89360076419554
 10
148.2725935428893
 20
26.89360076419554
 10
148.7819590697582
 20
27.31782376628995
 10
149.4247947079457
 20
28.16626977047876
 10
149.4602051456425
 20
28.20989440826627
 10
149.4860820039593
 20
28.23170672716
 10
149.5024252828963
 20
28.23170672716
 10
149.5133208021876
 20
28.22898284733716
 10
149.5187685618333
 20
28.22081120786869
 10
149.5187685618333
 20
28.20719180875454
 97
        0
 97
        0
 75
     0
 76
     1
 98
        0
  0
HATCH
  5
81
330
1F
100
AcDbEntity
  8
0
 62
    18
420
        0
440
 33554687
100
AcDbHatch
 10
0.0
 20
0.0
 30
0.0
210
0.0
220
0.0
230
1.0
  2
SOLID
 70
     1
 71
     1
 91
        1
 92
        0
 93
        1
 72
     4
 94
        3
 73
     0
 74
     1
 95
       98
 96
       94
 40
0.0
 40
0.0
 40
0.0
 40
0.0
 40
1.0
 40
1.0
 40
1.0
 40
2.0
 40
2.0
 40
2.0
 40
3.0
 40
3.0
 40
3.0
 40
4.0
 40
4.0
 40
4.0
 40
5.0
 40
5.0
 40
5.0
 40
6.0
 40
6.0
 40
6.0
 40
7.0
 40
7.0
 40
7.0
 40
8.0
 40
8.0
 40
8.0
 40
9.0
 40
9.0
 40
9.0
 40
10.0
 40
10.0
 40
10.0
 40
11.0
 40
11.0
 40
11.0
 40
12.0
 40
12.0
 40
12.0
 40
13.0
 40
13.0
 40
13.0
 40
14.0
 40
14.0
 40
14.0
 40
15.0
 40
15.0
 40
15.0
 40
16.0
 40
16.0
 40
16.0
 40
17.0
 40
17.0
 40
17.0
 40
18.0
 40
18.0
 40
18.0
 40
19.0
 40
19.0
 40
19.0
 40
20.0
 40
20.0
 40
20.0
 40
21.0
 40
21.0
 40
21.0
 40
22.0
 40
22.0
 40
22.0
 40
23.0
 40
23.0
 40
23.0
 40
24.0
 40
24.0
 40
24.0
 40
25.0
 40
25.0
 40
25.0
 40
26.0
 40
26.0
 40
26.0
 40
27.0
 40
27.0
 40
27.0
 40
28.0
 40
28.0
 40
28.0
 40
29.0
 40
29.0
 40
29.0
 40
30.0
 40
30.0
 40
30.0
 40
31.0
 40
31.0
 40
31.0
 40
31.0
 10
152.1296073720143
 20
28.21536344822303
 10
152.1296073720143
 20
28.19352984901816
 10
152.1159879729002
 20
28.16897236999047
 10
152.0887491746719
 20
28.14169101113997
 10
152.0887491746719
 20
28.14169101113997
 10
151.9130589260994
 20
27.90030844215292
 10
151.9130589260994
 20
27.90030844215292
 10
151.4009695194077
 20
27.1883117928389
 10
151.0196263442117
 20
26.83231346818191
 10
150.7690294005115
 20
26.83231346818191
 10
150.6382831690158
 20
26.83231346818191
 10
150.5313708859697
 20
26.8793003951257
 10
150.4482925513735
 20
26.97327424901329
 10
150.3652142167772
 20
27.06724810290086
 10
150.3236750494791
 20
27.18505590523819
 10
150.3236750494791
 20
27.32669765602526
 10
150.3236750494791
 20
27.51736924362325
 10
150.4271824827465
 20
27.76660424741205
 10
150.6341973492815
 20
28.07440266739167
 10
150.9583390481981
 20
28.55108163638663
 10
151.1204098976564
 20
28.83436513796079
 10
151.1204098976564
 20
28.92425317211411
 10
151.1204098976564
 20
29.03048448520444
 10
151.0645703612884
 20
29.08360014174959
 10
150.9528912885524
 20
29.08360014174959
 10
150.7894584991827
 20
29.08360014174959
 10
150.5661003537108
 20
28.9228912322027
 10
150.2828168521366
 20
28.60147341310895
 10
150.0104288698538
 20
28.29367499312936
 10
149.6358953942149
 20
27.71076471104406
 10
149.1592164252199
 20
26.85274256685312
 10
149.0775000305351
 20
26.86908584579008
 10
149.008041095053
 20
26.87725748525858
 10
148.9508396187736
 20
26.87725748525858
 10
148.8909142626713
 20
26.87725748525858
 10
148.8105598078979
 20
26.86908584579008
 10
148.7097762544533
 20
26.85274256685312
 10
148.7097762544533
 20
26.85274256685312
 10
149.3103917553869
 20
27.93957061616166
 10
149.3103917553869
 20
27.93957061616166
 10
149.3921081500717
 20
28.09483176606288
 10
149.5174066219219
 20
28.32363767118046
 10
149.6862871709372
 20
28.62598833151441
 10
149.7761752050906
 20
28.77307784194714
 10
150.0526490071076
 20
29.24158517147363
 10
150.5157085769885
 20
30.03151032009387
 10
150.5157085769885
 20
30.03151032009387
 10
151.1367531765934
 20
31.08565181152846
 10
151.1367531765934
 20
31.08565181152846
 10
151.2184695712782
 20
31.06930853259148
 10
151.2879285067603
 20
31.06113689312301
 10
151.3451299830397
 20
31.06113689312301
 10
151.4540851759529
 20
31.06113689312301
 10
151.5575926092203
 20
31.07475629223715
 10
151.6556522828422
 20
31.10199509046542
 10
151.372368781268
 20
30.64710716005308
 10
150.9501674087296
 20
29.96613720434598
 10
150.3890481652269
 20
29.05908522334413
 10
150.3890481652269
 20
29.05908522334413
 10
149.7557461064193
 20
28.00494373190953
 10
149.7557461064193
 20
28.00494373190953
 10
150.2678355131111
 20
28.76490620247866
 10
150.6723316668011
 20
29.14488743776322
 10
150.9692345674894
 20
29.14488743776322
 10
151.086361399871
 20
29.14488743776322
 10
151.18646398336
 20
29.0944956610409
 10
151.2695423179562
 20
28.99371210759624
 10
151.3526206525525
 20
28.8929285541516
 10
151.3941598198506
 20
28.7703539621243
 10
151.3941598198506
 20
28.62598833151441
 10
151.3941598198506
 20
28.43804062373925
 10
151.2743091076462
 20
28.16701458136782
 10
151.0346076832373
 20
27.81291020440014
 10
150.7676674606001
 20
27.41794763009
 10
150.6341973492815
 20
27.17007456621263
 10
150.6341973492815
 20
27.06929101276798
 10
150.6341973492815
 20
26.95216418038635
 10
150.6927607654723
 20
26.89360076419554
 10
150.809887597854
 20
26.89360076419554
 10
151.0223502240346
 20
26.89360076419554
 10
151.3737307211794
 20
27.23734162964982
 10
151.8640290892886
 20
27.92482336055838
 10
151.8640290892886
 20
27.92482336055838
 10
151.99068950105
 20
28.1007689728642
 10
151.99068950105
 20
28.1007689728642
 10
151.99068950105
 20
28.1007689728642
 10
152.0642342562664
 20
28.19078468888424
 10
152.0642342562664
 20
28.19078468888424
 10
152.0778536553806
 20
28.21806604773474
 10
152.0941969343175
 20
28.23170672716
 10
152.1132640930773
 20
28.23170672716
 10
152.1241596123686
 20
28.23170672716
 10
152.1296073720143
 20
28.22625896751434
 10
152.1296073720143
 20
28.21536344822303
 97
        0
 97
        0
 75
     0
 76
     1
 98
        0
  0
HATCH
  5
82
330
1F
100
AcDbEntity
  8
0
 62
    18
420
        0
440
 33554687
100
AcDbHatch
 10
0.0
 20
0.0
 30
0.0
210
0.0
220
0.0
230
1.0
  2
SOLID
 70
     1
 71
     1
 91
        1
 92
        0
 93
        1
 72
     4
 94
        3
 73
     0
 74
     1
 95
       74
 96
       70
 40
0.0
 40
0.0
 40
0.0
 40
0.0
 40
1.0
 40
1.0
 40
1.0
 40
2.0
 40
2.0
 40
2.0
 40
3.0
 40
3.0
 40
3.0
 40
4.0
 40
4.0
 40
4.0
 40
5.0
 40
5.0
 40
5.0
 40
6.0
 40
6.0
 40
6.0
 40
7.0
 40
7.0
 40
7.0
 40
8.0
 40
8.0
 40
8.0
 40
9.0
 40
9.0
 40
9.0
 40
10.0
 40
10.0
 40
10.0
 40
11.0
 40
11.0
 40
11.0
 40
12.0
 40
12.0
 40
12.0
 40
13.0
 40
13.0
 40
13.0
 40
14.0
 40
14.0
 40
14.0
 40
15.0
 40
15.0
 40
15.0
 40
16.0
 40
16.0
 40
16.0
 40
17.0
 40
17.0
 40
17.0
 40
18.0
 40
18.0
 40
18.0
 40
19.0
 40
19.0
 40
19.0
 40
20.0
 40
20.0
 40
20.0
 40
21.0
 40
21.0
 40
21.0
 40
22.0
 40
22.0
 40
22.0
 40
23.0
 40
23.0
 40
23.0
 40
23.0
 10
153.6454464934183
 20
29.14488743776322
 10
153.6454464934183
 20
29.14488743776322
 10
153.6127599355443
 20
29.08360014174959
 10
153.6127599355443
 20
29.08360014174959
 10
153.6127599355443
 20
29.08360014174959
 10
153.0775175503586
 20
29.08360014174959
 10
153.0775175503586
 20
29.08360014174959
 10
153.0775175503586
 20
29.08360014174959
 10
152.1663797496225
 20
27.52690282300316
 10
152.1663797496225
 20
27.52690282300316
 10
152.0547006768865
 20
27.33895511522799
 10
151.9988611405185
 20
27.18914172497244
 10
151.9988611405185
 20
27.07746265223646
 10
151.9988611405185
 20
26.95488806020919
 10
152.062872316355
 20
26.89360076419554
 10
152.1908946680279
 20
26.89360076419554
 10
152.4387677319053
 20
26.89360076419554
 10
152.8568832847095
 20
27.32601668606955
 10
153.4452413264404
 20
28.19084852981757
 10
153.4643084852002
 20
28.21808732804587
 10
153.4806517641371
 20
28.23170672716
 10
153.4942711632513
 20
28.23170672716
 10
153.5106144421883
 20
28.23170672716
 10
153.5187860816567
 20
28.22353508769152
 10
153.5187860816567
 20
28.20719180875454
 10
153.5160622018339
 20
28.19902016928606
 10
153.5024428027198
 20
28.1771865700812
 10
153.4779278843143
 20
28.14169101113997
 10
153.4779278843143
 20
28.14169101113997
 10
153.3022376357419
 20
27.90030844215292
 10
153.3022376357419
 20
27.90030844215292
 10
152.7901482290502
 20
27.1883117928389
 10
152.4047192341199
 20
26.83231346818191
 10
152.1459506509512
 20
26.83231346818191
 10
152.0179282992783
 20
26.83231346818191
 10
151.9110160162323
 20
26.87861942516999
 10
151.8252138018132
 20
26.97123133914616
 10
151.7394115873941
 20
27.06384325312233
 10
151.6965104801846
 20
27.17960814559254
 10
151.6965104801846
 20
27.31852601655677
 10
151.6965104801846
 20
27.48195880592648
 10
151.7686932954895
 20
27.68624979263861
 10
151.9130589260994
 20
27.93139897669317
 10
151.9130589260994
 20
27.93139897669317
 10
152.5994766414522
 20
29.08360014174959
 10
152.5994766414522
 20
29.08360014174959
 10
152.5994766414522
 20
29.08360014174959
 10
152.1827230285594
 20
29.08360014174959
 10
152.1827230285594
 20
29.08360014174959
 10
152.1827230285594
 20
29.08360014174959
 10
152.2235812259019
 20
29.14488743776322
 10
152.2235812259019
 20
29.14488743776322
 10
152.2235812259019
 20
29.14488743776322
 10
152.6321631993261
 20
29.14488743776322
 10
152.6321631993261
 20
29.14488743776322
 10
152.6321631993261
 20
29.14488743776322
 10
153.1102041082325
 20
29.93753646620628
 10
153.1102041082325
 20
29.93753646620628
 10
153.1919205029174
 20
29.91574542762366
 10
153.269551077868
 20
29.90484990833234
 10
153.3430958330843
 20
29.90484990833234
 10
153.4193644681235
 20
29.90484990833234
 10
153.4983569829855
 20
29.91574542762366
 10
153.5800733776704
 20
29.93753646620628
 10
153.5800733776704
 20
29.93753646620628
 10
153.1102041082325
 20
29.14488743776322
 10
153.1102041082325
 20
29.14488743776322
 10
153.1102041082325
 20
29.14488743776322
 10
153.6454464934183
 20
29.14488743776322
 10
153.6454464934183
 20
29.14488743776322
 97
        0
 97
        0
 75
     0
 76
     1
 98
        0
  0
HATCH
  5
83
330
1F
100
AcDbEntity
  8
0
 62
    18
420
        0
440
 33554687
100
AcDbHatch
 10
0.0
 20
0.0
 30
0.0
210
0.0
220
0.0
230
1.0
  2
SOLID
 70
     1
 71
     1
 91
        2
 92
        0
 93
        1
 72
     4
 94
        3
 73
     0
 74
     1
 95
       53
 96
       49
 40
0.0
 40
0.0
 40
0.0
 40
0.0
 40
1.0
 40
1.0
 40
1.0
 40
2.0
 40
2.0
 40
2.0
 40
3.0
 40
3.0
 40
3.0
 40
4.0
 40
4.0
 40
4.0
 40
5.0
 40
5.0
 40
5.0
 40
6.0
 40
6.0
 40
6.0
 40
7.0
 40
7.0
 40
7.0
 40
8.0
 40
8.0
 40
8.0
 40
9.0
 40
9.0
 40
9.0
 40
10.0
 40
10.0
 40
10.0
 40
11.0
 40
11.0
 40
11.0
 40
12.0
 40
12.0
 40
12.0
 40
13.0
 40
13.0
 40
13.0
 40
14.0
 40
14.0
 40
14.0
 40
15.0
 40
15.0
 40
15.0
 40
16.0
 40
16.0
 40
16.0
 40
16.0
 10
155.578039227715
 20
28.2031059890203
 10
155.578039227715
 20
28.1949343495518
 10
155.5535243093096
 20
28.15956647247728
 10
155.5044944724987
 20
28.0970023577967
 10
155.5044944724987
 20
28.0970023577967
 10
155.3288042239263
 20
27.87675113774766
 10
155.3288042239263
 20
27.87675113774766
 10
154.7649611006008
 20
27.18045935803717
 10
154.2814724320487
 20
26.83231346818191
 10
153.8783382182701
 20
26.83231346818191
 10
153.6876666306721
 20
26.83231346818191
 10
153.527638691081
 20
26.90109143370833
 10
153.3982543994966
 20
27.03864736476116
 10
153.2688701079123
 20
27.17620329581399
 10
153.2041779621201
 20
27.34848869460789
 10
153.2041779621201
 20
27.55550356114284
 10
153.2041779621201
 20
28.04580192925195
 10
153.5460248798851
 20
28.47753688117027
 10
154.229718715415
 20
28.85070841689775
 10
154.5892708520283
 20
29.0468277641414
 10
154.8820879329824
 20
29.14488743776322
 10
155.1081699582772
 20
29.14488743776322
 10
155.206229631899
 20
29.14488743776322
 10
155.2899889364509
 20
29.11560572966782
 10
155.3594478719331
 20
29.057042313477
 10
155.4289068074152
 20
28.99847889728619
 10
155.4636362751563
 20
28.92697705193696
 10
155.4636362751563
 20
28.84253677742927
 10
155.4636362751563
 20
28.64641743018562
 10
155.3356139234833
 20
28.47957979103739
 10
155.0795692201374
 20
28.34202385998455
 10
154.8235245167916
 20
28.20446792893171
 10
154.3958753846075
 20
28.07576460730307
 10
153.7966218235853
 20
27.95591389509862
 10
153.611397995633
 20
27.6753542733473
 10
153.5187860816568
 20
27.44110060858407
 10
153.5187860816568
 20
27.2531529008089
 10
153.5187860816568
 20
27.01889923604566
 10
153.6454464934183
 20
26.90177240366403
 10
153.8987673169413
 20
26.90177240366403
 10
154.3291403289482
 20
26.90177240366403
 10
154.8562110746655
 20
27.32195214664642
 10
155.4799795540932
 20
28.16231163261124
 10
155.5126661119672
 20
28.20585114915424
 10
155.5399049101954
 20
28.22762090742575
 10
155.5616959487781
 20
28.22762090742575
 10
155.5725914680694
 20
28.22489702760292
 10
155.578039227715
 20
28.21672538813444
 10
155.578039227715
 20
28.2031059890203
 97
        0
 97
        0
 92
        0
 93
        1
 72
     4
 94
        3
 73
     0
 74
     1
 95
       20
 96
       16
 40
0.0
 40
0.0
 40
0.0
 40
0.0
 40
1.0
 40
1.0
 40
1.0
 40
2.0
 40
2.0
 40
2.0
 40
3.0
 40
3.0
 40
3.0
 40
4.0
 40
4.0
 40
4.0
 40
5.0
 40
5.0
 40
5.0
 40
5.0
 10
155.2348303700387
 20
28.96102554972231
 10
155.2348303700387
 20
29.04818970405282
 10
155.1871624731392
 20
29.09177178121807
 10
155.0918266793402
 20
29.09177178121807
 10
154.9474610487303
 20
29.09177178121807
 10
154.757470431088
 20
28.99166919772912
 10
154.5218548264133
 20
28.79146403075124
 10
154.2862392217387
 20
28.59125886377335
 10
154.055390406754
 20
28.33180931064895
 10
153.8293083814592
 20
28.01311537137802
 10
154.2215470759465
 20
28.11389892482266
 10
154.5538604143316
 20
28.25622164556546
 10
154.8262483966144
 20
28.44008353360637
 10
155.0986363788973
 20
28.62394542164729
 10
155.2348303700387
 20
28.7975927603526
 10
155.2348303700387
 20
28.96102554972231
 97
        0
 97
        0
 75
     0
 76
     1
 98
        0
  0
HATCH
  5
84
330
1F
100
AcDbEntity
  8
0
 62
    18
420
        0
440
 33554687
100
AcDbHatch
 10
0.0
 20
0.0
 30
0.0
210
0.0
220
0.0
230
1.0
  2
SOLID
 70
     1
 71
     1
 91
        1
 92
        0
 93
        1
 72
     4
 94
        3
 73
     0
 74
     1
 95
      104
 96
      100
 40
0.0
 40
0.0
 40
0.0
 40
0.0
 40
1.0
 40
1.0
 40
1.0
 40
2.0
 40
2.0
 40
2.0
 40
3.0
 40
3.0
 40
3.0
 40
4.0
 40
4.0
 40
4.0
 40
5.0
 40
5.0
 40
5.0
 40
6.0
 40
6.0
 40
6.0
 40
7.0
 40
7.0
 40
7.0
 40
8.0
 40
8.0
 40
8.0
 40
9.0
 40
9.0
 40
9.0
 40
10.0
 40
10.0
 40
10.0
 40
11.0
 40
11.0
 40
11.0
 40
12.0
 40
12.0
 40
12.0
 40
13.0
 40
13.0
 40
13.0
 40
14.0
 40
14.0
 40
14.0
 40
15.0
 40
15.0
 40
15.0
 40
16.0
 40
16.0
 40
16.0
 40
17.0
 40
17.0
 40
17.0
 40
18.0
 40
18.0
 40
18.0
 40
19.0
 40
19.0
 40
19.0
 40
20.0
 40
20.0
 40
20.0
 40
21.0
 40
21.0
 40
21.0
 40
22.0
 40
22.0
 40
22.0
 40
23.0
 40
23.0
 40
23.0
 40
24.0
 40
24.0
 40
24.0
 40
25.0
 40
25.0
 40
25.0
 40
26.0
 40
26.0
 40
26.0
 40
27.0
 40
27.0
 40
27.0
 40
28.0
 40
28.0
 40
28.0
 40
29.0
 40
29.0
 40
29.0
 40
30.0
 40
30.0
 40
30.0
 40
31.0
 40
31.0
 40
31.0
 40
32.0
 40
32.0
 40
32.0
 40
33.0
 40
33.0
 40
33.0
 40
33.0
 10
158.8507808348434
 20
28.20719180875454
 10
158.8507808348434
 20
28.14990521123069
 10
158.6532995476883
 20
27.88530582281624
 10
158.2583369733782
 20
27.41339364351123
 10
157.9341952744616
 20
27.02600685995834
 10
157.6795125110272
 20
26.83231346818191
 10
157.4942886830748
 20
26.83231346818191
 10
157.3717140910475
 20
26.83231346818191
 10
157.2688876277358
 20
26.87998136508141
 10
157.1858092931395
 20
26.97531715888039
 10
157.1027309585432
 20
27.07065295267938
 10
157.0611917912451
 20
27.18777978506101
 10
157.0611917912451
 20
27.32669765602526
 10
157.0611917912451
 20
27.44927224805254
 10
157.0863876796063
 20
27.56299423065562
 10
157.1367794563286
 20
27.66786360383452
 10
157.1871712330509
 20
27.77273297701342
 10
157.3185984345024
 20
27.98042881350408
 10
157.531061060683
 20
28.29095111330652
 10
157.7516953263321
 20
28.61781669204593
 10
157.8620124591566
 20
28.82619349849229
 10
157.8620124591566
 20
28.91608153264563
 10
157.8620124591566
 20
29.0277606053816
 10
157.8034490429658
 20
29.08360014174959
 10
157.6863222105842
 20
29.08360014174959
 10
157.2886357564513
 20
29.08360014174959
 10
156.6757627963149
 20
28.34542870976308
 10
155.8477033301751
 20
26.86908584579008
 10
155.7142332188564
 20
26.87998136508141
 10
155.633878764083
 20
26.88542912472707
 10
155.6066399658548
 20
26.88542912472707
 10
155.5113041720558
 20
26.88542912472707
 10
155.4214161379024
 20
26.87998136508141
 10
155.3369758633947
 20
26.86908584579008
 10
155.3369758633947
 20
26.86908584579008
 10
155.9743637419366
 20
27.87828332014803
 10
155.9743637419366
 20
27.87828332014803
 10
156.3366397583727
 20
28.45574584258763
 10
156.5177777665908
 20
28.81665991911241
 10
156.5177777665908
 20
28.96102554972231
 10
156.5177777665908
 20
29.04274194440717
 10
156.4837292688055
 20
29.08360014174959
 10
156.4156322732348
 20
29.08360014174959
 10
156.2767144022705
 20
29.08360014174959
 10
156.0029644800763
 20
28.79012337115094
 10
155.594382506652
 20
28.20316982995365
 10
155.5698675882466
 20
28.16771683163464
 10
155.5508004294867
 20
28.14862839256374
 10
155.5371810303726
 20
28.1459045127409
 10
155.5235616312585
 20
28.1459045127409
 10
155.51538999179
 20
28.15407615220938
 10
155.5126661119671
 20
28.17041943114637
 10
155.51538999179
 20
28.18408139088272
 10
155.5208377514356
 20
28.19499819048517
 10
155.5290093909041
 20
28.20316982995365
 10
155.5290093909041
 20
28.20316982995365
 10
155.6066399658548
 20
28.30550684610976
 10
155.6066399658548
 20
28.30550684610976
 10
156.0233935787475
 20
28.86509390721207
 10
156.3039532004988
 20
29.14488743776322
 10
156.4483188311087
 20
29.14488743776322
 10
156.5409307450849
 20
29.14488743776322
 10
156.6199232599469
 20
29.10266730050937
 10
156.6852963756948
 20
29.01822702600171
 10
156.7506694914427
 20
28.93378675149401
 10
156.7833560493166
 20
28.83300319804937
 10
156.7833560493166
 20
28.71587636566775
 10
156.7833560493166
 20
28.54154805700672
 10
156.6812105559605
 20
28.29912275277501
 10
156.4769195692484
 20
27.98860045297256
 10
156.7983373883422
 20
28.43259286409359
 10
157.0455294822638
 20
28.73630546433897
 10
157.2184958510134
 20
28.89973825370868
 10
157.391462219763
 20
29.06317104307837
 10
157.5514901593542
 20
29.14488743776322
 10
157.6985796697869
 20
29.14488743776322
 10
157.8184303819914
 20
29.14488743776322
 10
157.919213935436
 20
29.09585760095231
 10
158.0009303301209
 20
28.9977979273305
 10
158.0826467248058
 20
28.89973825370868
 10
158.1235049221482
 20
28.77852560159279
 10
158.1235049221482
 20
28.63415997098289
 10
158.1235049221482
 20
28.45166002285339
 10
157.9982064502981
 20
28.17246234101347
 10
157.7476095065979
 20
27.79656692546317
 10
157.491564803252
 20
27.41249987044435
 10
157.363542451579
 20
27.16735068638981
 10
157.363542451579
 20
27.0611193732995
 10
157.363542451579
 20
26.94944030056352
 10
157.419381987947
 20
26.89360076419554
 10
157.531061060683
 20
26.89360076419554
 10
157.7734863649147
 20
26.89360076419554
 10
158.1916019177189
 20
27.32601668606955
 10
158.7854077190955
 20
28.19084852981757
 10
158.7990271182096
 20
28.21808732804587
 10
158.8126465173237
 20
28.23170672716
 10
158.8262659164379
 20
28.23170672716
 10
158.8426091953749
 20
28.23170672716
 10
158.8507808348434
 20
28.22353508769152
 10
158.8507808348434
 20
28.20719180875454
 97
        0
 97
        0
 75
     0
 76
     1
 98
        0
  0
VIEWPORT
  5
89
330
85
100
AcDbEntity
 67
     1
  8
0
100
AcDbViewport
 10
128.5
 20
97.5
 30
0.0
 40
314.226
 41
222.18
 68
     1
 69
     1
 12
70.0
 22
100.0
 13
0.0
 23
0.0
 14
10.0
 24
10.0
 15
10.0
 25
10.0
 16
0.0
 26
0.0
 36
1.0
 17
0.0
 27
0.0
 37
0.0
 42
50.0
 43
0.0
 44
0.0
 45
222.18
 50
0.0
 51
0.0
 72
   100
 90
   557152
  1

281
     0
 71
     1
 74
     0
110
0.0
120
0.0
130
0.0
111
1.0
121
0.0
131
0.0
112
0.0
122
1.0
132
0.0
 79
     0
146
0.0
170
     0
 61
     5
348
2F
292
     1
282
     1
141
0.0
142
0.0
 63
   256
361
8A
  0
VIEWPORT
  5
8B
330
85
100
AcDbEntity
 67
     1
  8
0
100
AcDbViewport
 10
100.0
 20
70.0
 30
0.0
 40
200.0
 41
140.0
 68
     2
 69
     2
 12
100.0
 22
70.0
 13
0.0
 23
0.0
 14
10.0
 24
10.0
 15
10.0
 25
10.0
 16
0.0
 26
0.0
 36
1.0
 17
0.0
 27
0.0
 37
0.0
 42
50.0
 43
0.0
 44
0.0
 45
140.0
 50
0.0
 51
0.0
 72
   100
 90
   557152
  1

281
     0
 71
     1
 74
     0
110
0.0
120
0.0
130
0.0
111
1.0
121
0.0
131
0.0
112
0.0
122
1.0
132
0.0
 79
     0
146
0.0
170
     0
 61
     5
348
2F
292
     1
282
     1
141
0.0
142
0.0
 63
   256
361
8C
  0
ENDSEC
  0
SECTION
  2
OBJECTS
  0
DICTIONARY
  5
C
330
0
100
AcDbDictionary
281
     1
  3
ACAD_DETAILVIEWSTYLE
350
94
  3
ACAD_GROUP
350
D
  3
ACAD_LAYOUT
350
1A
  3
ACAD_MATERIAL
350
43
  3
ACAD_MLEADERSTYLE
350
5B
  3
ACAD_MLINESTYLE
350
17
  3
ACAD_PLOTSETTINGS
350
19
  3
ACAD_PLOTSTYLENAME
350
E
  3
ACAD_SCALELIST
350
47
  3
ACAD_SECTIONVIEWSTYLE
350
95
  3
ACAD_TABLESTYLE
350
59
  3
ACAD_VISUALSTYLE
350
2A
  3
ACDB_RECOMPOSE_DATA
350
91
  3
AcDbVariableDictionary
350
8D
  0
SUN
  5
5D
330
29
100
AcDbSun
 90
        1
290
     0
 63
     7
421
 16777215
 40
1.0
291
     1
 91
  2455826
 92
 54000000
292
     0
 70
     2
 71
   256
280
     1
  0
SUN
  5
8A
330
89
100
AcDbSun
 90
        1
290
     0
 63
     7
421
 16777215
 40
1.0
291
     1
 91
  2455826
 92
 54000000
292
     0
 70
     2
 71
   256
280
     1
  0
SUN
  5
8C
330
8B
100
AcDbSun
 90
        1
290
     0
 63
     7
421
 16777215
 40
1.0
291
     1
 91
  2455826
 92
 54000000
292
     0
 70
     2
 71
   256
280
     1
  0
DICTIONARY
  5
94
102
{ACAD_REACTORS
330
C
102
}
330
C
100
AcDbDictionary
281
     1
  0
DICTIONARY
  5
D
102
{ACAD_REACTORS
330
C
102
}
330
C
100
AcDbDictionary
281
     1
  0
DICTIONARY
  5
1A
102
{ACAD_REACTORS
330
C
102
}
330
C
100
AcDbDictionary
281
     1
  3
Layout1
350
86
  3
Model
350
22
  0
DICTIONARY
  5
43
102
{ACAD_REACTORS
330
C
102
}
330
C
100
AcDbDictionary
281
     1
  3
ByBlock
350
45
  3
ByLayer
350
44
  3
Global
350
46
  0
DICTIONARY
  5
5B
102
{ACAD_REACTORS
330
C
102
}
330
C
100
AcDbDictionary
281
     1
  3
Standard
350
5C
  0
DICTIONARY
  5
17
102
{ACAD_REACTORS
330
C
102
}
330
C
100
AcDbDictionary
281
     1
  3
Standard
350
18
  0
DICTIONARY
  5
19
102
{ACAD_REACTORS
330
C
102
}
330
C
100
AcDbDictionary
281
     1
  0
ACDBDICTIONARYWDFLT
  5
E
102
{ACAD_REACTORS
330
C
102
}
330
C
100
AcDbDictionary
281
     1
  3
Normal
350
F
100
AcDbDictionaryWithDefault
340
F
  0
DICTIONARY
  5
47
102
{ACAD_REACTORS
330
C
102
}
330
C
100
AcDbDictionary
281
     1
  3
A0
350
48
  3
A1
350
49
  3
A2
350
4A
  3
A3
350
4B
  3
A4
350
4C
  3
A5
350
4D
  3
A6
350
4E
  3
A7
350
4F
  3
A8
350
50
  3
A9
350
51
  3
B0
350
52
  3
B1
350
53
  3
B2
350
54
  3
B3
350
55
  3
B4
350
56
  3
B5
350
57
  3
B6
350
58
  0
DICTIONARY
  5
95
102
{ACAD_REACTORS
330
C
102
}
330
C
100
AcDbDictionary
281
     1
  0
DICTIONARY
  5
59
102
{ACAD_REACTORS
330
C
102
}
330
C
100
AcDbDictionary
281
     1
  3
Standard
350
5A
  0
DICTIONARY
  5
2A
102
{ACAD_REACTORS
330
C
102
}
330
C
100
AcDbDictionary
281
     1
  3
2dWireframe
350
2F
  3
Basic
350
32
  3
Brighten
350
36
  3
ColorChange
350
3A
  3
Conceptual
350
34
  3
Dim
350
35
  3
EdgeColorOff
350
3D
  3
Facepattern
350
39
  3
Flat
350
2B
  3
FlatWithEdges
350
2C
  3
Gouraud
350
2D
  3
GouraudWithEdges
350
2E
  3
Hidden
350
31
  3
JitterOff
350
3B
  3
Linepattern
350
38
  3
OverhangOff
350
3C
  3
Realistic
350
33
  3
Shaded
350
42
  3
Shaded with edges
350
41
  3
Shades of Gray
350
3E
  3
Sketchy
350
3F
  3
Thicken
350
37
  3
Wireframe
350
30
  3
X-Ray
350
40
  0
XRECORD
  5
91
102
{ACAD_REACTORS
330
C
102
}
330
C
100
AcDbXrecord
280
     1
 90
        1
330
5A
  0
DICTIONARY
  5
8D
102
{ACAD_REACTORS
330
C
102
}
330
C
100
AcDbDictionary
281
     1
  3
CANNOSCALE
350
8E
  3
CENTEREXE
350
96
  3
CENTERLTYPEFILE
350
97
  3
CMLEADERSTYLE
350
93
  3
CTABLESTYLE
350
92
  0
LAYOUT
  5
86
102
{ACAD_REACTORS
330
1A
102
}
330
1A
100
AcDbPlotSettings
  1

  2
none_device
  4
ISO_A4_(210.00_x_297.00_MM)
  6

 40
0.0
 41
0.0
 42
0.0
 43
0.0
 44
140.0
 45
200.0
 46
0.0
 47
0.0
 48
0.0
 49
0.0
140
0.0
141
0.0
142
1.0
143
1.0
 70
   688
 72
     1
 73
     3
 74
     5
  7

 75
    16
 76
     0
 77
     2
 78
   300
147
1.0
148
0.0
149
0.0
100
AcDbLayout
  1
Layout1
 70
     1
 71
     1
 10
-20.0
 20
-7.5
 11
277.0
 21
202.5
 12
0.0
 22
0.0
 32
0.0
 14
140.0
 24
200.0
 34
0.0
 15
0.0
 25
0.0
 35
0.0
146
0.0
 13
0.0
 23
0.0
 33
0.0
 16
1.0
 26
0.0
 36
0.0
 17
0.0
 27
1.0
 37
0.0
 76
     0
330
85
331
89
  0
LAYOUT
  5
22
102
{ACAD_REACTORS
330
1A
102
}
330
1A
100
AcDbPlotSettings
  1

  2
none_device
  4
Letter_(8.50_x_11.00_Inches)
  6

 40
6.35
 41
6.35
 42
6.35000508
 43
6.35000508
 44
215.9
 45
279.4
 46
0.0
 47
0.0
 48
0.0
 49
0.0
140
0.0
141
0.0
142
1.0
143
1.0
 70
  1712
 72
     1
 73
     0
 74
     0
  7

 75
     0
 76
     0
 77
     2
 78
   300
147
1.0
148
0.0
149
0.0
100
AcDbLayout
  1
Model
 70
     1
 71
     0
 10
0.0
 20
0.0
 11
420.0
 21
297.0
 12
0.0
 22
0.0
 32
0.0
 14
1.000000000000000E+20
 24
1.000000000000000E+20
 34
1.000000000000000E+20
 15
-1.000000000000000E+20
 25
-1.000000000000000E+20
 35
-1.000000000000000E+20
146
0.0
 13
0.0
 23
0.0
 33
0.0
 16
1.0
 26
0.0
 36
0.0
 17
0.0
 27
1.0
 37
0.0
 76
     0
330
1F
331
29
  0
MATERIAL
  5
45
102
{ACAD_REACTORS
330
43
102
}
330
43
100
AcDbMaterial
  1
ByBlock
 72
     1
 94
      127
  0
MATERIAL
  5
44
102
{ACAD_REACTORS
330
43
102
}
330
43
100
AcDbMaterial
  1
ByLayer
 72
     1
 94
      127
  0
MATERIAL
  5
46
102
{ACAD_REACTORS
330
43
102
}
330
43
100
AcDbMaterial
  1
Global
 72
     1
 94
      127
  0
MLEADERSTYLE
  5
5C
102
{ACAD_REACTORS
330
5B
102
}
330
5B
100
AcDbMLeaderStyle
179
     2
170
     2
171
     1
172
     0
 90
        2
 40
0.0
 41
0.0
173
     1
 91
-1056964608
340
14
 92
       -2
290
     1
 42
2.0
291
     1
 43
8.0
  3
Standard
341
0
 44
4.0
300

342
11
174
     1
178
     6
175
     1
176
     0
 93
-1056964608
 45
4.0
292
     0
297
     0
 46
4.0
343
0
 94
-1056964608
 47
1.0
 49
1.0
140
1.0
293
     1
141
0.0
294
     1
177
     0
142
1.0
295
     0
296
     0
143
3.75
271
     0
272
     9
273
     9
298
     0
  0
MLINESTYLE
  5
18
102
{ACAD_REACTORS
330
17
102
}
330
17
100
AcDbMlineStyle
  2
Standard
 70
     0
  3

 62
   256
 51
90.0
 52
90.0
 71
     2
 49
0.5
 62
   256
  6
BYLAYER
 49
-0.5
 62
   256
  6
BYLAYER
  0
ACDBPLACEHOLDER
  5
F
102
{ACAD_REACTORS
330
E
102
}
330
E
  0
SCALE
  5
48
102
{ACAD_REACTORS
330
47
102
}
330
47
100
AcDbScale
 70
     0
300
1:1
140
1.0
141
1.0
290
     1
  0
SCALE
  5
49
102
{ACAD_REACTORS
330
47
102
}
330
47
100
AcDbScale
 70
     0
300
1:2
140
1.0
141
2.0
290
     0
  0
SCALE
  5
4A
102
{ACAD_REACTORS
330
47
102
}
330
47
100
AcDbScale
 70
     0
300
1:4
140
1.0
141
4.0
290
     0
  0
SCALE
  5
4B
102
{ACAD_REACTORS
330
47
102
}
330
47
100
AcDbScale
 70
     0
300
1:5
140
1.0
141
5.0
290
     0
  0
SCALE
  5
4C
102
{ACAD_REACTORS
330
47
102
}
330
47
100
AcDbScale
 70
     0
300
1:8
140
1.0
141
8.0
290
     0
  0
SCALE
  5
4D
102
{ACAD_REACTORS
330
47
102
}
330
47
100
AcDbScale
 70
     0
300
1:10
140
1.0
141
10.0
290
     0
  0
SCALE
  5
4E
102
{ACAD_REACTORS
330
47
102
}
330
47
100
AcDbScale
 70
     0
300
1:16
140
1.0
141
16.0
290
     0
  0
SCALE
  5
4F
102
{ACAD_REACTORS
330
47
102
}
330
47
100
AcDbScale
 70
     0
300
1:20
140
1.0
141
20.0
290
     0
  0
SCALE
  5
50
102
{ACAD_REACTORS
330
47
102
}
330
47
100
AcDbScale
 70
     0
300
1:30
140
1.0
141
30.0
290
     0
  0
SCALE
  5
51
102
{ACAD_REACTORS
330
47
102
}
330
47
100
AcDbScale
 70
     0
300
1:40
140
1.0
141
40.0
290
     0
  0
SCALE
  5
52
102
{ACAD_REACTORS
330
47
102
}
330
47
100
AcDbScale
 70
     0
300
1:50
140
1.0
141
50.0
290
     0
  0
SCALE
  5
53
102
{ACAD_REACTORS
330
47
102
}
330
47
100
AcDbScale
 70
     0
300
1:100
140
1.0
141
100.0
290
     0
  0
SCALE
  5
54
102
{ACAD_REACTORS
330
47
102
}
330
47
100
AcDbScale
 70
     0
300
2:1
140
2.0
141
1.0
290
     0
  0
SCALE
  5
55
102
{ACAD_REACTORS
330
47
102
}
330
47
100
AcDbScale
 70
     0
300
4:1
140
4.0
141
1.0
290
     0
  0
SCALE
  5
56
102
{ACAD_REACTORS
330
47
102
}
330
47
100
AcDbScale
 70
     0
300
8:1
140
8.0
141
1.0
290
     0
  0
SCALE
  5
57
102
{ACAD_REACTORS
330
47
102
}
330
47
100
AcDbScale
 70
     0
300
10:1
140
10.0
141
1.0
290
     0
  0
SCALE
  5
58
102
{ACAD_REACTORS
330
47
102
}
330
47
100
AcDbScale
 70
     0
300
100:1
140
100.0
141
1.0
290
     0
  0
TABLESTYLE
  5
5A
102
{ACAD_REACTORS
330
59
102
}
102
{ACAD_XDICTIONARY
360
8F
102
}
330
59
100
AcDbTableStyle
  3
Standard
 70
     0
 71
     0
 40
0.06
 41
0.06
280
     0
281
     0
  7
Standard
140
4.5
170
     2
 62
     0
 63
   257
283
     0
 90
        4
 91
        0
  1

274
    -2
284
     1
 64
     0
275
    -2
285
     1
 65
     0
276
    -2
286
     1
 66
     0
277
    -2
287
     1
 67
     0
278
    -2
288
     1
 68
     0
279
    -2
289
     1
 69
     0
  7
Standard
140
6.0
170
     5
 62
     0
 63
   257
283
     0
 90
        4
 91
        0
  1

274
    -2
284
     1
 64
     0
275
    -2
285
     1
 65
     0
276
    -2
286
     1
 66
     0
277
    -2
287
     1
 67
     0
278
    -2
288
     1
 68
     0
279
    -2
289
     1
 69
     0
  7
Standard
140
4.5
170
     5
 62
     0
 63
   257
283
     0
 90
        4
 91
        0
  1

274
    -2
284
     1
 64
     0
275
    -2
285
     1
 65
     0
276
    -2
286
     1
 66
     0
277
    -2
287
     1
 67
     0
278
    -2
288
     1
 68
     0
279
    -2
289
     1
 69
     0
  0
VISUALSTYLE
  5
2F
102
{ACAD_REACTORS
330
2A
102
}
330
2A
100
AcDbVisualStyle
  2
2dWireframe
 70
     4
177
     3
291
     0
 70
    58
 90
        0
176
     1
 90
        2
176
     1
 90
        0
176
     1
 90
        0
176
     1
 40
0.6
176
     1
 40
30.0
176
     1
 62
     7
420
 16777215
176
     1
 90
        1
176
     1
 90
        4
176
     1
 62
     7
176
     1
 62
   257
176
     1
 90
        1
176
     1
 90
        1
176
     1
 40
1.0
176
     1
 90
        0
176
     1
 62
   257
176
     1
 40
1.0
176
     1
 90
        1
176
     1
 90
        6
176
     1
 90
        2
176
     1
 62
     7
176
     1
 90
        5
176
     1
 90
        0
176
     1
 90
        0
176
     1
290
     0
176
     1
 90
        1
176
     1
 40
0.0
176
     1
 90
        0
176
     1
290
     1
176
     1
290
     1
176
     1
290
     0
176
     1
290
     0
176
     1
290
     0
176
     1
290
     0
176
     1
290
     0
176
     1
290
     0
176
     1
290
     0
176
     1
 90
       50
176
     1
 40
0.0
176
     1
 40
1.0
176
     1
 90
        0
176
     1
 62
    18
420
        0
176
     1
 90
       50
176
     1
 90
        3
176
     1
 62
     5
420
      255
176
     1
290
     0
176
     1
 90
       50
176
     1
 90
       50
176
     1
 90
       50
176
     1
290
     0
176
     1
 90
       50
176
     1
 62
   256
176
     0
 40
1.0
176
     0
 90
        2
176
     1
  1
strokes_ogs.tif
176
     1
290
     0
176
     1
 40
1.0
176
     1
 40
1.0
176
     1
  0
VISUALSTYLE
  5
32
102
{ACAD_REACTORS
330
2A
102
}
330
2A
100
AcDbVisualStyle
  2
Basic
 70
     7
177
     3
291
     1
 70
    58
 90
        1
176
     1
 90
        0
176
     1
 90
        1
176
     1
 90
        0
176
     1
 40
0.6
176
     1
 40
30.0
176
     1
 62
     7
420
 16777215
176
     1
 90
        0
176
     1
 90
        4
176
     1
 62
     7
176
     1
 62
   257
176
     1
 90
        1
176
     1
 90
        1
176
     1
 40
1.0
176
     1
 90
        8
176
     1
 62
     7
176
     1
 40
1.0
176
     1
 90
        1
176
     1
 90
        6
176
     1
 90
        2
176
     1
 62
     7
176
     1
 90
        5
176
     1
 90
        0
176
     1
 90
        0
176
     1
290
     0
176
     1
 90
        1
176
     1
 40
0.0
176
     1
 90
        0
176
     1
290
     0
176
     1
290
     1
176
     1
290
     1
176
     1
290
     0
176
     1
290
     0
176
     1
290
     0
176
     1
290
     0
176
     1
290
     0
176
     1
290
     0
176
     1
 90
       50
176
     1
 40
0.0
176
     1
 40
1.0
176
     1
 90
        0
176
     1
 62
    18
420
        0
176
     1
 90
       50
176
     1
 90
        3
176
     1
 62
     5
420
      255
176
     1
290
     0
176
     1
 90
       50
176
     1
 90
       50
176
     1
 90
       50
176
     1
290
     0
176
     1
 90
       50
176
     1
 62
   256
176
     0
 40
1.0
176
     0
 90
        2
176
     1
  1
strokes_ogs.tif
176
     1
290
     0
176
     1
 40
1.0
176
     1
 40
1.0
176
     1
  0
VISUALSTYLE
  5
36
102
{ACAD_REACTORS
330
2A
102
}
330
2A
100
AcDbVisualStyle
  2
Brighten
 70
    12
177
     3
291
     1
 70
    58
 90
        2
176
     1
 90
        2
176
     1
 90
        0
176
     1
 90
        0
176
     1
 40
0.6
176
     1
 40
30.0
176
     1
 62
     7
420
 16777215
176
     1
 90
        1
176
     1
 90
        4
176
     1
 62
     7
176
     1
 62
   257
176
     1
 90
        1
176
     1
 90
        1
176
     1
 40
1.0
176
     1
 90
        8
176
     1
 62
     7
176
     1
 40
1.0
176
     1
 90
        1
176
     1
 90
        6
176
     1
 90
        2
176
     1
 62
     7
176
     1
 90
        5
176
     1
 90
        0
176
     1
 90
        0
176
     1
290
     0
176
     1
 90
        1
176
     1
 40
50.0
176
     1
 90
        0
176
     1
290
     0
176
     1
290
     1
176
     1
290
     1
176
     1
290
     0
176
     1
290
     0
176
     1
290
     0
176
     1
290
     0
176
     1
290
     0
176
     1
290
     0
176
     1
 90
       50
176
     1
 40
0.0
176
     1
 40
1.0
176
     1
 90
        0
176
     1
 62
    18
420
        0
176
     1
 90
       50
176
     1
 90
        3
176
     1
 62
     5
420
      255
176
     1
290
     0
176
     1
 90
       50
176
     1
 90
       50
176
     1
 90
       50
176
     1
290
     0
176
     1
 90
       50
176
     1
 62
   256
176
     0
 40
1.0
176
     0
 90
        2
176
     1
  1
strokes_ogs.tif
176
     1
290
     0
176
     1
 40
1.0
176
     1
 40
1.0
176
     1
  0
VISUALSTYLE
  5
3A
102
{ACAD_REACTORS
330
2A
102
}
330
2A
100
AcDbVisualStyle
  2
ColorChange
 70
    16
177
     3
291
     1
 70
    58
 90
        2
176
     1
 90
        2
176
     1
 90
        3
176
     1
 90
        0
176
     1
 40
0.6
176
     1
 40
30.0
176
     1
 62
     8
420
  8421504
176
     1
 90
        1
176
     1
 90
        4
176
     1
 62
     7
176
     1
 62
   257
176
     1
 90
        1
176
     1
 90
        1
176
     1
 40
1.0
176
     1
 90
        8
176
     1
 62
     8
420
  8421504
176
     1
 40
1.0
176
     1
 90
        1
176
     1
 90
        6
176
     1
 90
        2
176
     1
 62
     7
176
     1
 90
        5
176
     1
 90
        0
176
     1
 90
        0
176
     1
290
     0
176
     1
 90
        1
176
     1
 40
0.0
176
     1
 90
        0
176
     1
290
     0
176
     1
290
     1
176
     1
290
     1
176
     1
290
     0
176
     1
290
     0
176
     1
290
     0
176
     1
290
     0
176
     1
290
     0
176
     1
290
     0
176
     1
 90
       50
176
     1
 40
0.0
176
     1
 40
1.0
176
     1
 90
        0
176
     1
 62
    18
420
        0
176
     1
 90
       50
176
     1
 90
        3
176
     1
 62
     5
420
      255
176
     1
290
     0
176
     1
 90
       50
176
     1
 90
       50
176
     1
 90
       50
176
     1
290
     0
176
     1
 90
       50
176
     1
 62
   256
176
     0
 40
1.0
176
     0
 90
        2
176
     1
  1
strokes_ogs.tif
176
     1
290
     0
176
     1
 40
1.0
176
     1
 40
1.0
176
     1
  0
VISUALSTYLE
  5
34
102
{ACAD_REACTORS
330
2A
102
}
330
2A
100
AcDbVisualStyle
  2
Conceptual
 70
     9
177
     3
291
     0
 70
    58
 90
        3
176
     1
 90
        2
176
     1
 90
        0
176
     1
 90
        0
176
     1
 40
0.6
176
     1
 40
30.0
176
     1
 62
     7
420
 16777215
176
     1
 90
        2
176
     1
 90
        2
176
     1
 62
     7
176
     1
 62
   257
176
     1
 90
        1
176
     1
 90
        1
176
     1
 40
179.0
176
     1
 90
        8
176
     1
 62
     7
176
     1
 40
1.0
176
     1
 90
        1
176
     1
 90
        6
176
     1
 90
        2
176
     1
 62
     7
176
     1
 90
        3
176
     1
 90
        0
176
     1
 90
        0
176
     1
290
     0
176
     1
 90
        1
176
     1
 40
0.0
176
     1
 90
        0
176
     1
290
     0
176
     1
290
     1
176
     1
290
     1
176
     1
290
     0
176
     1
290
     0
176
     1
290
     0
176
     1
290
     0
176
     1
290
     0
176
     1
290
     0
176
     1
 90
       50
176
     1
 40
0.0
176
     1
 40
1.0
176
     1
 90
        0
176
     1
 62
    18
420
        0
176
     1
 90
       50
176
     1
 90
        3
176
     1
 62
     5
420
      255
176
     1
290
     0
176
     1
 90
       50
176
     1
 90
       50
176
     1
 90
       50
176
     1
290
     0
176
     1
 90
       50
176
     1
 62
   256
176
     0
 40
1.0
176
     0
 90
        2
176
     1
  1
strokes_ogs.tif
176
     1
290
     0
176
     1
 40
1.0
176
     1
 40
1.0
176
     1
  0
VISUALSTYLE
  5
35
102
{ACAD_REACTORS
330
2A
102
}
330
2A
100
AcDbVisualStyle
  2
Dim
 70
    11
177
     3
291
     1
 70
    58
 90
        2
176
     1
 90
        2
176
     1
 90
        0
176
     1
 90
        0
176
     1
 40
0.6
176
     1
 40
30.0
176
     1
 62
     7
420
 16777215
176
     1
 90
        1
176
     1
 90
        4
176
     1
 62
     7
176
     1
 62
   257
176
     1
 90
        1
176
     1
 90
        1
176
     1
 40
1.0
176
     1
 90
        8
176
     1
 62
     7
176
     1
 40
1.0
176
     1
 90
        1
176
     1
 90
        6
176
     1
 90
        2
176
     1
 62
     7
176
     1
 90
        5
176
     1
 90
        0
176
     1
 90
        0
176
     1
290
     0
176
     1
 90
        1
176
     1
 40
-50.0
176
     1
 90
        0
176
     1
290
     0
176
     1
290
     1
176
     1
290
     1
176
     1
290
     0
176
     1
290
     0
176
     1
290
     0
176
     1
290
     0
176
     1
290
     0
176
     1
290
     0
176
     1
 90
       50
176
     1
 40
0.0
176
     1
 40
1.0
176
     1
 90
        0
176
     1
 62
    18
420
        0
176
     1
 90
       50
176
     1
 90
        3
176
     1
 62
     5
420
      255
176
     1
290
     0
176
     1
 90
       50
176
     1
 90
       50
176
     1
 90
       50
176
     1
290
     0
176
     1
 90
       50
176
     1
 62
   256
176
     0
 40
1.0
176
     0
 90
        2
176
     1
  1
strokes_ogs.tif
176
     1
290
     0
176
     1
 40
1.0
176
     1
 40
1.0
176
     1
  0
VISUALSTYLE
  5
3D
102
{ACAD_REACTORS
330
2A
102
}
330
2A
100
AcDbVisualStyle
  2
EdgeColorOff
 70
    22
177
     3
291
     1
 70
    58
 90
        2
176
     0
 90
        2
176
     0
 90
        0
176
     0
 90
        0
176
     0
 40
0.6
176
     0
 40
30.0
176
     0
 62
     7
420
 16777215
176
     0
 90
        1
176
     0
 90
        4
176
     0
 62
     7
176
     0
 62
   257
176
     0
 90
        1
176
     0
 90
        1
176
     0
 40
1.0
176
     0
 90
        8
176
     2
 62
     7
176
     0
 40
1.0
176
     0
 90
        1
176
     0
 90
        6
176
     0
 90
        2
176
     0
 62
     7
176
     0
 90
        5
176
     0
 90
        0
176
     0
 90
        0
176
     0
290
     0
176
     0
 90
        1
176
     0
 40
0.0
176
     0
 90
        0
176
     0
290
     0
176
     0
290
     1
176
     0
290
     1
176
     0
290
     0
176
     0
290
     0
176
     0
290
     0
176
     0
290
     0
176
     0
290
     0
176
     0
290
     0
176
     0
 90
       50
176
     0
 40
0.0
176
     0
 40
1.0
176
     0
 90
        0
176
     0
 62
    18
420
        0
176
     0
 90
       50
176
     0
 90
        3
176
     0
 62
     5
420
      255
176
     0
290
     0
176
     0
 90
       50
176
     0
 90
       50
176
     0
 90
       50
176
     0
290
     0
176
     0
 90
       50
176
     0
 62
   256
176
     0
 40
1.0
176
     0
 90
        2
176
     0
  1
strokes_ogs.tif
176
     0
290
     0
176
     0
 40
1.0
176
     0
 40
1.0
176
     0
  0
VISUALSTYLE
  5
39
102
{ACAD_REACTORS
330
2A
102
}
330
2A
100
AcDbVisualStyle
  2
Facepattern
 70
    15
177
     3
291
     1
 70
    58
 90
        2
176
     1
 90
        2
176
     1
 90
        0
176
     1
 90
        0
176
     1
 40
0.6
176
     1
 40
30.0
176
     1
 62
     7
420
 16777215
176
     1
 90
        1
176
     1
 90
        4
176
     1
 62
     7
176
     1
 62
   257
176
     1
 90
        1
176
     1
 90
        1
176
     1
 40
1.0
176
     1
 90
        8
176
     1
 62
     7
176
     1
 40
1.0
176
     1
 90
        1
176
     1
 90
        6
176
     1
 90
        2
176
     1
 62
     7
176
     1
 90
        5
176
     1
 90
        0
176
     1
 90
        0
176
     1
290
     0
176
     1
 90
        1
176
     1
 40
0.0
176
     1
 90
        0
176
     1
290
     0
176
     1
290
     1
176
     1
290
     1
176
     1
290
     0
176
     1
290
     0
176
     1
290
     0
176
     1
290
     0
176
     1
290
     0
176
     1
290
     0
176
     1
 90
       50
176
     1
 40
0.0
176
     1
 40
1.0
176
     1
 90
        0
176
     1
 62
    18
420
        0
176
     1
 90
       50
176
     1
 90
        3
176
     1
 62
     5
420
      255
176
     1
290
     0
176
     1
 90
       50
176
     1
 90
       50
176
     1
 90
       50
176
     1
290
     0
176
     1
 90
       50
176
     1
 62
   256
176
     0
 40
1.0
176
     0
 90
        2
176
     1
  1
strokes_ogs.tif
176
     1
290
     0
176
     1
 40
1.0
176
     1
 40
1.0
176
     1
  0
VISUALSTYLE
  5
2B
102
{ACAD_REACTORS
330
2A
102
}
330
2A
100
AcDbVisualStyle
  2
Flat
 70
     0
177
     3
291
     1
 70
    58
 90
        2
176
     1
 90
        1
176
     1
 90
        1
176
     1
 90
        2
176
     1
 40
0.6
176
     1
 40
30.0
176
     1
 62
     7
420
 16777215
176
     1
 90
        0
176
     1
 90
        0
176
     1
 62
     7
176
     1
 62
   257
176
     1
 90
        1
176
     1
 90
        1
176
     1
 40
1.0
176
     1
 90
        8
176
     1
 62
     7
176
     1
 40
1.0
176
     1
 90
        1
176
     1
 90
        6
176
     1
 90
        2
176
     1
 62
     7
176
     1
 90
        5
176
     1
 90
        0
176
     1
 90
        0
176
     1
290
     0
176
     1
 90
       13
176
     1
 40
0.0
176
     1
 90
        0
176
     1
290
     0
176
     1
290
     1
176
     1
290
     1
176
     1
290
     0
176
     1
290
     0
176
     1
290
     0
176
     1
290
     0
176
     1
290
     0
176
     1
290
     0
176
     1
 90
       50
176
     1
 40
0.0
176
     1
 40
1.0
176
     1
 90
        0
176
     1
 62
    18
420
        0
176
     1
 90
       50
176
     1
 90
        3
176
     1
 62
     5
420
      255
176
     1
290
     0
176
     1
 90
       50
176
     1
 90
       50
176
     1
 90
       50
176
     1
290
     0
176
     1
 90
       50
176
     1
 62
   256
176
     0
 40
1.0
176
     0
 90
        2
176
     1
  1
strokes_ogs.tif
176
     1
290
     0
176
     1
 40
1.0
176
     1
 40
1.0
176
     1
  0
VISUALSTYLE
  5
2C
102
{ACAD_REACTORS
330
2A
102
}
330
2A
100
AcDbVisualStyle
  2
FlatWithEdges
 70
     1
177
     3
291
     1
 70
    58
 90
        2
176
     1
 90
        1
176
     1
 90
        1
176
     1
 90
        2
176
     1
 40
0.6
176
     1
 40
30.0
176
     1
 62
     7
420
 16777215
176
     1
 90
        1
176
     1
 90
        0
176
     1
 62
     7
176
     1
 62
   257
176
     1
 90
        1
176
     1
 90
        1
176
     1
 40
1.0
176
     1
 90
        0
176
     1
 62
   257
176
     1
 40
1.0
176
     1
 90
        1
176
     1
 90
        6
176
     1
 90
        2
176
     1
 62
     7
176
     1
 90
        5
176
     1
 90
        0
176
     1
 90
        0
176
     1
290
     0
176
     1
 90
       13
176
     1
 40
0.0
176
     1
 90
        0
176
     1
290
     0
176
     1
290
     1
176
     1
290
     1
176
     1
290
     0
176
     1
290
     0
176
     1
290
     0
176
     1
290
     0
176
     1
290
     0
176
     1
290
     0
176
     1
 90
       50
176
     1
 40
0.0
176
     1
 40
1.0
176
     1
 90
        0
176
     1
 62
    18
420
        0
176
     1
 90
       50
176
     1
 90
        3
176
     1
 62
     5
420
      255
176
     1
290
     0
176
     1
 90
       50
176
     1
 90
       50
176
     1
 90
       50
176
     1
290
     0
176
     1
 90
       50
176
     1
 62
   256
176
     0
 40
1.0
176
     0
 90
        2
176
     1
  1
strokes_ogs.tif
176
     1
290
     0
176
     1
 40
1.0
176
     1
 40
1.0
176
     1
  0
VISUALSTYLE
  5
2D
102
{ACAD_REACTORS
330
2A
102
}
330
2A
100
AcDbVisualStyle
  2
Gouraud
 70
     2
177
     3
291
     1
 70
    58
 90
        2
176
     1
 90
        2
176
     1
 90
        1
176
     1
 90
        2
176
     1
 40
0.6
176
     1
 40
30.0
176
     1
 62
     7
420
 16777215
176
     1
 90
        0
176
     1
 90
        0
176
     1
 62
     7
176
     1
 62
   257
176
     1
 90
        1
176
     1
 90
        1
176
     1
 40
1.0
176
     1
 90
        0
176
     1
 62
     7
176
     1
 40
1.0
176
     1
 90
        1
176
     1
 90
        6
176
     1
 90
        2
176
     1
 62
     7
176
     1
 90
        5
176
     1
 90
        0
176
     1
 90
        0
176
     1
290
     0
176
     1
 90
       13
176
     1
 40
0.0
176
     1
 90
        0
176
     1
290
     0
176
     1
290
     1
176
     1
290
     1
176
     1
290
     0
176
     1
290
     0
176
     1
290
     0
176
     1
290
     0
176
     1
290
     0
176
     1
290
     0
176
     1
 90
       50
176
     1
 40
0.0
176
     1
 40
1.0
176
     1
 90
        0
176
     1
 62
    18
420
        0
176
     1
 90
       50
176
     1
 90
        3
176
     1
 62
     5
420
      255
176
     1
290
     0
176
     1
 90
       50
176
     1
 90
       50
176
     1
 90
       50
176
     1
290
     0
176
     1
 90
       50
176
     1
 62
   256
176
     0
 40
1.0
176
     0
 90
        2
176
     1
  1
strokes_ogs.tif
176
     1
290
     0
176
     1
 40
1.0
176
     1
 40
1.0
176
     1
  0
VISUALSTYLE
  5
2E
102
{ACAD_REACTORS
330
2A
102
}
330
2A
100
AcDbVisualStyle
  2
GouraudWithEdges
 70
     3
177
     3
291
     1
 70
    58
 90
        2
176
     1
 90
        2
176
     1
 90
        1
176
     1
 90
        2
176
     1
 40
0.6
176
     1
 40
30.0
176
     1
 62
     7
420
 16777215
176
     1
 90
        1
176
     1
 90
        0
176
     1
 62
     7
176
     1
 62
   257
176
     1
 90
        1
176
     1
 90
        1
176
     1
 40
1.0
176
     1
 90
        0
176
     1
 62
   257
176
     1
 40
1.0
176
     1
 90
        1
176
     1
 90
        6
176
     1
 90
        2
176
     1
 62
     7
176
     1
 90
        5
176
     1
 90
        0
176
     1
 90
        0
176
     1
290
     0
176
     1
 90
       13
176
     1
 40
0.0
176
     1
 90
        0
176
     1
290
     0
176
     1
290
     1
176
     1
290
     1
176
     1
290
     0
176
     1
290
     0
176
     1
290
     0
176
     1
290
     0
176
     1
290
     0
176
     1
290
     0
176
     1
 90
       50
176
     1
 40
0.0
176
     1
 40
1.0
176
     1
 90
        0
176
     1
 62
    18
420
        0
176
     1
 90
       50
176
     1
 90
        3
176
     1
 62
     5
420
      255
176
     1
290
     0
176
     1
 90
       50
176
     1
 90
       50
176
     1
 90
       50
176
     1
290
     0
176
     1
 90
       50
176
     1
 62
   256
176
     0
 40
1.0
176
     0
 90
        2
176
     1
  1
strokes_ogs.tif
176
     1
290
     0
176
     1
 40
1.0
176
     1
 40
1.0
176
     1
  0
VISUALSTYLE
  5
31
102
{ACAD_REACTORS
330
2A
102
}
330
2A
100
AcDbVisualStyle
  2
Hidden
 70
     6
177
     3
291
     0
 70
    58
 90
        1
176
     1
 90
        2
176
     1
 90
        2
176
     1
 90
        0
176
     1
 40
0.6
176
     1
 40
30.0
176
     1
 62
     7
420
 16777215
176
     1
 90
        2
176
     1
 90
        2
176
     1
 62
     7
176
     1
 62
   257
176
     1
 90
        2
176
     1
 90
        1
176
     1
 40
40.0
176
     1
 90
        0
176
     1
 62
   257
176
     1
 40
1.0
176
     1
 90
        1
176
     1
 90
        6
176
     1
 90
        2
176
     1
 62
     7
176
     1
 90
        3
176
     1
 90
        0
176
     1
 90
        0
176
     1
290
     0
176
     1
 90
        1
176
     1
 40
0.0
176
     1
 90
        0
176
     1
290
     0
176
     1
290
     1
176
     1
290
     1
176
     1
290
     0
176
     1
290
     0
176
     1
290
     0
176
     1
290
     0
176
     1
290
     0
176
     1
290
     0
176
     1
 90
       50
176
     1
 40
0.0
176
     1
 40
1.0
176
     1
 90
        0
176
     1
 62
    18
420
        0
176
     1
 90
       50
176
     1
 90
        3
176
     1
 62
     5
420
      255
176
     1
290
     0
176
     1
 90
       50
176
     1
 90
       50
176
     1
 90
       50
176
     1
290
     0
176
     1
 90
       50
176
     1
 62
   256
176
     0
 40
1.0
176
     0
 90
        2
176
     1
  1
strokes_ogs.tif
176
     1
290
     0
176
     1
 40
1.0
176
     1
 40
1.0
176
     1
  0
VISUALSTYLE
  5
3B
102
{ACAD_REACTORS
330
2A
102
}
330
2A
100
AcDbVisualStyle
  2
JitterOff
 70
    20
177
     3
291
     1
 70
    58
 90
        2
176
     0
 90
        2
176
     0
 90
        0
176
     0
 90
        0
176
     0
 40
0.6
176
     0
 40
30.0
176
     0
 62
     7
420
 16777215
176
     0
 90
        1
176
     0
 90
        4
176
     0
 62
     7
176
     0
 62
   257
176
     0
 90
        1
176
     0
 90
        1
176
     0
 40
1.0
176
     0
 90
       10
176
     2
 62
     7
176
     0
 40
1.0
176
     0
 90
        1
176
     0
 90
        6
176
     0
 90
        2
176
     0
 62
     7
176
     0
 90
        5
176
     0
 90
        0
176
     0
 90
        0
176
     0
290
     0
176
     0
 90
        1
176
     0
 40
0.0
176
     0
 90
        0
176
     0
290
     0
176
     0
290
     1
176
     0
290
     1
176
     0
290
     0
176
     0
290
     0
176
     0
290
     0
176
     0
290
     0
176
     0
290
     0
176
     0
290
     0
176
     0
 90
       50
176
     0
 40
0.0
176
     0
 40
1.0
176
     0
 90
        0
176
     0
 62
    18
420
        0
176
     0
 90
       50
176
     0
 90
        3
176
     0
 62
     5
420
      255
176
     0
290
     0
176
     0
 90
       50
176
     0
 90
       50
176
     0
 90
       50
176
     0
290
     0
176
     0
 90
       50
176
     0
 62
   256
176
     0
 40
1.0
176
     0
 90
        2
176
     0
  1
strokes_ogs.tif
176
     0
290
     0
176
     0
 40
1.0
176
     0
 40
1.0
176
     0
  0
VISUALSTYLE
  5
38
102
{ACAD_REACTORS
330
2A
102
}
330
2A
100
AcDbVisualStyle
  2
Linepattern
 70
    14
177
     3
291
     1
 70
    58
 90
        2
176
     1
 90
        2
176
     1
 90
        0
176
     1
 90
        0
176
     1
 40
0.6
176
     1
 40
30.0
176
     1
 62
     7
420
 16777215
176
     1
 90
        1
176
     1
 90
        4
176
     1
 62
     7
176
     1
 62
   257
176
     1
 90
        7
176
     1
 90
        7
176
     1
 40
1.0
176
     1
 90
        8
176
     1
 62
     7
176
     1
 40
1.0
176
     1
 90
        1
176
     1
 90
        6
176
     1
 90
        2
176
     1
 62
     7
176
     1
 90
        5
176
     1
 90
        0
176
     1
 90
        0
176
     1
290
     0
176
     1
 90
        1
176
     1
 40
0.0
176
     1
 90
        0
176
     1
290
     0
176
     1
290
     1
176
     1
290
     1
176
     1
290
     0
176
     1
290
     0
176
     1
290
     0
176
     1
290
     0
176
     1
290
     0
176
     1
290
     0
176
     1
 90
       50
176
     1
 40
0.0
176
     1
 40
1.0
176
     1
 90
        0
176
     1
 62
    18
420
        0
176
     1
 90
       50
176
     1
 90
        3
176
     1
 62
     5
420
      255
176
     1
290
     0
176
     1
 90
       50
176
     1
 90
       50
176
     1
 90
       50
176
     1
290
     0
176
     1
 90
       50
176
     1
 62
   256
176
     0
 40
1.0
176
     0
 90
        2
176
     1
  1
strokes_ogs.tif
176
     1
290
     0
176
     1
 40
1.0
176
     1
 40
1.0
176
     1
  0
VISUALSTYLE
  5
3C
102
{ACAD_REACTORS
330
2A
102
}
330
2A
100
AcDbVisualStyle
  2
OverhangOff
 70
    21
177
     3
291
     1
 70
    58
 90
        2
176
     0
 90
        2
176
     0
 90
        0
176
     0
 90
        0
176
     0
 40
0.6
176
     0
 40
30.0
176
     0
 62
     7
420
 16777215
176
     0
 90
        1
176
     0
 90
        4
176
     0
 62
     7
176
     0
 62
   257
176
     0
 90
        1
176
     0
 90
        1
176
     0
 40
1.0
176
     0
 90
        9
176
     2
 62
     7
176
     0
 40
1.0
176
     0
 90
        1
176
     0
 90
        6
176
     0
 90
        2
176
     0
 62
     7
176
     0
 90
        5
176
     0
 90
        0
176
     0
 90
        0
176
     0
290
     0
176
     0
 90
        1
176
     0
 40
0.0
176
     0
 90
        0
176
     0
290
     0
176
     0
290
     1
176
     0
290
     1
176
     0
290
     0
176
     0
290
     0
176
     0
290
     0
176
     0
290
     0
176
     0
290
     0
176
     0
290
     0
176
     0
 90
       50
176
     0
 40
0.0
176
     0
 40
1.0
176
     0
 90
        0
176
     0
 62
    18
420
        0
176
     0
 90
       50
176
     0
 90
        3
176
     0
 62
     5
420
      255
176
     0
290
     0
176
     0
 90
       50
176
     0
 90
       50
176
     0
 90
       50
176
     0
290
     0
176
     0
 90
       50
176
     0
 62
   256
176
     0
 40
1.0
176
     0
 90
        2
176
     0
  1
strokes_ogs.tif
176
     0
290
     0
176
     0
 40
1.0
176
     0
 40
1.0
176
     0
  0
VISUALSTYLE
  5
33
102
{ACAD_REACTORS
330
2A
102
}
330
2A
100
AcDbVisualStyle
  2
Realistic
 70
     8
177
     3
291
     0
 70
    58
 90
        2
176
     1
 90
        3
176
     1
 90
        0
176
     1
 90
        2
176
     1
 40
0.6
176
     1
 40
30.0
176
     1
 62
     7
420
 16777215
176
     1
 90
        0
176
     1
 90
        0
176
     1
 62
     7
176
     1
 62
   257
176
     1
 90
        1
176
     1
 90
        1
176
     1
 40
1.0
176
     1
 90
        8
176
     1
 62
   257
176
     1
 40
1.0
176
     1
 90
        1
176
     1
 90
        6
176
     1
 90
        2
176
     1
 62
     7
176
     1
 90
        3
176
     1
 90
        0
176
     1
 90
        0
176
     1
290
     0
176
     1
 90
       13
176
     1
 40
0.0
176
     1
 90
        0
176
     1
290
     0
176
     1
290
     1
176
     1
290
     1
176
     1
290
     0
176
     1
290
     0
176
     1
290
     0
176
     1
290
     0
176
     1
290
     0
176
     1
290
     0
176
     1
 90
       50
176
     1
 40
0.0
176
     1
 40
1.0
176
     1
 90
        0
176
     1
 62
    18
420
        0
176
     1
 90
       50
176
     1
 90
        3
176
     1
 62
     5
420
      255
176
     1
290
     0
176
     1
 90
       50
176
     1
 90
       50
176
     1
 90
       50
176
     1
290
     0
176
     1
 90
       50
176
     1
 62
   256
176
     0
 40
1.0
176
     0
 90
        2
176
     1
  1
strokes_ogs.tif
176
     1
290
     0
176
     1
 40
1.0
176
     1
 40
1.0
176
     1
  0
VISUALSTYLE
  5
42
102
{ACAD_REACTORS
330
2A
102
}
330
2A
100
AcDbVisualStyle
  2
Shaded
 70
    27
177
     3
291
     0
 70
    58
 90
        2
176
     1
 90
        2
176
     1
 90
        1
176
     1
 90
        2
176
     1
 40
0.6
176
     1
 40
30.0
176
     1
 62
     7
420
 16777215
176
     1
 90
        0
176
     1
 90
        4
176
     1
 62
     7
176
     1
 62
   257
176
     1
 90
        1
176
     1
 90
        1
176
     1
 40
1.0
176
     1
 90
        8
176
     1
 62
   257
176
     1
 40
1.0
176
     1
 90
        1
176
     1
 90
        6
176
     1
 90
        2
176
     1
 62
     8
420
  7895160
176
     1
 90
        3
176
     1
 90
        0
176
     1
 90
        0
176
     1
290
     0
176
     1
 90
        5
176
     1
 40
0.0
176
     1
 90
        0
176
     1
290
     0
176
     1
290
     1
176
     1
290
     1
176
     1
290
     0
176
     1
290
     0
176
     1
290
     0
176
     1
290
     0
176
     1
290
     0
176
     1
290
     0
176
     1
 90
       50
176
     1
 40
0.0
176
     1
 40
1.0
176
     1
 90
        0
176
     1
 62
    18
420
        0
176
     1
 90
       50
176
     1
 90
        3
176
     1
 62
     5
420
      255
176
     1
290
     0
176
     1
 90
       50
176
     1
 90
       50
176
     1
 90
       50
176
     1
290
     0
176
     1
 90
       50
176
     1
 62
   256
176
     0
 40
1.0
176
     0
 90
        2
176
     1
  1
strokes_ogs.tif
176
     1
290
     0
176
     1
 40
1.0
176
     1
 40
1.0
176
     1
  0
VISUALSTYLE
  5
41
102
{ACAD_REACTORS
330
2A
102
}
330
2A
100
AcDbVisualStyle
  2
Shaded with edges
 70
    26
177
     3
291
     0
 70
    58
 90
        2
176
     1
 90
        2
176
     1
 90
        1
176
     1
 90
        2
176
     1
 40
0.6
176
     1
 40
30.0
176
     1
 62
     7
420
 16777215
176
     1
 90
        1
176
     1
 90
       10
176
     1
 62
     7
176
     1
 62
   257
176
     1
 90
        2
176
     1
 90
        1
176
     1
 40
1.0
176
     1
 90
        8
176
     1
 62
   257
176
     1
 40
1.0
176
     1
 90
        1
176
     1
 90
        6
176
     1
 90
        2
176
     1
 62
     7
176
     1
 90
        3
176
     1
 90
        0
176
     1
 90
        0
176
     1
290
     0
176
     1
 90
        5
176
     1
 40
0.0
176
     1
 90
        0
176
     1
290
     0
176
     1
290
     1
176
     1
290
     1
176
     1
290
     0
176
     1
290
     0
176
     1
290
     0
176
     1
290
     0
176
     1
290
     0
176
     1
290
     0
176
     1
 90
       50
176
     1
 40
0.0
176
     1
 40
1.0
176
     1
 90
        0
176
     1
 62
    18
420
        0
176
     1
 90
       50
176
     1
 90
        3
176
     1
 62
     5
420
      255
176
     1
290
     0
176
     1
 90
       50
176
     1
 90
       50
176
     1
 90
       50
176
     1
290
     0
176
     1
 90
       50
176
     1
 62
   256
176
     0
 40
1.0
176
     0
 90
        2
176
     1
  1
strokes_ogs.tif
176
     1
290
     0
176
     1
 40
1.0
176
     1
 40
1.0
176
     1
  0
VISUALSTYLE
  5
3E
102
{ACAD_REACTORS
330
2A
102
}
330
2A
100
AcDbVisualStyle
  2
Shades of Gray
 70
    23
177
     3
291
     0
 70
    58
 90
        2
176
     1
 90
        2
176
     1
 90
        3
176
     1
 90
        0
176
     1
 40
0.6
176
     1
 40
30.0
176
     1
 62
     7
420
 16777215
176
     1
 90
        2
176
     1
 90
        2
176
     1
 62
     7
176
     1
 62
     7
176
     1
 90
        1
176
     1
 90
        1
176
     1
 40
40.0
176
     1
 90
        8
176
     1
 62
     7
176
     1
 40
1.0
176
     1
 90
        1
176
     1
 90
        6
176
     1
 90
        2
176
     1
 62
     7
176
     1
 90
        3
176
     1
 90
        0
176
     1
 90
        0
176
     1
290
     0
176
     1
 90
        1
176
     1
 40
0.0
176
     1
 90
        0
176
     1
290
     0
176
     1
290
     1
176
     1
290
     1
176
     1
290
     0
176
     1
290
     0
176
     1
290
     0
176
     1
290
     0
176
     1
290
     0
176
     1
290
     0
176
     1
 90
       50
176
     1
 40
0.0
176
     1
 40
1.0
176
     1
 90
        0
176
     1
 62
    18
420
        0
176
     1
 90
       50
176
     1
 90
        3
176
     1
 62
     5
420
      255
176
     1
290
     0
176
     1
 90
       50
176
     1
 90
       50
176
     1
 90
       50
176
     1
290
     0
176
     1
 90
       50
176
     1
 62
   256
176
     0
 40
1.0
176
     0
 90
        2
176
     1
  1
strokes_ogs.tif
176
     1
290
     0
176
     1
 40
1.0
176
     1
 40
1.0
176
     1
  0
VISUALSTYLE
  5
3F
102
{ACAD_REACTORS
330
2A
102
}
330
2A
100
AcDbVisualStyle
  2
Sketchy
 70
    24
177
     3
291
     0
 70
    58
 90
        1
176
     1
 90
        2
176
     1
 90
        2
176
     1
 90
        0
176
     1
 40
0.6
176
     1
 40
30.0
176
     1
 62
     7
420
 16777215
176
     1
 90
        2
176
     1
 90
        2
176
     1
 62
     7
176
     1
 62
     7
176
     1
 90
        1
176
     1
 90
        1
176
     1
 40
40.0
176
     1
 90
       11
176
     1
 62
     7
176
     1
 40
1.0
176
     1
 90
        1
176
     1
 90
        6
176
     1
 90
        2
176
     1
 62
     7
176
     1
 90
        6
176
     1
 90
        0
176
     1
 90
        0
176
     1
290
     0
176
     1
 90
        1
176
     1
 40
0.0
176
     1
 90
        0
176
     1
290
     0
176
     1
290
     1
176
     1
290
     1
176
     1
290
     0
176
     1
290
     0
176
     1
290
     0
176
     1
290
     0
176
     1
290
     0
176
     1
290
     0
176
     1
 90
       50
176
     1
 40
0.0
176
     1
 40
1.0
176
     1
 90
        0
176
     1
 62
    18
420
        0
176
     1
 90
       50
176
     1
 90
        3
176
     1
 62
     5
420
      255
176
     1
290
     0
176
     1
 90
       50
176
     1
 90
       50
176
     1
 90
       50
176
     1
290
     0
176
     1
 90
       50
176
     1
 62
   256
176
     0
 40
1.0
176
     0
 90
        2
176
     1
  1
strokes_ogs.tif
176
     1
290
     0
176
     1
 40
1.0
176
     1
 40
1.0
176
     1
  0
VISUALSTYLE
  5
37
102
{ACAD_REACTORS
330
2A
102
}
330
2A
100
AcDbVisualStyle
  2
Thicken
 70
    13
177
     3
291
     1
 70
    58
 90
        2
176
     1
 90
        2
176
     1
 90
        0
176
     1
 90
        0
176
     1
 40
0.6
176
     1
 40
30.0
176
     1
 62
     7
420
 16777215
176
     1
 90
        1
176
     1
 90
        4
176
     1
 62
     7
176
     1
 62
   257
176
     1
 90
        1
176
     1
 90
        1
176
     1
 40
1.0
176
     1
 90
       12
176
     1
 62
     7
176
     1
 40
1.0
176
     1
 90
        1
176
     1
 90
        6
176
     1
 90
        2
176
     1
 62
     7
176
     1
 90
        5
176
     1
 90
        0
176
     1
 90
        0
176
     1
290
     0
176
     1
 90
        1
176
     1
 40
0.0
176
     1
 90
        0
176
     1
290
     0
176
     1
290
     1
176
     1
290
     1
176
     1
290
     0
176
     1
290
     0
176
     1
290
     0
176
     1
290
     0
176
     1
290
     0
176
     1
290
     0
176
     1
 90
       50
176
     1
 40
0.0
176
     1
 40
1.0
176
     1
 90
        0
176
     1
 62
    18
420
        0
176
     1
 90
       50
176
     1
 90
        3
176
     1
 62
     5
420
      255
176
     1
290
     0
176
     1
 90
       50
176
     1
 90
       50
176
     1
 90
       50
176
     1
290
     0
176
     1
 90
       50
176
     1
 62
   256
176
     0
 40
1.0
176
     0
 90
        2
176
     1
  1
strokes_ogs.tif
176
     1
290
     0
176
     1
 40
1.0
176
     1
 40
1.0
176
     1
  0
VISUALSTYLE
  5
30
102
{ACAD_REACTORS
330
2A
102
}
330
2A
100
AcDbVisualStyle
  2
Wireframe
 70
     5
177
     3
291
     0
 70
    58
 90
        0
176
     1
 90
        2
176
     1
 90
        0
176
     1
 90
        0
176
     1
 40
0.6
176
     1
 40
30.0
176
     1
 62
     7
420
 16777215
176
     1
 90
        1
176
     1
 90
        4
176
     1
 62
     7
176
     1
 62
   257
176
     1
 90
        1
176
     1
 90
        1
176
     1
 40
1.0
176
     1
 90
        0
176
     1
 62
   257
176
     1
 40
1.0
176
     1
 90
        1
176
     1
 90
        6
176
     1
 90
        2
176
     1
 62
     7
176
     1
 90
        3
176
     1
 90
        0
176
     1
 90
        0
176
     1
290
     0
176
     1
 90
        1
176
     1
 40
0.0
176
     1
 90
        0
176
     1
290
     0
176
     1
290
     1
176
     1
290
     1
176
     1
290
     0
176
     1
290
     0
176
     1
290
     0
176
     1
290
     0
176
     1
290
     0
176
     1
290
     0
176
     1
 90
       50
176
     1
 40
0.0
176
     1
 40
1.0
176
     1
 90
        0
176
     1
 62
    18
420
        0
176
     1
 90
       50
176
     1
 90
        3
176
     1
 62
     5
420
      255
176
     1
290
     0
176
     1
 90
       50
176
     1
 90
       50
176
     1
 90
       50
176
     1
290
     0
176
     1
 90
       50
176
     1
 62
   256
176
     0
 40
1.0
176
     0
 90
        2
176
     1
  1
strokes_ogs.tif
176
     1
290
     0
176
     1
 40
1.0
176
     1
 40
1.0
176
     1
  0
VISUALSTYLE
  5
40
102
{ACAD_REACTORS
330
2A
102
}
330
2A
100
AcDbVisualStyle
  2
X-Ray
 70
    25
177
     3
291
     0
 70
    58
 90
        2
176
     1
 90
        2
176
     1
 90
        1
176
     1
 90
        1
176
     1
 40
0.5
176
     1
 40
30.0
176
     1
 62
     7
420
 16777215
176
     1
 90
        1
176
     1
 90
        0
176
     1
 62
     7
176
     1
 62
   257
176
     1
 90
        1
176
     1
 90
        1
176
     1
 40
1.0
176
     1
 90
        8
176
     1
 62
     7
176
     1
 40
1.0
176
     1
 90
        1
176
     1
 90
        6
176
     1
 90
        2
176
     1
 62
     7
176
     1
 90
        3
176
     1
 90
        0
176
     1
 90
        0
176
     1
290
     0
176
     1
 90
       13
176
     1
 40
0.0
176
     1
 90
        0
176
     1
290
     0
176
     1
290
     1
176
     1
290
     1
176
     1
290
     0
176
     1
290
     0
176
     1
290
     0
176
     1
290
     0
176
     1
290
     0
176
     1
290
     0
176
     1
 90
       50
176
     1
 40
0.0
176
     1
 40
1.0
176
     1
 90
        0
176
     1
 62
    18
420
        0
176
     1
 90
       50
176
     1
 90
        3
176
     1
 62
     5
420
      255
176
     1
290
     0
176
     1
 90
       50
176
     1
 90
       50
176
     1
 90
       50
176
     1
290
     0
176
     1
 90
       50
176
     1
 62
   256
176
     0
 40
1.0
176
     0
 90
        2
176
     1
  1
strokes_ogs.tif
176
     1
290
     0
176
     1
 40
1.0
176
     1
 40
1.0
176
     1
  0
DICTIONARYVAR
  5
8E
102
{ACAD_REACTORS
330
8D
102
}
330
8D
100
DictionaryVariables
280
     0
  1
1:1
  0
DICTIONARYVAR
  5
96
102
{ACAD_REACTORS
330
8D
102
}
330
8D
100
DictionaryVariables
280
     0
  1
3.500000
  0
DICTIONARYVAR
  5
97
102
{ACAD_REACTORS
330
8D
102
}
330
8D
100
DictionaryVariables
280
     0
  1
acadiso.lin
  0
DICTIONARYVAR
  5
93
102
{ACAD_REACTORS
330
8D
102
}
330
8D
100
DictionaryVariables
280
     0
  1
Standard
  0
DICTIONARYVAR
  5
92
102
{ACAD_REACTORS
330
8D
102
}
330
8D
100
DictionaryVariables
280
     0
  1
Standard
  0
DICTIONARY
  5
8F
330
5A
100
AcDbDictionary
280
     1
281
     1
  3
ACAD_ROUNDTRIP_2008_TABLESTYLE_CELLSTYLEMAP
360
90
  0
CELLSTYLEMAP
  5
90
102
{ACAD_REACTORS
330
8F
102
}
330
8F
100
AcDbCellStyleMap
 90
        3
300
CELLSTYLE
  1
TABLEFORMAT_BEGIN
 90
        5
170
     1
 91
        0
 92
    32768
 62
   257
 93
        1
300
CONTENTFORMAT
  1
CONTENTFORMAT_BEGIN
 90
        0
 91
        0
 92
        4
 93
        0
300

 40
0.0
140
1.0
 94
        5
 62
     0
340
11
144
6.0
309
CONTENTFORMAT_END
171
     1
301
MARGIN
  1
CELLMARGIN_BEGIN
 40
1.5
 40
1.5
 40
1.5
 40
1.5
 40
1.5
 40
1.5
309
CELLMARGIN_END
 94
        6
 95
        1
302
GRIDFORMAT
  1
GRIDFORMAT_BEGIN
 90
        0
 91
        1
 62
     0
 92
       -2
340
14
 93
        0
 40
0.045
309
GRIDFORMAT_END
 95
        2
302
GRIDFORMAT
  1
GRIDFORMAT_BEGIN
 90
        0
 91
        1
 62
     0
 92
       -2
340
14
 93
        0
 40
0.045
309
GRIDFORMAT_END
 95
        4
302
GRIDFORMAT
  1
GRIDFORMAT_BEGIN
 90
        0
 91
        1
 62
     0
 92
       -2
340
14
 93
        0
 40
0.045
309
GRIDFORMAT_END
 95
        8
302
GRIDFORMAT
  1
GRIDFORMAT_BEGIN
 90
        0
 91
        1
 62
     0
 92
       -2
340
14
 93
        0
 40
0.045
309
GRIDFORMAT_END
 95
       16
302
GRIDFORMAT
  1
GRIDFORMAT_BEGIN
 90
        0
 91
        1
 62
     0
 92
       -2
340
14
 93
        0
 40
0.045
309
GRIDFORMAT_END
 95
       32
302
GRIDFORMAT
  1
GRIDFORMAT_BEGIN
 90
        0
 91
        1
 62
     0
 92
       -2
340
14
 93
        0
 40
0.045
309
GRIDFORMAT_END
309
TABLEFORMAT_END
  1
CELLSTYLE_BEGIN
 90
        1
 91
        1
300
_TITLE
309
CELLSTYLE_END
300
CELLSTYLE
  1
TABLEFORMAT_BEGIN
 90
        5
170
     1
 91
        0
 92
        0
 62
   257
 93
        1
300
CONTENTFORMAT
  1
CONTENTFORMAT_BEGIN
 90
        0
 91
        0
 92
        4
 93
        0
300

 40
0.0
140
1.0
 94
        5
 62
     0
340
11
144
4.5
309
CONTENTFORMAT_END
171
     1
301
MARGIN
  1
CELLMARGIN_BEGIN
 40
1.5
 40
1.5
 40
1.5
 40
1.5
 40
1.5
 40
1.5
309
CELLMARGIN_END
 94
        6
 95
        1
302
GRIDFORMAT
  1
GRIDFORMAT_BEGIN
 90
        0
 91
        1
 62
     0
 92
       -2
340
14
 93
        0
 40
0.045
309
GRIDFORMAT_END
 95
        2
302
GRIDFORMAT
  1
GRIDFORMAT_BEGIN
 90
        0
 91
        1
 62
     0
 92
       -2
340
14
 93
        0
 40
0.045
309
GRIDFORMAT_END
 95
        4
302
GRIDFORMAT
  1
GRIDFORMAT_BEGIN
 90
        0
 91
        1
 62
     0
 92
       -2
340
14
 93
        0
 40
0.045
309
GRIDFORMAT_END
 95
        8
302
GRIDFORMAT
  1
GRIDFORMAT_BEGIN
 90
        0
 91
        1
 62
     0
 92
       -2
340
14
 93
        0
 40
0.045
309
GRIDFORMAT_END
 95
       16
302
GRIDFORMAT
  1
GRIDFORMAT_BEGIN
 90
        0
 91
        1
 62
     0
 92
       -2
340
14
 93
        0
 40
0.045
309
GRIDFORMAT_END
 95
       32
302
GRIDFORMAT
  1
GRIDFORMAT_BEGIN
 90
        0
 91
        1
 62
     0
 92
       -2
340
14
 93
        0
 40
0.045
309
GRIDFORMAT_END
309
TABLEFORMAT_END
  1
CELLSTYLE_BEGIN
 90
        2
 91
        1
300
_HEADER
309
CELLSTYLE_END
300
CELLSTYLE
  1
TABLEFORMAT_BEGIN
 90
        5
170
     1
 91
        0
 92
        0
 62
   257
 93
        1
300
CONTENTFORMAT
  1
CONTENTFORMAT_BEGIN
 90
        0
 91
        0
 92
        4
 93
        0
300

 40
0.0
140
1.0
 94
        2
 62
     0
340
11
144
4.5
309
CONTENTFORMAT_END
171
     1
301
MARGIN
  1
CELLMARGIN_BEGIN
 40
1.5
 40
1.5
 40
1.5
 40
1.5
 40
1.5
 40
1.5
309
CELLMARGIN_END
 94
        6
 95
        1
302
GRIDFORMAT
  1
GRIDFORMAT_BEGIN
 90
        0
 91
        1
 62
     0
 92
       -2
340
14
 93
        0
 40
0.045
309
GRIDFORMAT_END
 95
        2
302
GRIDFORMAT
  1
GRIDFORMAT_BEGIN
 90
        0
 91
        1
 62
     0
 92
       -2
340
14
 93
        0
 40
0.045
309
GRIDFORMAT_END
 95
        4
302
GRIDFORMAT
  1
GRIDFORMAT_BEGIN
 90
        0
 91
        1
 62
     0
 92
       -2
340
14
 93
        0
 40
0.045
309
GRIDFORMAT_END
 95
        8
302
GRIDFORMAT
  1
GRIDFORMAT_BEGIN
 90
        0
 91
        1
 62
     0
 92
       -2
340
14
 93
        0
 40
0.045
309
GRIDFORMAT_END
 95
       16
302
GRIDFORMAT
  1
GRIDFORMAT_BEGIN
 90
        0
 91
        1
 62
     0
 92
       -2
340
14
 93
        0
 40
0.045
309
GRIDFORMAT_END
 95
       32
302
GRIDFORMAT
  1
GRIDFORMAT_BEGIN
 90
        0
 91
        1
 62
     0
 92
       -2
340
14
 93
        0
 40
0.045
309
GRIDFORMAT_END
309
TABLEFORMAT_END
  1
CELLSTYLE_BEGIN
 90
        3
 91
        2
300
_DATA
309
CELLSTYLE_END
  0
ENDSEC
  0
EOF
